<svg width="1589.1423828125px" height="140.01999511718748px" xmlns="http://www.w3.org/2000/svg" viewBox="-544.57119140625 4.990002441406261 1589.1423828125 140.01999511718748" style="background: rgba(0, 0, 0, 0);" preserveAspectRatio="xMidYMid"><defs><filter id="editing-extrusion" x="-100%" y="-100%" width="300%" height="300%"><feFlood result="color1" flood-color="#6579a2"></feFlood><feConvolveMatrix order="4,4" divisor="1" kernelMatrix="1 0 0 0 0 1 0 0 0 0 1 0 0 0 0 1" in="SourceAlpha" result="extrude"></feConvolveMatrix><feComposite in="color1" in2="extrude" result="comp-extrude" operator="in"></feComposite><feOffset dx="2" dy="2" in="comp-extrude" result="offset-extrude"></feOffset><feMerge><feMergeNode in="offset-extrude"></feMergeNode><feMergeNode in="SourceGraphic"></feMergeNode></feMerge></filter></defs><g filter="url(#editing-extrusion)"><g transform="translate(-328.7950415611267, 107.76000213623047)"><path d="M11.48 0L5.74 0L5.74-34.02L11.48-34.02L11.48 0ZM8.68-41.02L8.68-41.02L8.68-41.02Q7.00-41.02 5.85-42.07L5.85-42.07L5.85-42.07Q4.69-43.12 4.69-44.73L4.69-44.73L4.69-44.73Q4.69-46.41 5.85-47.43L5.85-47.43L5.85-47.43Q7.00-48.44 8.68-48.44L8.68-48.44L8.68-48.44Q10.36-48.44 11.52-47.43L11.52-47.43L11.52-47.43Q12.67-46.41 12.67-44.73L12.67-44.73L12.67-44.73Q12.67-43.12 11.52-42.07L11.52-42.07L11.52-42.07Q10.36-41.02 8.68-41.02ZM42.70 0L36.96 0L36.96-34.02L41.72-34.02L42.21-27.86L42.42-27.86L42.42-27.86Q44.17-31.08 46.66-32.97L46.66-32.97L46.66-32.97Q49.14-34.86 52.08-34.86L52.08-34.86L52.08-34.86Q54.11-34.86 55.72-34.16L55.72-34.16L54.60-29.12L54.60-29.12Q53.76-29.40 53.06-29.54L53.06-29.54L53.06-29.54Q52.36-29.68 51.31-29.68L51.31-29.68L51.31-29.68Q49.14-29.68 46.80-27.93L46.80-27.93L46.80-27.93Q44.45-26.18 42.70-21.84L42.70-21.84L42.70 0ZM74.34 0.84L74.34 0.84L74.34 0.84Q70.91 0.84 67.94-0.39L67.94-0.39L67.94-0.39Q64.96-1.61 62.76-3.89L62.76-3.89L62.76-3.89Q60.55-6.16 59.29-9.45L59.29-9.45L59.29-9.45Q58.03-12.74 58.03-16.94L58.03-16.94L58.03-16.94Q58.03-21.14 59.33-24.47L59.33-24.47L59.33-24.47Q60.62-27.79 62.76-30.10L62.76-30.10L62.76-30.10Q64.89-32.41 67.62-33.64L67.62-33.64L67.62-33.64Q70.35-34.86 73.29-34.86L73.29-34.86L73.29-34.86Q76.51-34.86 79.06-33.74L79.06-33.74L79.06-33.74Q81.62-32.62 83.34-30.52L83.34-30.52L83.34-30.52Q85.05-28.42 85.96-25.48L85.96-25.48L85.96-25.48Q86.87-22.54 86.87-18.90L86.87-18.90L86.87-18.90Q86.87-17.99 86.84-17.12L86.84-17.12L86.84-17.12Q86.80-16.24 86.66-15.61L86.66-15.61L63.70-15.61L63.70-15.61Q64.05-10.15 67.09-6.97L67.09-6.97L67.09-6.97Q70.14-3.78 75.04-3.78L75.04-3.78L75.04-3.78Q77.49-3.78 79.56-4.52L79.56-4.52L79.56-4.52Q81.62-5.25 83.51-6.44L83.51-6.44L85.54-2.66L85.54-2.66Q83.30-1.26 80.57-0.21L80.57-0.21L80.57-0.21Q77.84 0.84 74.34 0.84ZM63.63-19.74L63.63-19.74L81.83-19.74L81.83-19.74Q81.83-24.92 79.63-27.62L79.63-27.62L79.63-27.62Q77.42-30.31 73.43-30.31L73.43-30.31L73.43-30.31Q71.61-30.31 69.97-29.61L69.97-29.61L69.97-29.61Q68.32-28.91 66.99-27.55L66.99-27.55L66.99-27.55Q65.66-26.18 64.78-24.22L64.78-24.22L64.78-24.22Q63.91-22.26 63.63-19.74ZM102.13 0.84L102.13 0.84L102.13 0.84Q97.86 0.84 95.02-1.68L95.02-1.68L95.02-1.68Q92.19-4.20 92.19-8.82L92.19-8.82L92.19-8.82Q92.19-14.42 97.16-17.40L97.16-17.40L97.16-17.40Q102.13-20.37 113.05-21.56L113.05-21.56L113.05-21.56Q113.05-23.17 112.73-24.71L112.73-24.71L112.73-24.71Q112.42-26.25 111.65-27.44L111.65-27.44L111.65-27.44Q110.88-28.63 109.52-29.37L109.52-29.37L109.52-29.37Q108.15-30.10 106.05-30.10L106.05-30.10L106.05-30.10Q103.11-30.10 100.52-28.98L100.52-28.98L100.52-28.98Q97.93-27.86 95.90-26.46L95.90-26.46L93.66-30.45L93.66-30.45Q96.04-31.99 99.47-33.43L99.47-33.43L99.47-33.43Q102.90-34.86 107.03-34.86L107.03-34.86L107.03-34.86Q113.26-34.86 116.06-31.05L116.06-31.05L116.06-31.05Q118.86-27.23 118.86-20.86L118.86-20.86L118.86 0L114.10 0L113.61-4.06L113.40-4.06L113.40-4.06Q110.95-2.03 108.15-0.60L108.15-0.60L108.15-0.60Q105.35 0.84 102.13 0.84ZM103.81-3.78L103.81-3.78L103.81-3.78Q106.26-3.78 108.43-4.94L108.43-4.94L108.43-4.94Q110.60-6.09 113.05-8.33L113.05-8.33L113.05-17.78L113.05-17.78Q108.78-17.22 105.88-16.45L105.88-16.45L105.88-16.45Q102.97-15.68 101.19-14.63L101.19-14.63L101.19-14.63Q99.40-13.58 98.59-12.22L98.59-12.22L98.59-12.22Q97.79-10.85 97.79-9.24L97.79-9.24L97.79-9.24Q97.79-6.30 99.54-5.04L99.54-5.04L99.54-5.04Q101.29-3.78 103.81-3.78ZM135.66 0.84L135.66 0.84L135.66 0.84Q132.37 0.84 130.97-1.12L130.97-1.12L130.97-1.12Q129.57-3.08 129.57-6.86L129.57-6.86L129.57-49.84L135.31-49.84L135.31-6.44L135.31-6.44Q135.31-5.04 135.80-4.48L135.80-4.48L135.80-4.48Q136.29-3.92 136.92-3.92L136.92-3.92L136.92-3.92Q137.20-3.92 137.44-3.92L137.44-3.92L137.44-3.92Q137.69-3.92 138.18-4.06L138.18-4.06L138.95 0.28L138.95 0.28Q138.39 0.56 137.62 0.70L137.62 0.70L137.62 0.70Q136.85 0.84 135.66 0.84ZM153.51 0.84L153.51 0.84L153.51 0.84Q150.22 0.84 148.82-1.12L148.82-1.12L148.82-1.12Q147.42-3.08 147.42-6.86L147.42-6.86L147.42-49.84L153.16-49.84L153.16-6.44L153.16-6.44Q153.16-5.04 153.65-4.48L153.65-4.48L153.65-4.48Q154.14-3.92 154.77-3.92L154.77-3.92L154.77-3.92Q155.05-3.92 155.30-3.92L155.30-3.92L155.30-3.92Q155.54-3.92 156.03-4.06L156.03-4.06L156.80 0.28L156.80 0.28Q156.24 0.56 155.47 0.70L155.47 0.70L155.47 0.70Q154.70 0.84 153.51 0.84ZM165.83 14.63L165.83 14.63L165.83 14.63Q164.64 14.63 163.66 14.46L163.66 14.46L163.66 14.46Q162.68 14.28 161.84 13.93L161.84 13.93L162.96 9.38L162.96 9.38Q163.52 9.52 164.22 9.70L164.22 9.70L164.22 9.70Q164.92 9.87 165.55 9.87L165.55 9.87L165.55 9.87Q168.49 9.87 170.34 7.81L170.34 7.81L170.34 7.81Q172.20 5.74 173.25 2.59L173.25 2.59L174.02 0.07L160.37-34.02L166.32-34.02L173.25-15.19L173.25-15.19Q174.02-12.95 174.90-10.47L174.90-10.47L174.90-10.47Q175.77-7.98 176.54-5.60L176.54-5.60L176.82-5.60L176.82-5.60Q177.59-7.91 178.29-10.43L178.29-10.43L178.29-10.43Q178.99-12.95 179.69-15.19L179.69-15.19L185.78-34.02L191.38-34.02L178.57 2.80L178.57 2.80Q177.66 5.32 176.54 7.49L176.54 7.49L176.54 7.49Q175.42 9.66 173.88 11.24L173.88 11.24L173.88 11.24Q172.34 12.81 170.38 13.72L170.38 13.72L170.38 13.72Q168.42 14.63 165.83 14.63ZM218.05 0.84L218.05 0.84L218.05 0.84Q214.76 0.84 213.36-1.12L213.36-1.12L213.36-1.12Q211.96-3.08 211.96-6.86L211.96-6.86L211.96-49.84L217.70-49.84L217.70-6.44L217.70-6.44Q217.70-5.04 218.19-4.48L218.19-4.48L218.19-4.48Q218.68-3.92 219.31-3.92L219.31-3.92L219.31-3.92Q219.59-3.92 219.84-3.92L219.84-3.92L219.84-3.92Q220.08-3.92 220.57-4.06L220.57-4.06L221.34 0.28L221.34 0.28Q220.78 0.56 220.01 0.70L220.01 0.70L220.01 0.70Q219.24 0.84 218.05 0.84ZM235.55 0L229.81 0L229.81-34.02L235.55-34.02L235.55 0ZM232.75-41.02L232.75-41.02L232.75-41.02Q231.07-41.02 229.91-42.07L229.91-42.07L229.91-42.07Q228.76-43.12 228.76-44.73L228.76-44.73L228.76-44.73Q228.76-46.41 229.91-47.43L229.91-47.43L229.91-47.43Q231.07-48.44 232.75-48.44L232.75-48.44L232.75-48.44Q234.43-48.44 235.58-47.43L235.58-47.43L235.58-47.43Q236.74-46.41 236.74-44.73L236.74-44.73L236.74-44.73Q236.74-43.12 235.58-42.07L235.58-42.07L235.58-42.07Q234.43-41.02 232.75-41.02ZM252.70 0L247.03 0L247.03-49.84L252.70-49.84L252.70-16.10L252.91-16.10L267.40-34.02L273.77-34.02L262.36-20.37L275.31 0L269.01 0L259.07-16.38L252.70-8.96L252.70 0ZM294.21 0.84L294.21 0.84L294.21 0.84Q290.78 0.84 287.81-0.39L287.81-0.39L287.81-0.39Q284.83-1.61 282.63-3.89L282.63-3.89L282.63-3.89Q280.42-6.16 279.16-9.45L279.16-9.45L279.16-9.45Q277.90-12.74 277.90-16.94L277.90-16.94L277.90-16.94Q277.90-21.14 279.19-24.47L279.19-24.47L279.19-24.47Q280.49-27.79 282.63-30.10L282.63-30.10L282.63-30.10Q284.76-32.41 287.49-33.64L287.49-33.64L287.49-33.64Q290.22-34.86 293.16-34.86L293.16-34.86L293.16-34.86Q296.38-34.86 298.94-33.74L298.94-33.74L298.94-33.74Q301.49-32.62 303.20-30.52L303.20-30.52L303.20-30.52Q304.92-28.42 305.83-25.48L305.83-25.48L305.83-25.48Q306.74-22.54 306.74-18.90L306.74-18.90L306.74-18.90Q306.74-17.99 306.71-17.12L306.71-17.12L306.71-17.12Q306.67-16.24 306.53-15.61L306.53-15.61L283.57-15.61L283.57-15.61Q283.92-10.15 286.97-6.97L286.97-6.97L286.97-6.97Q290.01-3.78 294.91-3.78L294.91-3.78L294.91-3.78Q297.36-3.78 299.43-4.52L299.43-4.52L299.43-4.52Q301.49-5.25 303.38-6.44L303.38-6.44L305.41-2.66L305.41-2.66Q303.17-1.26 300.44-0.21L300.44-0.21L300.44-0.21Q297.71 0.84 294.21 0.84ZM283.50-19.74L283.50-19.74L301.70-19.74L301.70-19.74Q301.70-24.92 299.50-27.62L299.50-27.62L299.50-27.62Q297.29-30.31 293.30-30.31L293.30-30.31L293.30-30.31Q291.48-30.31 289.84-29.61L289.84-29.61L289.84-29.61Q288.19-28.91 286.86-27.55L286.86-27.55L286.86-27.55Q285.53-26.18 284.66-24.22L284.66-24.22L284.66-24.22Q283.78-22.26 283.50-19.74ZM340.62 15.68L340.62 15.68L340.62 15.68Q337.47 15.68 334.88 15.09L334.88 15.09L334.88 15.09Q332.29 14.49 330.44 13.30L330.44 13.30L330.44 13.30Q328.58 12.11 327.57 10.43L327.57 10.43L327.57 10.43Q326.55 8.75 326.55 6.51L326.55 6.51L326.55 6.51Q326.55 4.34 327.88 2.38L327.88 2.38L327.88 2.38Q329.21 0.42 331.52-1.19L331.52-1.19L331.52-1.47L331.52-1.47Q330.26-2.24 329.39-3.61L329.39-3.61L329.39-3.61Q328.51-4.97 328.51-7.00L328.51-7.00L328.51-7.00Q328.51-9.17 329.70-10.78L329.70-10.78L329.70-10.78Q330.89-12.39 332.22-13.30L332.22-13.30L332.22-13.58L332.22-13.58Q330.54-14.98 329.18-17.33L329.18-17.33L329.18-17.33Q327.81-19.67 327.81-22.75L327.81-22.75L327.81-22.75Q327.81-25.55 328.83-27.79L328.83-27.79L328.83-27.79Q329.84-30.03 331.59-31.61L331.59-31.61L331.59-31.61Q333.34-33.18 335.69-34.02L335.69-34.02L335.69-34.02Q338.03-34.86 340.62-34.86L340.62-34.86L340.62-34.86Q342.02-34.86 343.25-34.62L343.25-34.62L343.25-34.62Q344.47-34.37 345.45-34.02L345.45-34.02L357.28-34.02L357.28-29.61L350.28-29.61L350.28-29.61Q351.47-28.42 352.28-26.60L352.28-26.60L352.28-26.60Q353.08-24.78 353.08-22.61L353.08-22.61L353.08-22.61Q353.08-19.88 352.10-17.68L352.10-17.68L352.10-17.68Q351.12-15.47 349.44-13.97L349.44-13.97L349.44-13.97Q347.76-12.46 345.49-11.62L345.49-11.62L345.49-11.62Q343.21-10.78 340.62-10.78L340.62-10.78L340.62-10.78Q339.36-10.78 338.03-11.10L338.03-11.10L338.03-11.10Q336.70-11.41 335.51-11.97L335.51-11.97L335.51-11.97Q334.60-11.20 333.97-10.26L333.97-10.26L333.97-10.26Q333.34-9.31 333.34-7.91L333.34-7.91L333.34-7.91Q333.34-6.30 334.60-5.25L334.60-5.25L334.60-5.25Q335.86-4.20 339.36-4.20L339.36-4.20L345.94-4.20L345.94-4.20Q351.89-4.20 354.87-2.28L354.87-2.28L354.87-2.28Q357.84-0.35 357.84 3.92L357.84 3.92L357.84 3.92Q357.84 6.30 356.65 8.44L356.65 8.44L356.65 8.44Q355.46 10.57 353.22 12.18L353.22 12.18L353.22 12.18Q350.98 13.79 347.80 14.74L347.80 14.74L347.80 14.74Q344.61 15.68 340.62 15.68ZM340.62-14.63L340.62-14.63L340.62-14.63Q342.09-14.63 343.39-15.19L343.39-15.19L343.39-15.19Q344.68-15.75 345.70-16.80L345.70-16.80L345.70-16.80Q346.71-17.85 347.27-19.36L347.27-19.36L347.27-19.36Q347.83-20.86 347.83-22.75L347.83-22.75L347.83-22.75Q347.83-26.53 345.73-28.60L345.73-28.60L345.73-28.60Q343.63-30.66 340.62-30.66L340.62-30.66L340.62-30.66Q337.61-30.66 335.51-28.60L335.51-28.60L335.51-28.60Q333.41-26.53 333.41-22.75L333.41-22.75L333.41-22.75Q333.41-20.86 333.97-19.36L333.97-19.36L333.97-19.36Q334.53-17.85 335.55-16.80L335.55-16.80L335.55-16.80Q336.56-15.75 337.86-15.19L337.86-15.19L337.86-15.19Q339.15-14.63 340.62-14.63ZM341.46 11.69L341.46 11.69L341.46 11.69Q343.91 11.69 345.91 11.10L345.91 11.10L345.91 11.10Q347.90 10.50 349.30 9.56L349.30 9.56L349.30 9.56Q350.70 8.61 351.47 7.35L351.47 7.35L351.47 7.35Q352.24 6.09 352.24 4.76L352.24 4.76L352.24 4.76Q352.24 2.38 350.49 1.47L350.49 1.47L350.49 1.47Q348.74 0.56 345.38 0.56L345.38 0.56L339.50 0.56L339.50 0.56Q338.52 0.56 337.37 0.46L337.37 0.46L337.37 0.46Q336.21 0.35 335.09 0L335.09 0L335.09 0Q333.27 1.33 332.43 2.80L332.43 2.80L332.43 2.80Q331.59 4.27 331.59 5.74L331.59 5.74L331.59 5.74Q331.59 8.47 334.22 10.08L334.22 10.08L334.22 10.08Q336.84 11.69 341.46 11.69ZM371.14 0.84L371.14 0.84L371.14 0.84Q366.87 0.84 364.04-1.68L364.04-1.68L364.04-1.68Q361.20-4.20 361.20-8.82L361.20-8.82L361.20-8.82Q361.20-14.42 366.17-17.40L366.17-17.40L366.17-17.40Q371.14-20.37 382.06-21.56L382.06-21.56L382.06-21.56Q382.06-23.17 381.75-24.71L381.75-24.71L381.75-24.71Q381.43-26.25 380.66-27.44L380.66-27.44L380.66-27.44Q379.89-28.63 378.53-29.37L378.53-29.37L378.53-29.37Q377.16-30.10 375.06-30.10L375.06-30.10L375.06-30.10Q372.12-30.10 369.53-28.98L369.53-28.98L369.53-28.98Q366.94-27.86 364.91-26.46L364.91-26.46L362.67-30.45L362.67-30.45Q365.05-31.99 368.48-33.43L368.48-33.43L368.48-33.43Q371.91-34.86 376.04-34.86L376.04-34.86L376.04-34.86Q382.27-34.86 385.07-31.05L385.07-31.05L385.07-31.05Q387.87-27.23 387.87-20.86L387.87-20.86L387.87 0L383.11 0L382.62-4.06L382.41-4.06L382.41-4.06Q379.96-2.03 377.16-0.60L377.16-0.60L377.16-0.60Q374.36 0.84 371.14 0.84ZM372.82-3.78L372.82-3.78L372.82-3.78Q375.27-3.78 377.44-4.94L377.44-4.94L377.44-4.94Q379.61-6.09 382.06-8.33L382.06-8.33L382.06-17.78L382.06-17.78Q377.79-17.22 374.89-16.45L374.89-16.45L374.89-16.45Q371.98-15.68 370.20-14.63L370.20-14.63L370.20-14.63Q368.41-13.58 367.61-12.22L367.61-12.22L367.61-12.22Q366.80-10.85 366.80-9.24L366.80-9.24L366.80-9.24Q366.80-6.30 368.55-5.04L368.55-5.04L368.55-5.04Q370.30-3.78 372.82-3.78ZM404.32 0L398.58 0L398.58-34.02L403.34-34.02L403.83-29.12L404.04-29.12L404.04-29.12Q406.28-31.57 408.91-33.22L408.91-33.22L408.91-33.22Q411.53-34.86 414.61-34.86L414.61-34.86L414.61-34.86Q418.53-34.86 420.74-33.15L420.74-33.15L420.74-33.15Q422.94-31.43 423.99-28.35L423.99-28.35L423.99-28.35Q426.65-31.29 429.35-33.08L429.35-33.08L429.35-33.08Q432.04-34.86 435.19-34.86L435.19-34.86L435.19-34.86Q440.44-34.86 443.00-31.50L443.00-31.50L443.00-31.50Q445.55-28.14 445.55-21.56L445.55-21.56L445.55 0L439.81 0L439.81-20.79L439.81-20.79Q439.81-25.62 438.27-27.76L438.27-27.76L438.27-27.76Q436.73-29.89 433.51-29.89L433.51-29.89L433.51-29.89Q429.66-29.89 424.97-24.64L424.97-24.64L424.97 0L419.23 0L419.23-20.79L419.23-20.79Q419.23-25.62 417.69-27.76L417.69-27.76L417.69-27.76Q416.15-29.89 412.86-29.89L412.86-29.89L412.86-29.89Q409.01-29.89 404.32-24.64L404.32-24.64L404.32 0ZM470.40 0.84L470.40 0.84L470.40 0.84Q466.97 0.84 464.00-0.39L464.00-0.39L464.00-0.39Q461.02-1.61 458.82-3.89L458.82-3.89L458.82-3.89Q456.61-6.16 455.35-9.45L455.35-9.45L455.35-9.45Q454.09-12.74 454.09-16.94L454.09-16.94L454.09-16.94Q454.09-21.14 455.39-24.47L455.39-24.47L455.39-24.47Q456.68-27.79 458.82-30.10L458.82-30.10L458.82-30.10Q460.95-32.41 463.68-33.64L463.68-33.64L463.68-33.64Q466.41-34.86 469.35-34.86L469.35-34.86L469.35-34.86Q472.57-34.86 475.13-33.74L475.13-33.74L475.13-33.74Q477.68-32.62 479.40-30.52L479.40-30.52L479.40-30.52Q481.11-28.42 482.02-25.48L482.02-25.48L482.02-25.48Q482.93-22.54 482.93-18.90L482.93-18.90L482.93-18.90Q482.93-17.99 482.90-17.12L482.90-17.12L482.90-17.12Q482.86-16.24 482.72-15.61L482.72-15.61L459.76-15.61L459.76-15.61Q460.11-10.15 463.16-6.97L463.16-6.97L463.16-6.97Q466.20-3.78 471.10-3.78L471.10-3.78L471.10-3.78Q473.55-3.78 475.62-4.52L475.62-4.52L475.62-4.52Q477.68-5.25 479.57-6.44L479.57-6.44L481.60-2.66L481.60-2.66Q479.36-1.26 476.63-0.21L476.63-0.21L476.63-0.21Q473.90 0.84 470.40 0.84ZM459.69-19.74L459.69-19.74L477.89-19.74L477.89-19.74Q477.89-24.92 475.69-27.62L475.69-27.62L475.69-27.62Q473.48-30.31 469.49-30.31L469.49-30.31L469.49-30.31Q467.67-30.31 466.03-29.61L466.03-29.61L466.03-29.61Q464.38-28.91 463.05-27.55L463.05-27.55L463.05-27.55Q461.72-26.18 460.85-24.22L460.85-24.22L460.85-24.22Q459.97-22.26 459.69-19.74ZM513.17 0.84L513.17 0.84L513.17 0.84Q508.90 0.84 506.07-1.68L506.07-1.68L506.07-1.68Q503.23-4.20 503.23-8.82L503.23-8.82L503.23-8.82Q503.23-14.42 508.20-17.40L508.20-17.40L508.20-17.40Q513.17-20.37 524.09-21.56L524.09-21.56L524.09-21.56Q524.09-23.17 523.78-24.71L523.78-24.71L523.78-24.71Q523.46-26.25 522.69-27.44L522.69-27.44L522.69-27.44Q521.92-28.63 520.56-29.37L520.56-29.37L520.56-29.37Q519.19-30.10 517.09-30.10L517.09-30.10L517.09-30.10Q514.15-30.10 511.56-28.98L511.56-28.98L511.56-28.98Q508.97-27.86 506.94-26.46L506.94-26.46L504.70-30.45L504.70-30.45Q507.08-31.99 510.51-33.43L510.51-33.43L510.51-33.43Q513.94-34.86 518.07-34.86L518.07-34.86L518.07-34.86Q524.30-34.86 527.10-31.05L527.10-31.05L527.10-31.05Q529.90-27.23 529.90-20.86L529.90-20.86L529.90 0L525.14 0L524.65-4.06L524.44-4.06L524.44-4.06Q521.99-2.03 519.19-0.60L519.19-0.60L519.19-0.60Q516.39 0.84 513.17 0.84ZM514.85-3.78L514.85-3.78L514.85-3.78Q517.30-3.78 519.47-4.94L519.47-4.94L519.47-4.94Q521.64-6.09 524.09-8.33L524.09-8.33L524.09-17.78L524.09-17.78Q519.82-17.22 516.92-16.45L516.92-16.45L516.92-16.45Q514.01-15.68 512.23-14.63L512.23-14.63L512.23-14.63Q510.44-13.58 509.64-12.22L509.64-12.22L509.64-12.22Q508.83-10.85 508.83-9.24L508.83-9.24L508.83-9.24Q508.83-6.30 510.58-5.04L510.58-5.04L510.58-5.04Q512.33-3.78 514.85-3.78ZM546.35 0L540.61 0L540.61-34.02L545.37-34.02L545.86-29.12L546.07-29.12L546.07-29.12Q548.52-31.57 551.22-33.22L551.22-33.22L551.22-33.22Q553.91-34.86 557.48-34.86L557.48-34.86L557.48-34.86Q562.87-34.86 565.36-31.50L565.36-31.50L565.36-31.50Q567.84-28.14 567.84-21.56L567.84-21.56L567.84 0L562.10 0L562.10-20.79L562.10-20.79Q562.10-25.62 560.56-27.76L560.56-27.76L560.56-27.76Q559.02-29.89 555.66-29.89L555.66-29.89L555.66-29.89Q553.00-29.89 550.97-28.56L550.97-28.56L550.97-28.56Q548.94-27.23 546.35-24.64L546.35-24.64L546.35 0ZM590.52 0.84L590.52 0.84L590.52 0.84Q584.08 0.84 580.27-3.78L580.27-3.78L580.27-3.78Q576.45-8.40 576.45-16.94L576.45-16.94L576.45-16.94Q576.45-21.07 577.68-24.40L577.68-24.40L577.68-24.40Q578.90-27.72 580.93-30.03L580.93-30.03L580.93-30.03Q582.96-32.34 585.62-33.60L585.62-33.60L585.62-33.60Q588.28-34.86 591.22-34.86L591.22-34.86L591.22-34.86Q594.16-34.86 596.33-33.81L596.33-33.81L596.33-33.81Q598.50-32.76 600.74-30.94L600.74-30.94L600.46-36.75L600.46-49.84L606.27-49.84L606.27 0L601.51 0L601.02-3.99L600.81-3.99L600.81-3.99Q598.78-2.03 596.16-0.60L596.16-0.60L596.16-0.60Q593.53 0.84 590.52 0.84ZM591.78-3.99L591.78-3.99L591.78-3.99Q594.16-3.99 596.26-5.15L596.26-5.15L596.26-5.15Q598.36-6.30 600.46-8.68L600.46-8.68L600.46-26.46L600.46-26.46Q598.29-28.42 596.30-29.23L596.30-29.23L596.30-29.23Q594.30-30.03 592.20-30.03L592.20-30.03L592.20-30.03Q590.17-30.03 588.39-29.09L588.39-29.09L588.39-29.09Q586.60-28.14 585.27-26.43L585.27-26.43L585.27-26.43Q583.94-24.71 583.17-22.33L583.17-22.33L583.17-22.33Q582.40-19.95 582.40-17.01L582.40-17.01L582.40-17.01Q582.40-10.85 584.85-7.42L584.85-7.42L584.85-7.42Q587.30-3.99 591.78-3.99ZM643.86 0L637.14 0L627.69-34.02L633.57-34.02L638.61-14.35L638.61-14.35Q639.17-11.90 639.66-9.59L639.66-9.59L639.66-9.59Q640.15-7.28 640.64-4.90L640.64-4.90L640.92-4.90L640.92-4.90Q641.48-7.28 642.04-9.63L642.04-9.63L642.04-9.63Q642.60-11.97 643.23-14.35L643.23-14.35L648.48-34.02L654.08-34.02L659.40-14.35L659.40-14.35Q660.03-11.90 660.63-9.59L660.63-9.59L660.63-9.59Q661.22-7.28 661.78-4.90L661.78-4.90L662.06-4.90L662.06-4.90Q662.62-7.28 663.11-9.59L663.11-9.59L663.11-9.59Q663.60-11.90 664.16-14.35L664.16-14.35L669.13-34.02L674.59-34.02L665.49 0L658.49 0L653.59-18.27L653.59-18.27Q652.96-20.72 652.44-23.10L652.44-23.10L652.44-23.10Q651.91-25.48 651.28-28.07L651.28-28.07L651.00-28.07L651.00-28.07Q650.44-25.48 649.88-23.07L649.88-23.07L649.88-23.07Q649.32-20.65 648.62-18.20L648.62-18.20L643.86 0ZM695.52 0.84L695.52 0.84L695.52 0.84Q692.09 0.84 689.12-0.39L689.12-0.39L689.12-0.39Q686.14-1.61 683.94-3.89L683.94-3.89L683.94-3.89Q681.73-6.16 680.47-9.45L680.47-9.45L680.47-9.45Q679.21-12.74 679.21-16.94L679.21-16.94L679.21-16.94Q679.21-21.14 680.51-24.47L680.51-24.47L680.51-24.47Q681.80-27.79 683.94-30.10L683.94-30.10L683.94-30.10Q686.07-32.41 688.80-33.64L688.80-33.64L688.80-33.64Q691.53-34.86 694.47-34.86L694.47-34.86L694.47-34.86Q697.69-34.86 700.25-33.74L700.25-33.74L700.25-33.74Q702.80-32.62 704.52-30.52L704.52-30.52L704.52-30.52Q706.23-28.42 707.14-25.48L707.14-25.48L707.14-25.48Q708.05-22.54 708.05-18.90L708.05-18.90L708.05-18.90Q708.05-17.99 708.02-17.12L708.02-17.12L708.02-17.12Q707.98-16.24 707.84-15.61L707.84-15.61L684.88-15.61L684.88-15.61Q685.23-10.15 688.28-6.97L688.28-6.97L688.28-6.97Q691.32-3.78 696.22-3.78L696.22-3.78L696.22-3.78Q698.67-3.78 700.74-4.52L700.74-4.52L700.74-4.52Q702.80-5.25 704.69-6.44L704.69-6.44L706.72-2.66L706.72-2.66Q704.48-1.26 701.75-0.21L701.75-0.21L701.75-0.21Q699.02 0.84 695.52 0.84ZM684.81-19.74L684.81-19.74L703.01-19.74L703.01-19.74Q703.01-24.92 700.81-27.62L700.81-27.62L700.81-27.62Q698.60-30.31 694.61-30.31L694.61-30.31L694.61-30.31Q692.79-30.31 691.15-29.61L691.15-29.61L691.15-29.61Q689.50-28.91 688.17-27.55L688.17-27.55L688.17-27.55Q686.84-26.18 685.97-24.22L685.97-24.22L685.97-24.22Q685.09-22.26 684.81-19.74ZM731.50 0.84L731.50 0.84L731.50 0.84Q729.12 0.84 726.57-0.32L726.57-0.32L726.57-0.32Q724.01-1.47 721.77-3.50L721.77-3.50L721.56-3.50L721.07 0L716.45 0L716.45-49.84L722.19-49.84L722.19-36.26L722.05-30.10L722.05-30.10Q724.36-32.13 727.09-33.50L727.09-33.50L727.09-33.50Q729.82-34.86 732.69-34.86L732.69-34.86L732.69-34.86Q735.98-34.86 738.50-33.64L738.50-33.64L738.50-33.64Q741.02-32.41 742.74-30.14L742.74-30.14L742.74-30.14Q744.45-27.86 745.33-24.68L745.33-24.68L745.33-24.68Q746.20-21.49 746.20-17.57L746.20-17.57L746.20-17.57Q746.20-13.23 745.01-9.80L745.01-9.80L745.01-9.80Q743.82-6.37 741.79-3.99L741.79-3.99L741.79-3.99Q739.76-1.61 737.10-0.39L737.10-0.39L737.10-0.39Q734.44 0.84 731.50 0.84ZM730.52-3.99L730.52-3.99L730.52-3.99Q732.62-3.99 734.41-4.94L734.41-4.94L734.41-4.94Q736.19-5.88 737.49-7.60L737.49-7.60L737.49-7.60Q738.78-9.31 739.52-11.83L739.52-11.83L739.52-11.83Q740.25-14.35 740.25-17.50L740.25-17.50L740.25-17.50Q740.25-20.30 739.76-22.61L739.76-22.61L739.76-22.61Q739.27-24.92 738.19-26.57L738.19-26.57L738.19-26.57Q737.10-28.21 735.39-29.12L735.39-29.12L735.39-29.12Q733.67-30.03 731.29-30.03L731.29-30.03L731.29-30.03Q727.16-30.03 722.19-25.41L722.19-25.41L722.19-7.56L722.19-7.56Q724.43-5.60 726.64-4.80L726.64-4.80L726.64-4.80Q728.84-3.99 730.52-3.99ZM780.78 0.84L780.78 0.84L780.78 0.84Q774.34 0.84 770.53-3.78L770.53-3.78L770.53-3.78Q766.71-8.40 766.71-16.94L766.71-16.94L766.71-16.94Q766.71-21.07 767.94-24.40L767.94-24.40L767.94-24.40Q769.16-27.72 771.19-30.03L771.19-30.03L771.19-30.03Q773.22-32.34 775.88-33.60L775.88-33.60L775.88-33.60Q778.54-34.86 781.48-34.86L781.48-34.86L781.48-34.86Q784.42-34.86 786.59-33.81L786.59-33.81L786.59-33.81Q788.76-32.76 791.00-30.94L791.00-30.94L790.72-36.75L790.72-49.84L796.53-49.84L796.53 0L791.77 0L791.28-3.99L791.07-3.99L791.07-3.99Q789.04-2.03 786.42-0.60L786.42-0.60L786.42-0.60Q783.79 0.84 780.78 0.84ZM782.04-3.99L782.04-3.99L782.04-3.99Q784.42-3.99 786.52-5.15L786.52-5.15L786.52-5.15Q788.62-6.30 790.72-8.68L790.72-8.68L790.72-26.46L790.72-26.46Q788.55-28.42 786.56-29.23L786.56-29.23L786.56-29.23Q784.56-30.03 782.46-30.03L782.46-30.03L782.46-30.03Q780.43-30.03 778.65-29.09L778.65-29.09L778.65-29.09Q776.86-28.14 775.53-26.43L775.53-26.43L775.53-26.43Q774.20-24.71 773.43-22.33L773.43-22.33L773.43-22.33Q772.66-19.95 772.66-17.01L772.66-17.01L772.66-17.01Q772.66-10.85 775.11-7.42L775.11-7.42L775.11-7.42Q777.56-3.99 782.04-3.99ZM821.80 0.84L821.80 0.84L821.80 0.84Q818.37 0.84 815.40-0.39L815.40-0.39L815.40-0.39Q812.42-1.61 810.22-3.89L810.22-3.89L810.22-3.89Q808.01-6.16 806.75-9.45L806.75-9.45L806.75-9.45Q805.49-12.74 805.49-16.94L805.49-16.94L805.49-16.94Q805.49-21.14 806.79-24.47L806.79-24.47L806.79-24.47Q808.08-27.79 810.22-30.10L810.22-30.10L810.22-30.10Q812.35-32.41 815.08-33.64L815.08-33.64L815.08-33.64Q817.81-34.86 820.75-34.86L820.75-34.86L820.75-34.86Q823.97-34.86 826.53-33.74L826.53-33.74L826.53-33.74Q829.08-32.62 830.80-30.52L830.80-30.52L830.80-30.52Q832.51-28.42 833.42-25.48L833.42-25.48L833.42-25.48Q834.33-22.54 834.33-18.90L834.33-18.90L834.33-18.90Q834.33-17.99 834.30-17.12L834.30-17.12L834.30-17.12Q834.26-16.24 834.12-15.61L834.12-15.61L811.16-15.61L811.16-15.61Q811.51-10.15 814.56-6.97L814.56-6.97L814.56-6.97Q817.60-3.78 822.50-3.78L822.50-3.78L822.50-3.78Q824.95-3.78 827.02-4.52L827.02-4.52L827.02-4.52Q829.08-5.25 830.97-6.44L830.97-6.44L833.00-2.66L833.00-2.66Q830.76-1.26 828.03-0.21L828.03-0.21L828.03-0.21Q825.30 0.84 821.80 0.84ZM811.09-19.74L811.09-19.74L829.29-19.74L829.29-19.74Q829.29-24.92 827.09-27.62L827.09-27.62L827.09-27.62Q824.88-30.31 820.89-30.31L820.89-30.31L820.89-30.31Q819.07-30.31 817.43-29.61L817.43-29.61L817.43-29.61Q815.78-28.91 814.45-27.55L814.45-27.55L814.45-27.55Q813.12-26.18 812.25-24.22L812.25-24.22L812.25-24.22Q811.37-22.26 811.09-19.74ZM857.15 0L850.43 0L838.18-34.02L844.13-34.02L850.57-14.70L850.57-14.70Q851.34-12.18 852.15-9.66L852.15-9.66L852.15-9.66Q852.95-7.14 853.72-4.69L853.72-4.69L854.00-4.69L854.00-4.69Q854.77-7.14 855.54-9.66L855.54-9.66L855.54-9.66Q856.31-12.18 857.08-14.70L857.08-14.70L863.52-34.02L869.19-34.02L857.15 0ZM889.28 0.84L889.28 0.84L889.28 0.84Q885.85 0.84 882.88-0.39L882.88-0.39L882.88-0.39Q879.90-1.61 877.70-3.89L877.70-3.89L877.70-3.89Q875.49-6.16 874.23-9.45L874.23-9.45L874.23-9.45Q872.97-12.74 872.97-16.94L872.97-16.94L872.97-16.94Q872.97-21.14 874.27-24.47L874.27-24.47L874.27-24.47Q875.56-27.79 877.70-30.10L877.70-30.10L877.70-30.10Q879.83-32.41 882.56-33.64L882.56-33.64L882.56-33.64Q885.29-34.86 888.23-34.86L888.23-34.86L888.23-34.86Q891.45-34.86 894.01-33.74L894.01-33.74L894.01-33.74Q896.56-32.62 898.28-30.52L898.28-30.52L898.28-30.52Q899.99-28.42 900.90-25.48L900.90-25.48L900.90-25.48Q901.81-22.54 901.81-18.90L901.81-18.90L901.81-18.90Q901.81-17.99 901.78-17.12L901.78-17.12L901.78-17.12Q901.74-16.24 901.60-15.61L901.60-15.61L878.64-15.61L878.64-15.61Q878.99-10.15 882.04-6.97L882.04-6.97L882.04-6.97Q885.08-3.78 889.98-3.78L889.98-3.78L889.98-3.78Q892.43-3.78 894.50-4.52L894.50-4.52L894.50-4.52Q896.56-5.25 898.45-6.44L898.45-6.44L900.48-2.66L900.48-2.66Q898.24-1.26 895.51-0.21L895.51-0.21L895.51-0.21Q892.78 0.84 889.28 0.84ZM878.57-19.74L878.57-19.74L896.77-19.74L896.77-19.74Q896.77-24.92 894.57-27.62L894.57-27.62L894.57-27.62Q892.36-30.31 888.37-30.31L888.37-30.31L888.37-30.31Q886.55-30.31 884.91-29.61L884.91-29.61L884.91-29.61Q883.26-28.91 881.93-27.55L881.93-27.55L881.93-27.55Q880.60-26.18 879.73-24.22L879.73-24.22L879.73-24.22Q878.85-22.26 878.57-19.74ZM916.30 0.84L916.30 0.84L916.30 0.84Q913.01 0.84 911.61-1.12L911.61-1.12L911.61-1.12Q910.21-3.08 910.21-6.86L910.21-6.86L910.21-49.84L915.95-49.84L915.95-6.44L915.95-6.44Q915.95-5.04 916.44-4.48L916.44-4.48L916.44-4.48Q916.93-3.92 917.56-3.92L917.56-3.92L917.56-3.92Q917.84-3.92 918.09-3.92L918.09-3.92L918.09-3.92Q918.33-3.92 918.82-4.06L918.82-4.06L919.59 0.28L919.59 0.28Q919.03 0.56 918.26 0.70L918.26 0.70L918.26 0.70Q917.49 0.84 916.30 0.84ZM941.29 0.84L941.29 0.84L941.29 0.84Q938.14 0.84 935.31-0.35L935.31-0.35L935.31-0.35Q932.47-1.54 930.30-3.82L930.30-3.82L930.30-3.82Q928.13-6.09 926.84-9.42L926.84-9.42L926.84-9.42Q925.54-12.74 925.54-16.94L925.54-16.94L925.54-16.94Q925.54-21.21 926.84-24.54L926.84-24.54L926.84-24.54Q928.13-27.86 930.30-30.17L930.30-30.17L930.30-30.17Q932.47-32.48 935.31-33.67L935.31-33.67L935.31-33.67Q938.14-34.86 941.29-34.86L941.29-34.86L941.29-34.86Q944.44-34.86 947.28-33.67L947.28-33.67L947.28-33.67Q950.11-32.48 952.28-30.17L952.28-30.17L952.28-30.17Q954.45-27.86 955.75-24.54L955.75-24.54L955.75-24.54Q957.04-21.21 957.04-16.94L957.04-16.94L957.04-16.94Q957.04-12.74 955.75-9.42L955.75-9.42L955.75-9.42Q954.45-6.09 952.28-3.82L952.28-3.82L952.28-3.82Q950.11-1.54 947.28-0.35L947.28-0.35L947.28-0.35Q944.44 0.84 941.29 0.84ZM941.29-3.92L941.29-3.92L941.29-3.92Q943.46-3.92 945.28-4.87L945.28-4.87L945.28-4.87Q947.10-5.81 948.40-7.53L948.40-7.53L948.40-7.53Q949.69-9.24 950.39-11.62L950.39-11.62L950.39-11.62Q951.09-14.00 951.09-16.94L951.09-16.94L951.09-16.94Q951.09-19.88 950.39-22.30L950.39-22.30L950.39-22.30Q949.69-24.71 948.40-26.46L948.40-26.46L948.40-26.46Q947.10-28.21 945.28-29.16L945.28-29.16L945.28-29.16Q943.46-30.10 941.29-30.10L941.29-30.10L941.29-30.10Q939.12-30.10 937.30-29.16L937.30-29.16L937.30-29.16Q935.48-28.21 934.19-26.46L934.19-26.46L934.19-26.46Q932.89-24.71 932.19-22.30L932.19-22.30L932.19-22.30Q931.49-19.88 931.49-16.94L931.49-16.94L931.49-16.94Q931.49-14.00 932.19-11.62L932.19-11.62L932.19-11.62Q932.89-9.24 934.19-7.53L934.19-7.53L934.19-7.53Q935.48-5.81 937.30-4.87L937.30-4.87L937.30-4.87Q939.12-3.92 941.29-3.92ZM971.74 14.35L966.00 14.35L966.00-34.02L970.76-34.02L971.25-30.10L971.46-30.10L971.46-30.10Q973.77-32.06 976.54-33.46L976.54-33.46L976.54-33.46Q979.30-34.86 982.31-34.86L982.31-34.86L982.31-34.86Q985.60-34.86 988.12-33.64L988.12-33.64L988.12-33.64Q990.64-32.41 992.32-30.14L992.32-30.14L992.32-30.14Q994.00-27.86 994.88-24.68L994.88-24.68L994.88-24.68Q995.75-21.49 995.75-17.50L995.75-17.50L995.75-17.50Q995.75-13.16 994.56-9.77L994.56-9.77L994.56-9.77Q993.37-6.37 991.34-3.99L991.34-3.99L991.34-3.99Q989.31-1.61 986.65-0.39L986.65-0.39L986.65-0.39Q983.99 0.84 981.05 0.84L981.05 0.84L981.05 0.84Q978.67 0.84 976.33-0.21L976.33-0.21L976.33-0.21Q973.98-1.26 971.60-3.08L971.60-3.08L971.74 2.87L971.74 14.35ZM980.07-3.99L980.07-3.99L980.07-3.99Q982.17-3.99 983.96-4.94L983.96-4.94L983.96-4.94Q985.74-5.88 987.04-7.60L987.04-7.60L987.04-7.60Q988.33-9.31 989.07-11.83L989.07-11.83L989.07-11.83Q989.80-14.35 989.80-17.50L989.80-17.50L989.80-17.50Q989.80-20.30 989.31-22.61L989.31-22.61L989.31-22.61Q988.82-24.92 987.74-26.57L987.74-26.57L987.74-26.57Q986.65-28.21 984.94-29.12L984.94-29.12L984.94-29.12Q983.22-30.03 980.84-30.03L980.84-30.03L980.84-30.03Q978.67-30.03 976.47-28.84L976.47-28.84L976.47-28.84Q974.26-27.65 971.74-25.41L971.74-25.41L971.74-7.56L971.74-7.56Q974.05-5.60 976.22-4.80L976.22-4.80L976.22-4.80Q978.39-3.99 980.07-3.99ZM1010.59 0L1004.85 0L1004.85-34.02L1009.61-34.02L1010.10-29.12L1010.31-29.12L1010.31-29.12Q1012.55-31.57 1015.18-33.22L1015.18-33.22L1015.18-33.22Q1017.80-34.86 1020.88-34.86L1020.88-34.86L1020.88-34.86Q1024.80-34.86 1027.01-33.15L1027.01-33.15L1027.01-33.15Q1029.21-31.43 1030.26-28.35L1030.26-28.35L1030.26-28.35Q1032.92-31.29 1035.62-33.08L1035.62-33.08L1035.62-33.08Q1038.31-34.86 1041.46-34.86L1041.46-34.86L1041.46-34.86Q1046.71-34.86 1049.27-31.50L1049.27-31.50L1049.27-31.50Q1051.82-28.14 1051.82-21.56L1051.82-21.56L1051.82 0L1046.08 0L1046.08-20.79L1046.08-20.79Q1046.08-25.62 1044.54-27.76L1044.54-27.76L1044.54-27.76Q1043.00-29.89 1039.78-29.89L1039.78-29.89L1039.78-29.89Q1035.93-29.89 1031.24-24.64L1031.24-24.64L1031.24 0L1025.50 0L1025.50-20.79L1025.50-20.79Q1025.50-25.62 1023.96-27.76L1023.96-27.76L1023.96-27.76Q1022.42-29.89 1019.13-29.89L1019.13-29.89L1019.13-29.89Q1015.28-29.89 1010.59-24.64L1010.59-24.64L1010.59 0ZM1076.67 0.84L1076.67 0.84L1076.67 0.84Q1073.24 0.84 1070.27-0.39L1070.27-0.39L1070.27-0.39Q1067.29-1.61 1065.09-3.89L1065.09-3.89L1065.09-3.89Q1062.88-6.16 1061.62-9.45L1061.62-9.45L1061.62-9.45Q1060.36-12.74 1060.36-16.94L1060.36-16.94L1060.36-16.94Q1060.36-21.14 1061.66-24.47L1061.66-24.47L1061.66-24.47Q1062.95-27.79 1065.09-30.10L1065.09-30.10L1065.09-30.10Q1067.22-32.41 1069.95-33.64L1069.95-33.64L1069.95-33.64Q1072.68-34.86 1075.62-34.86L1075.62-34.86L1075.62-34.86Q1078.84-34.86 1081.40-33.74L1081.40-33.74L1081.40-33.74Q1083.95-32.62 1085.67-30.52L1085.67-30.52L1085.67-30.52Q1087.38-28.42 1088.29-25.48L1088.29-25.48L1088.29-25.48Q1089.20-22.54 1089.20-18.90L1089.20-18.90L1089.20-18.90Q1089.20-17.99 1089.17-17.12L1089.17-17.12L1089.17-17.12Q1089.13-16.24 1088.99-15.61L1088.99-15.61L1066.03-15.61L1066.03-15.61Q1066.38-10.15 1069.43-6.97L1069.43-6.97L1069.43-6.97Q1072.47-3.78 1077.37-3.78L1077.37-3.78L1077.37-3.78Q1079.82-3.78 1081.89-4.52L1081.89-4.52L1081.89-4.52Q1083.95-5.25 1085.84-6.44L1085.84-6.44L1087.87-2.66L1087.87-2.66Q1085.63-1.26 1082.90-0.21L1082.90-0.21L1082.90-0.21Q1080.17 0.84 1076.67 0.84ZM1065.96-19.74L1065.96-19.74L1084.16-19.74L1084.16-19.74Q1084.16-24.92 1081.96-27.62L1081.96-27.62L1081.96-27.62Q1079.75-30.31 1075.76-30.31L1075.76-30.31L1075.76-30.31Q1073.94-30.31 1072.30-29.61L1072.30-29.61L1072.30-29.61Q1070.65-28.91 1069.32-27.55L1069.32-27.55L1069.32-27.55Q1067.99-26.18 1067.12-24.22L1067.12-24.22L1067.12-24.22Q1066.24-22.26 1065.96-19.74ZM1103.34 0L1097.60 0L1097.60-34.02L1102.36-34.02L1102.85-29.12L1103.06-29.12L1103.06-29.12Q1105.51-31.57 1108.21-33.22L1108.21-33.22L1108.21-33.22Q1110.90-34.86 1114.47-34.86L1114.47-34.86L1114.47-34.86Q1119.86-34.86 1122.35-31.50L1122.35-31.50L1122.35-31.50Q1124.83-28.14 1124.83-21.56L1124.83-21.56L1124.83 0L1119.09 0L1119.09-20.79L1119.09-20.79Q1119.09-25.62 1117.55-27.76L1117.55-27.76L1117.55-27.76Q1116.01-29.89 1112.65-29.89L1112.65-29.89L1112.65-29.89Q1109.99-29.89 1107.96-28.56L1107.96-28.56L1107.96-28.56Q1105.93-27.23 1103.34-24.64L1103.34-24.64L1103.34 0ZM1146.60 0.84L1146.60 0.84L1146.60 0.84Q1143.87 0.84 1142.02 0L1142.02 0L1142.02 0Q1140.16-0.84 1139.01-2.31L1139.01-2.31L1139.01-2.31Q1137.85-3.78 1137.36-5.88L1137.36-5.88L1137.36-5.88Q1136.87-7.98 1136.87-10.50L1136.87-10.50L1136.87-29.33L1131.83-29.33L1131.83-33.67L1137.15-34.02L1137.85-43.54L1142.68-43.54L1142.68-34.02L1151.85-34.02L1151.85-29.33L1142.68-29.33L1142.68-10.43L1142.68-10.43Q1142.68-7.28 1143.84-5.57L1143.84-5.57L1143.84-5.57Q1144.99-3.85 1147.93-3.85L1147.93-3.85L1147.93-3.85Q1148.84-3.85 1149.89-4.13L1149.89-4.13L1149.89-4.13Q1150.94-4.41 1151.78-4.76L1151.78-4.76L1152.90-0.42L1152.90-0.42Q1151.50 0.07 1149.86 0.46L1149.86 0.46L1149.86 0.46Q1148.21 0.84 1146.60 0.84Z" fill="#868686"></path></g></g><style>text {
  font-size: 64px;
  font-family: Arial Black;
  dominant-baseline: central;
  text-anchor: middle;
}</style></svg>