<svg width="1590.75751953125px" height="140.01999511718748px" xmlns="http://www.w3.org/2000/svg" viewBox="-545.378759765625 4.990002441406261 1590.75751953125 140.01999511718748" style="background: rgba(0, 0, 0, 0);" preserveAspectRatio="xMidYMid"><defs><filter id="editing-extrusion" x="-100%" y="-100%" width="300%" height="300%"><feFlood result="color1" flood-color="rgba(85.71428571428577%,0%,100%,0.178)"></feFlood><feConvolveMatrix order="4,4" divisor="1" kernelMatrix="1 0 0 0 0 1 0 0 0 0 1 0 0 0 0 1" in="SourceAlpha" result="extrude"></feConvolveMatrix><feComposite in="color1" in2="extrude" result="comp-extrude" operator="in"></feComposite><feOffset dx="2" dy="2" in="comp-extrude" result="offset-extrude"></feOffset><feMerge><feMergeNode in="offset-extrude"></feMergeNode><feMergeNode in="SourceGraphic"></feMergeNode></feMerge></filter></defs><g filter="url(#editing-extrusion)"><g transform="translate(-330.1949586868286, 107.76000213623047)"><path d="M12.11 0L6.30 0L6.30-45.92L12.11-45.92L12.11 0ZM43.89 0L38.15 0L38.15-34.02L42.91-34.02L43.40-27.86L43.61-27.86L43.61-27.86Q45.36-31.08 47.85-32.97L47.85-32.97L47.85-32.97Q50.33-34.86 53.27-34.86L53.27-34.86L53.27-34.86Q55.30-34.86 56.91-34.16L56.91-34.16L55.79-29.12L55.79-29.12Q54.95-29.40 54.25-29.54L54.25-29.54L54.25-29.54Q53.55-29.68 52.50-29.68L52.50-29.68L52.50-29.68Q50.33-29.68 47.99-27.93L47.99-27.93L47.99-27.93Q45.64-26.18 43.89-21.84L43.89-21.84L43.89 0ZM75.53 0.84L75.53 0.84L75.53 0.84Q72.10 0.84 69.13-0.39L69.13-0.39L69.13-0.39Q66.15-1.61 63.95-3.89L63.95-3.89L63.95-3.89Q61.74-6.16 60.48-9.45L60.48-9.45L60.48-9.45Q59.22-12.74 59.22-16.94L59.22-16.94L59.22-16.94Q59.22-21.14 60.52-24.47L60.52-24.47L60.52-24.47Q61.81-27.79 63.95-30.10L63.95-30.10L63.95-30.10Q66.08-32.41 68.81-33.64L68.81-33.64L68.81-33.64Q71.54-34.86 74.48-34.86L74.48-34.86L74.48-34.86Q77.70-34.86 80.25-33.74L80.25-33.74L80.25-33.74Q82.81-32.62 84.53-30.52L84.53-30.52L84.53-30.52Q86.24-28.42 87.15-25.48L87.15-25.48L87.15-25.48Q88.06-22.54 88.06-18.90L88.06-18.90L88.06-18.90Q88.06-17.99 88.03-17.12L88.03-17.12L88.03-17.12Q87.99-16.24 87.85-15.61L87.85-15.61L64.89-15.61L64.89-15.61Q65.24-10.15 68.28-6.97L68.28-6.97L68.28-6.97Q71.33-3.78 76.23-3.78L76.23-3.78L76.23-3.78Q78.68-3.78 80.75-4.52L80.75-4.52L80.75-4.52Q82.81-5.25 84.70-6.44L84.70-6.44L86.73-2.66L86.73-2.66Q84.49-1.26 81.76-0.21L81.76-0.21L81.76-0.21Q79.03 0.84 75.53 0.84ZM64.82-19.74L64.82-19.74L83.02-19.74L83.02-19.74Q83.02-24.92 80.81-27.62L80.81-27.62L80.81-27.62Q78.61-30.31 74.62-30.31L74.62-30.31L74.62-30.31Q72.80-30.31 71.16-29.61L71.16-29.61L71.16-29.61Q69.51-28.91 68.18-27.55L68.18-27.55L68.18-27.55Q66.85-26.18 65.97-24.22L65.97-24.22L65.97-24.22Q65.10-22.26 64.82-19.74ZM103.32 0.84L103.32 0.84L103.32 0.84Q99.05 0.84 96.21-1.68L96.21-1.68L96.21-1.68Q93.38-4.20 93.38-8.82L93.38-8.82L93.38-8.82Q93.38-14.42 98.35-17.40L98.35-17.40L98.35-17.40Q103.32-20.37 114.24-21.56L114.24-21.56L114.24-21.56Q114.24-23.17 113.92-24.71L113.92-24.71L113.92-24.71Q113.61-26.25 112.84-27.44L112.84-27.44L112.84-27.44Q112.07-28.63 110.70-29.37L110.70-29.37L110.70-29.37Q109.34-30.10 107.24-30.10L107.24-30.10L107.24-30.10Q104.30-30.10 101.71-28.98L101.71-28.98L101.71-28.98Q99.12-27.86 97.09-26.46L97.09-26.46L94.85-30.45L94.85-30.45Q97.23-31.99 100.66-33.43L100.66-33.43L100.66-33.43Q104.09-34.86 108.22-34.86L108.22-34.86L108.22-34.86Q114.45-34.86 117.25-31.05L117.25-31.05L117.25-31.05Q120.05-27.23 120.05-20.86L120.05-20.86L120.05 0L115.29 0L114.80-4.06L114.59-4.06L114.59-4.06Q112.14-2.03 109.34-0.60L109.34-0.60L109.34-0.60Q106.54 0.84 103.32 0.84ZM105-3.78L105-3.78L105-3.78Q107.45-3.78 109.62-4.94L109.62-4.94L109.62-4.94Q111.79-6.09 114.24-8.33L114.24-8.33L114.24-17.78L114.24-17.78Q109.97-17.22 107.06-16.45L107.06-16.45L107.06-16.45Q104.16-15.68 102.38-14.63L102.38-14.63L102.38-14.63Q100.59-13.58 99.78-12.22L99.78-12.22L99.78-12.22Q98.98-10.85 98.98-9.24L98.98-9.24L98.98-9.24Q98.98-6.30 100.73-5.04L100.73-5.04L100.73-5.04Q102.48-3.78 105-3.78ZM136.85 0.84L136.85 0.84L136.85 0.84Q133.56 0.84 132.16-1.12L132.16-1.12L132.16-1.12Q130.76-3.08 130.76-6.86L130.76-6.86L130.76-49.84L136.50-49.84L136.50-6.44L136.50-6.44Q136.50-5.04 136.99-4.48L136.99-4.48L136.99-4.48Q137.48-3.92 138.11-3.92L138.11-3.92L138.11-3.92Q138.39-3.92 138.63-3.92L138.63-3.92L138.63-3.92Q138.88-3.92 139.37-4.06L139.37-4.06L140.14 0.28L140.14 0.28Q139.58 0.56 138.81 0.70L138.81 0.70L138.81 0.70Q138.04 0.84 136.85 0.84ZM154.70 0.84L154.70 0.84L154.70 0.84Q151.41 0.84 150.01-1.12L150.01-1.12L150.01-1.12Q148.61-3.08 148.61-6.86L148.61-6.86L148.61-49.84L154.35-49.84L154.35-6.44L154.35-6.44Q154.35-5.04 154.84-4.48L154.84-4.48L154.84-4.48Q155.33-3.92 155.96-3.92L155.96-3.92L155.96-3.92Q156.24-3.92 156.49-3.92L156.49-3.92L156.49-3.92Q156.73-3.92 157.22-4.06L157.22-4.06L157.99 0.28L157.99 0.28Q157.43 0.56 156.66 0.70L156.66 0.70L156.66 0.70Q155.89 0.84 154.70 0.84ZM167.02 14.63L167.02 14.63L167.02 14.63Q165.83 14.63 164.85 14.46L164.85 14.46L164.85 14.46Q163.87 14.28 163.03 13.93L163.03 13.93L164.15 9.38L164.15 9.38Q164.71 9.52 165.41 9.70L165.41 9.70L165.41 9.70Q166.11 9.87 166.74 9.87L166.74 9.87L166.74 9.87Q169.68 9.87 171.53 7.81L171.53 7.81L171.53 7.81Q173.39 5.74 174.44 2.59L174.44 2.59L175.21 0.07L161.56-34.02L167.51-34.02L174.44-15.19L174.44-15.19Q175.21-12.95 176.09-10.47L176.09-10.47L176.09-10.47Q176.96-7.98 177.73-5.60L177.73-5.60L178.01-5.60L178.01-5.60Q178.78-7.91 179.48-10.43L179.48-10.43L179.48-10.43Q180.18-12.95 180.88-15.19L180.88-15.19L186.97-34.02L192.57-34.02L179.76 2.80L179.76 2.80Q178.85 5.32 177.73 7.49L177.73 7.49L177.73 7.49Q176.61 9.66 175.07 11.24L175.07 11.24L175.07 11.24Q173.53 12.81 171.57 13.72L171.57 13.72L171.57 13.72Q169.61 14.63 167.02 14.63ZM219.24 0.84L219.24 0.84L219.24 0.84Q215.95 0.84 214.55-1.12L214.55-1.12L214.55-1.12Q213.15-3.08 213.15-6.86L213.15-6.86L213.15-49.84L218.89-49.84L218.89-6.44L218.89-6.44Q218.89-5.04 219.38-4.48L219.38-4.48L219.38-4.48Q219.87-3.92 220.50-3.92L220.50-3.92L220.50-3.92Q220.78-3.92 221.03-3.92L221.03-3.92L221.03-3.92Q221.27-3.92 221.76-4.06L221.76-4.06L222.53 0.28L222.53 0.28Q221.97 0.56 221.20 0.70L221.20 0.70L221.20 0.70Q220.43 0.84 219.24 0.84ZM236.74 0L231 0L231-34.02L236.74-34.02L236.74 0ZM233.94-41.02L233.94-41.02L233.94-41.02Q232.26-41.02 231.10-42.07L231.10-42.07L231.10-42.07Q229.95-43.12 229.95-44.73L229.95-44.73L229.95-44.73Q229.95-46.41 231.10-47.43L231.10-47.43L231.10-47.43Q232.26-48.44 233.94-48.44L233.94-48.44L233.94-48.44Q235.62-48.44 236.77-47.43L236.77-47.43L236.77-47.43Q237.93-46.41 237.93-44.73L237.93-44.73L237.93-44.73Q237.93-43.12 236.77-42.07L236.77-42.07L236.77-42.07Q235.62-41.02 233.94-41.02ZM253.89 0L248.22 0L248.22-49.84L253.89-49.84L253.89-16.10L254.10-16.10L268.59-34.02L274.96-34.02L263.55-20.37L276.50 0L270.20 0L260.26-16.38L253.89-8.96L253.89 0ZM295.40 0.84L295.40 0.84L295.40 0.84Q291.97 0.84 289.00-0.39L289.00-0.39L289.00-0.39Q286.02-1.61 283.81-3.89L283.81-3.89L283.81-3.89Q281.61-6.16 280.35-9.45L280.35-9.45L280.35-9.45Q279.09-12.74 279.09-16.94L279.09-16.94L279.09-16.94Q279.09-21.14 280.38-24.47L280.38-24.47L280.38-24.47Q281.68-27.79 283.81-30.10L283.81-30.10L283.81-30.10Q285.95-32.41 288.68-33.64L288.68-33.64L288.68-33.64Q291.41-34.86 294.35-34.86L294.35-34.86L294.35-34.86Q297.57-34.86 300.13-33.74L300.13-33.74L300.13-33.74Q302.68-32.62 304.39-30.52L304.39-30.52L304.39-30.52Q306.11-28.42 307.02-25.48L307.02-25.48L307.02-25.48Q307.93-22.54 307.93-18.90L307.93-18.90L307.93-18.90Q307.93-17.99 307.89-17.12L307.89-17.12L307.89-17.12Q307.86-16.24 307.72-15.61L307.72-15.61L284.76-15.61L284.76-15.61Q285.11-10.15 288.16-6.97L288.16-6.97L288.16-6.97Q291.20-3.78 296.10-3.78L296.10-3.78L296.10-3.78Q298.55-3.78 300.62-4.52L300.62-4.52L300.62-4.52Q302.68-5.25 304.57-6.44L304.57-6.44L306.60-2.66L306.60-2.66Q304.36-1.26 301.63-0.21L301.63-0.21L301.63-0.21Q298.90 0.84 295.40 0.84ZM284.69-19.74L284.69-19.74L302.89-19.74L302.89-19.74Q302.89-24.92 300.69-27.62L300.69-27.62L300.69-27.62Q298.48-30.31 294.49-30.31L294.49-30.31L294.49-30.31Q292.67-30.31 291.02-29.61L291.02-29.61L291.02-29.61Q289.38-28.91 288.05-27.55L288.05-27.55L288.05-27.55Q286.72-26.18 285.85-24.22L285.85-24.22L285.85-24.22Q284.97-22.26 284.69-19.74ZM341.81 15.68L341.81 15.68L341.81 15.68Q338.66 15.68 336.07 15.09L336.07 15.09L336.07 15.09Q333.48 14.49 331.63 13.30L331.63 13.30L331.63 13.30Q329.77 12.11 328.76 10.43L328.76 10.43L328.76 10.43Q327.74 8.75 327.74 6.51L327.74 6.51L327.74 6.51Q327.74 4.34 329.07 2.38L329.07 2.38L329.07 2.38Q330.40 0.42 332.71-1.19L332.71-1.19L332.71-1.47L332.71-1.47Q331.45-2.24 330.58-3.61L330.58-3.61L330.58-3.61Q329.70-4.97 329.70-7.00L329.70-7.00L329.70-7.00Q329.70-9.17 330.89-10.78L330.89-10.78L330.89-10.78Q332.08-12.39 333.41-13.30L333.41-13.30L333.41-13.58L333.41-13.58Q331.73-14.98 330.37-17.33L330.37-17.33L330.37-17.33Q329.00-19.67 329.00-22.75L329.00-22.75L329.00-22.75Q329.00-25.55 330.02-27.79L330.02-27.79L330.02-27.79Q331.03-30.03 332.78-31.61L332.78-31.61L332.78-31.61Q334.53-33.18 336.88-34.02L336.88-34.02L336.88-34.02Q339.22-34.86 341.81-34.86L341.81-34.86L341.81-34.86Q343.21-34.86 344.44-34.62L344.44-34.62L344.44-34.62Q345.66-34.37 346.64-34.02L346.64-34.02L358.47-34.02L358.47-29.61L351.47-29.61L351.47-29.61Q352.66-28.42 353.47-26.60L353.47-26.60L353.47-26.60Q354.27-24.78 354.27-22.61L354.27-22.61L354.27-22.61Q354.27-19.88 353.29-17.68L353.29-17.68L353.29-17.68Q352.31-15.47 350.63-13.97L350.63-13.97L350.63-13.97Q348.95-12.46 346.68-11.62L346.68-11.62L346.68-11.62Q344.40-10.78 341.81-10.78L341.81-10.78L341.81-10.78Q340.55-10.78 339.22-11.10L339.22-11.10L339.22-11.10Q337.89-11.41 336.70-11.97L336.70-11.97L336.70-11.97Q335.79-11.20 335.16-10.26L335.16-10.26L335.16-10.26Q334.53-9.31 334.53-7.91L334.53-7.91L334.53-7.91Q334.53-6.30 335.79-5.25L335.79-5.25L335.79-5.25Q337.05-4.20 340.55-4.20L340.55-4.20L347.13-4.20L347.13-4.20Q353.08-4.20 356.06-2.28L356.06-2.28L356.06-2.28Q359.03-0.35 359.03 3.92L359.03 3.92L359.03 3.92Q359.03 6.30 357.84 8.44L357.84 8.44L357.84 8.44Q356.65 10.57 354.41 12.18L354.41 12.18L354.41 12.18Q352.17 13.79 348.99 14.74L348.99 14.74L348.99 14.74Q345.80 15.68 341.81 15.68ZM341.81-14.63L341.81-14.63L341.81-14.63Q343.28-14.63 344.58-15.19L344.58-15.19L344.58-15.19Q345.87-15.75 346.89-16.80L346.89-16.80L346.89-16.80Q347.90-17.85 348.46-19.36L348.46-19.36L348.46-19.36Q349.02-20.86 349.02-22.75L349.02-22.75L349.02-22.75Q349.02-26.53 346.92-28.60L346.92-28.60L346.92-28.60Q344.82-30.66 341.81-30.66L341.81-30.66L341.81-30.66Q338.80-30.66 336.70-28.60L336.70-28.60L336.70-28.60Q334.60-26.53 334.60-22.75L334.60-22.75L334.60-22.75Q334.60-20.86 335.16-19.36L335.16-19.36L335.16-19.36Q335.72-17.85 336.74-16.80L336.74-16.80L336.74-16.80Q337.75-15.75 339.05-15.19L339.05-15.19L339.05-15.19Q340.34-14.63 341.81-14.63ZM342.65 11.69L342.65 11.69L342.65 11.69Q345.10 11.69 347.10 11.10L347.10 11.10L347.10 11.10Q349.09 10.50 350.49 9.56L350.49 9.56L350.49 9.56Q351.89 8.61 352.66 7.35L352.66 7.35L352.66 7.35Q353.43 6.09 353.43 4.76L353.43 4.76L353.43 4.76Q353.43 2.38 351.68 1.47L351.68 1.47L351.68 1.47Q349.93 0.56 346.57 0.56L346.57 0.56L340.69 0.56L340.69 0.56Q339.71 0.56 338.56 0.46L338.56 0.46L338.56 0.46Q337.40 0.35 336.28 0L336.28 0L336.28 0Q334.46 1.33 333.62 2.80L333.62 2.80L333.62 2.80Q332.78 4.27 332.78 5.74L332.78 5.74L332.78 5.74Q332.78 8.47 335.41 10.08L335.41 10.08L335.41 10.08Q338.03 11.69 342.65 11.69ZM372.33 0.84L372.33 0.84L372.33 0.84Q368.06 0.84 365.23-1.68L365.23-1.68L365.23-1.68Q362.39-4.20 362.39-8.82L362.39-8.82L362.39-8.82Q362.39-14.42 367.36-17.40L367.36-17.40L367.36-17.40Q372.33-20.37 383.25-21.56L383.25-21.56L383.25-21.56Q383.25-23.17 382.94-24.71L382.94-24.71L382.94-24.71Q382.62-26.25 381.85-27.44L381.85-27.44L381.85-27.44Q381.08-28.63 379.72-29.37L379.72-29.37L379.72-29.37Q378.35-30.10 376.25-30.10L376.25-30.10L376.25-30.10Q373.31-30.10 370.72-28.98L370.72-28.98L370.72-28.98Q368.13-27.86 366.10-26.46L366.10-26.46L363.86-30.45L363.86-30.45Q366.24-31.99 369.67-33.43L369.67-33.43L369.67-33.43Q373.10-34.86 377.23-34.86L377.23-34.86L377.23-34.86Q383.46-34.86 386.26-31.05L386.26-31.05L386.26-31.05Q389.06-27.23 389.06-20.86L389.06-20.86L389.06 0L384.30 0L383.81-4.06L383.60-4.06L383.60-4.06Q381.15-2.03 378.35-0.60L378.35-0.60L378.35-0.60Q375.55 0.84 372.33 0.84ZM374.01-3.78L374.01-3.78L374.01-3.78Q376.46-3.78 378.63-4.94L378.63-4.94L378.63-4.94Q380.80-6.09 383.25-8.33L383.25-8.33L383.25-17.78L383.25-17.78Q378.98-17.22 376.07-16.45L376.07-16.45L376.07-16.45Q373.17-15.68 371.38-14.63L371.38-14.63L371.38-14.63Q369.60-13.58 368.80-12.22L368.80-12.22L368.80-12.22Q367.99-10.85 367.99-9.24L367.99-9.24L367.99-9.24Q367.99-6.30 369.74-5.04L369.74-5.04L369.74-5.04Q371.49-3.78 374.01-3.78ZM405.51 0L399.77 0L399.77-34.02L404.53-34.02L405.02-29.12L405.23-29.12L405.23-29.12Q407.47-31.57 410.09-33.22L410.09-33.22L410.09-33.22Q412.72-34.86 415.80-34.86L415.80-34.86L415.80-34.86Q419.72-34.86 421.92-33.15L421.92-33.15L421.92-33.15Q424.13-31.43 425.18-28.35L425.18-28.35L425.18-28.35Q427.84-31.29 430.53-33.08L430.53-33.08L430.53-33.08Q433.23-34.86 436.38-34.86L436.38-34.86L436.38-34.86Q441.63-34.86 444.19-31.50L444.19-31.50L444.19-31.50Q446.74-28.14 446.74-21.56L446.74-21.56L446.74 0L441 0L441-20.79L441-20.79Q441-25.62 439.46-27.76L439.46-27.76L439.46-27.76Q437.92-29.89 434.70-29.89L434.70-29.89L434.70-29.89Q430.85-29.89 426.16-24.64L426.16-24.64L426.16 0L420.42 0L420.42-20.79L420.42-20.79Q420.42-25.62 418.88-27.76L418.88-27.76L418.88-27.76Q417.34-29.89 414.05-29.89L414.05-29.89L414.05-29.89Q410.20-29.89 405.51-24.64L405.51-24.64L405.51 0ZM471.59 0.84L471.59 0.84L471.59 0.84Q468.16 0.84 465.19-0.39L465.19-0.39L465.19-0.39Q462.21-1.61 460.00-3.89L460.00-3.89L460.00-3.89Q457.80-6.16 456.54-9.45L456.54-9.45L456.54-9.45Q455.28-12.74 455.28-16.94L455.28-16.94L455.28-16.94Q455.28-21.14 456.57-24.47L456.57-24.47L456.57-24.47Q457.87-27.79 460.00-30.10L460.00-30.10L460.00-30.10Q462.14-32.41 464.87-33.64L464.87-33.64L464.87-33.64Q467.60-34.86 470.54-34.86L470.54-34.86L470.54-34.86Q473.76-34.86 476.31-33.74L476.31-33.74L476.31-33.74Q478.87-32.62 480.58-30.52L480.58-30.52L480.58-30.52Q482.30-28.42 483.21-25.48L483.21-25.48L483.21-25.48Q484.12-22.54 484.12-18.90L484.12-18.90L484.12-18.90Q484.12-17.99 484.09-17.12L484.09-17.12L484.09-17.12Q484.05-16.24 483.91-15.61L483.91-15.61L460.95-15.61L460.95-15.61Q461.30-10.15 464.35-6.97L464.35-6.97L464.35-6.97Q467.39-3.78 472.29-3.78L472.29-3.78L472.29-3.78Q474.74-3.78 476.81-4.52L476.81-4.52L476.81-4.52Q478.87-5.25 480.76-6.44L480.76-6.44L482.79-2.66L482.79-2.66Q480.55-1.26 477.82-0.21L477.82-0.21L477.82-0.21Q475.09 0.84 471.59 0.84ZM460.88-19.74L460.88-19.74L479.08-19.74L479.08-19.74Q479.08-24.92 476.88-27.62L476.88-27.62L476.88-27.62Q474.67-30.31 470.68-30.31L470.68-30.31L470.68-30.31Q468.86-30.31 467.22-29.61L467.22-29.61L467.22-29.61Q465.57-28.91 464.24-27.55L464.24-27.55L464.24-27.55Q462.91-26.18 462.04-24.22L462.04-24.22L462.04-24.22Q461.16-22.26 460.88-19.74ZM514.36 0.84L514.36 0.84L514.36 0.84Q510.09 0.84 507.26-1.68L507.26-1.68L507.26-1.68Q504.42-4.20 504.42-8.82L504.42-8.82L504.42-8.82Q504.42-14.42 509.39-17.40L509.39-17.40L509.39-17.40Q514.36-20.37 525.28-21.56L525.28-21.56L525.28-21.56Q525.28-23.17 524.97-24.71L524.97-24.71L524.97-24.71Q524.65-26.25 523.88-27.44L523.88-27.44L523.88-27.44Q523.11-28.63 521.75-29.37L521.75-29.37L521.75-29.37Q520.38-30.10 518.28-30.10L518.28-30.10L518.28-30.10Q515.34-30.10 512.75-28.98L512.75-28.98L512.75-28.98Q510.16-27.86 508.13-26.46L508.13-26.46L505.89-30.45L505.89-30.45Q508.27-31.99 511.70-33.43L511.70-33.43L511.70-33.43Q515.13-34.86 519.26-34.86L519.26-34.86L519.26-34.86Q525.49-34.86 528.29-31.05L528.29-31.05L528.29-31.05Q531.09-27.23 531.09-20.86L531.09-20.86L531.09 0L526.33 0L525.84-4.06L525.63-4.06L525.63-4.06Q523.18-2.03 520.38-0.60L520.38-0.60L520.38-0.60Q517.58 0.84 514.36 0.84ZM516.04-3.78L516.04-3.78L516.04-3.78Q518.49-3.78 520.66-4.94L520.66-4.94L520.66-4.94Q522.83-6.09 525.28-8.33L525.28-8.33L525.28-17.78L525.28-17.78Q521.01-17.22 518.11-16.45L518.11-16.45L518.11-16.45Q515.20-15.68 513.42-14.63L513.42-14.63L513.42-14.63Q511.63-13.58 510.83-12.22L510.83-12.22L510.83-12.22Q510.02-10.85 510.02-9.24L510.02-9.24L510.02-9.24Q510.02-6.30 511.77-5.04L511.77-5.04L511.77-5.04Q513.52-3.78 516.04-3.78ZM547.54 0L541.80 0L541.80-34.02L546.56-34.02L547.05-29.12L547.26-29.12L547.26-29.12Q549.71-31.57 552.41-33.22L552.41-33.22L552.41-33.22Q555.10-34.86 558.67-34.86L558.67-34.86L558.67-34.86Q564.06-34.86 566.55-31.50L566.55-31.50L566.55-31.50Q569.03-28.14 569.03-21.56L569.03-21.56L569.03 0L563.29 0L563.29-20.79L563.29-20.79Q563.29-25.62 561.75-27.76L561.75-27.76L561.75-27.76Q560.21-29.89 556.85-29.89L556.85-29.89L556.85-29.89Q554.19-29.89 552.16-28.56L552.16-28.56L552.16-28.56Q550.13-27.23 547.54-24.64L547.54-24.64L547.54 0ZM591.71 0.84L591.71 0.84L591.71 0.84Q585.27 0.84 581.46-3.78L581.46-3.78L581.46-3.78Q577.64-8.40 577.64-16.94L577.64-16.94L577.64-16.94Q577.64-21.07 578.87-24.40L578.87-24.40L578.87-24.40Q580.09-27.72 582.12-30.03L582.12-30.03L582.12-30.03Q584.15-32.34 586.81-33.60L586.81-33.60L586.81-33.60Q589.47-34.86 592.41-34.86L592.41-34.86L592.41-34.86Q595.35-34.86 597.52-33.81L597.52-33.81L597.52-33.81Q599.69-32.76 601.93-30.94L601.93-30.94L601.65-36.75L601.65-49.84L607.46-49.84L607.46 0L602.70 0L602.21-3.99L602-3.99L602-3.99Q599.97-2.03 597.35-0.60L597.35-0.60L597.35-0.60Q594.72 0.84 591.71 0.84ZM592.97-3.99L592.97-3.99L592.97-3.99Q595.35-3.99 597.45-5.15L597.45-5.15L597.45-5.15Q599.55-6.30 601.65-8.68L601.65-8.68L601.65-26.46L601.65-26.46Q599.48-28.42 597.49-29.23L597.49-29.23L597.49-29.23Q595.49-30.03 593.39-30.03L593.39-30.03L593.39-30.03Q591.36-30.03 589.58-29.09L589.58-29.09L589.58-29.09Q587.79-28.14 586.46-26.43L586.46-26.43L586.46-26.43Q585.13-24.71 584.36-22.33L584.36-22.33L584.36-22.33Q583.59-19.95 583.59-17.01L583.59-17.01L583.59-17.01Q583.59-10.85 586.04-7.42L586.04-7.42L586.04-7.42Q588.49-3.99 592.97-3.99ZM645.05 0L638.33 0L628.88-34.02L634.76-34.02L639.80-14.35L639.80-14.35Q640.36-11.90 640.85-9.59L640.85-9.59L640.85-9.59Q641.34-7.28 641.83-4.90L641.83-4.90L642.11-4.90L642.11-4.90Q642.67-7.28 643.23-9.63L643.23-9.63L643.23-9.63Q643.79-11.97 644.42-14.35L644.42-14.35L649.67-34.02L655.27-34.02L660.59-14.35L660.59-14.35Q661.22-11.90 661.82-9.59L661.82-9.59L661.82-9.59Q662.41-7.28 662.97-4.90L662.97-4.90L663.25-4.90L663.25-4.90Q663.81-7.28 664.30-9.59L664.30-9.59L664.30-9.59Q664.79-11.90 665.35-14.35L665.35-14.35L670.32-34.02L675.78-34.02L666.68 0L659.68 0L654.78-18.27L654.78-18.27Q654.15-20.72 653.63-23.10L653.63-23.10L653.63-23.10Q653.10-25.48 652.47-28.07L652.47-28.07L652.19-28.07L652.19-28.07Q651.63-25.48 651.07-23.07L651.07-23.07L651.07-23.07Q650.51-20.65 649.81-18.20L649.81-18.20L645.05 0ZM696.71 0.84L696.71 0.84L696.71 0.84Q693.28 0.84 690.31-0.39L690.31-0.39L690.31-0.39Q687.33-1.61 685.13-3.89L685.13-3.89L685.13-3.89Q682.92-6.16 681.66-9.45L681.66-9.45L681.66-9.45Q680.40-12.74 680.40-16.94L680.40-16.94L680.40-16.94Q680.40-21.14 681.70-24.47L681.70-24.47L681.70-24.47Q682.99-27.79 685.13-30.10L685.13-30.10L685.13-30.10Q687.26-32.41 689.99-33.64L689.99-33.64L689.99-33.64Q692.72-34.86 695.66-34.86L695.66-34.86L695.66-34.86Q698.88-34.86 701.44-33.74L701.44-33.74L701.44-33.74Q703.99-32.62 705.71-30.52L705.71-30.52L705.71-30.52Q707.42-28.42 708.33-25.48L708.33-25.48L708.33-25.48Q709.24-22.54 709.24-18.90L709.24-18.90L709.24-18.90Q709.24-17.99 709.21-17.12L709.21-17.12L709.21-17.12Q709.17-16.24 709.03-15.61L709.03-15.61L686.07-15.61L686.07-15.61Q686.42-10.15 689.47-6.97L689.47-6.97L689.47-6.97Q692.51-3.78 697.41-3.78L697.41-3.78L697.41-3.78Q699.86-3.78 701.93-4.52L701.93-4.52L701.93-4.52Q703.99-5.25 705.88-6.44L705.88-6.44L707.91-2.66L707.91-2.66Q705.67-1.26 702.94-0.21L702.94-0.21L702.94-0.21Q700.21 0.84 696.71 0.84ZM686.00-19.74L686.00-19.74L704.20-19.74L704.20-19.74Q704.20-24.92 702.00-27.62L702.00-27.62L702.00-27.62Q699.79-30.31 695.80-30.31L695.80-30.31L695.80-30.31Q693.98-30.31 692.34-29.61L692.34-29.61L692.34-29.61Q690.69-28.91 689.36-27.55L689.36-27.55L689.36-27.55Q688.03-26.18 687.16-24.22L687.16-24.22L687.16-24.22Q686.28-22.26 686.00-19.74ZM732.69 0.84L732.69 0.84L732.69 0.84Q730.31 0.84 727.76-0.32L727.76-0.32L727.76-0.32Q725.20-1.47 722.96-3.50L722.96-3.50L722.75-3.50L722.26 0L717.64 0L717.64-49.84L723.38-49.84L723.38-36.26L723.24-30.10L723.24-30.10Q725.55-32.13 728.28-33.50L728.28-33.50L728.28-33.50Q731.01-34.86 733.88-34.86L733.88-34.86L733.88-34.86Q737.17-34.86 739.69-33.64L739.69-33.64L739.69-33.64Q742.21-32.41 743.93-30.14L743.93-30.14L743.93-30.14Q745.64-27.86 746.52-24.68L746.52-24.68L746.52-24.68Q747.39-21.49 747.39-17.57L747.39-17.57L747.39-17.57Q747.39-13.23 746.20-9.80L746.20-9.80L746.20-9.80Q745.01-6.37 742.98-3.99L742.98-3.99L742.98-3.99Q740.95-1.61 738.29-0.39L738.29-0.39L738.29-0.39Q735.63 0.84 732.69 0.84ZM731.71-3.99L731.71-3.99L731.71-3.99Q733.81-3.99 735.60-4.94L735.60-4.94L735.60-4.94Q737.38-5.88 738.68-7.60L738.68-7.60L738.68-7.60Q739.97-9.31 740.71-11.83L740.71-11.83L740.71-11.83Q741.44-14.35 741.44-17.50L741.44-17.50L741.44-17.50Q741.44-20.30 740.95-22.61L740.95-22.61L740.95-22.61Q740.46-24.92 739.38-26.57L739.38-26.57L739.38-26.57Q738.29-28.21 736.58-29.12L736.58-29.12L736.58-29.12Q734.86-30.03 732.48-30.03L732.48-30.03L732.48-30.03Q728.35-30.03 723.38-25.41L723.38-25.41L723.38-7.56L723.38-7.56Q725.62-5.60 727.83-4.80L727.83-4.80L727.83-4.80Q730.03-3.99 731.71-3.99ZM781.97 0.84L781.97 0.84L781.97 0.84Q775.53 0.84 771.72-3.78L771.72-3.78L771.72-3.78Q767.90-8.40 767.90-16.94L767.90-16.94L767.90-16.94Q767.90-21.07 769.13-24.40L769.13-24.40L769.13-24.40Q770.35-27.72 772.38-30.03L772.38-30.03L772.38-30.03Q774.41-32.34 777.07-33.60L777.07-33.60L777.07-33.60Q779.73-34.86 782.67-34.86L782.67-34.86L782.67-34.86Q785.61-34.86 787.78-33.81L787.78-33.81L787.78-33.81Q789.95-32.76 792.19-30.94L792.19-30.94L791.91-36.75L791.91-49.84L797.72-49.84L797.72 0L792.96 0L792.47-3.99L792.26-3.99L792.26-3.99Q790.23-2.03 787.61-0.60L787.61-0.60L787.61-0.60Q784.98 0.84 781.97 0.84ZM783.23-3.99L783.23-3.99L783.23-3.99Q785.61-3.99 787.71-5.15L787.71-5.15L787.71-5.15Q789.81-6.30 791.91-8.68L791.91-8.68L791.91-26.46L791.91-26.46Q789.74-28.42 787.75-29.23L787.75-29.23L787.75-29.23Q785.75-30.03 783.65-30.03L783.65-30.03L783.65-30.03Q781.62-30.03 779.84-29.09L779.84-29.09L779.84-29.09Q778.05-28.14 776.72-26.43L776.72-26.43L776.72-26.43Q775.39-24.71 774.62-22.33L774.62-22.33L774.62-22.33Q773.85-19.95 773.85-17.01L773.85-17.01L773.85-17.01Q773.85-10.85 776.30-7.42L776.30-7.42L776.30-7.42Q778.75-3.99 783.23-3.99ZM822.99 0.84L822.99 0.84L822.99 0.84Q819.56 0.84 816.59-0.39L816.59-0.39L816.59-0.39Q813.61-1.61 811.41-3.89L811.41-3.89L811.41-3.89Q809.20-6.16 807.94-9.45L807.94-9.45L807.94-9.45Q806.68-12.74 806.68-16.94L806.68-16.94L806.68-16.94Q806.68-21.14 807.98-24.47L807.98-24.47L807.98-24.47Q809.27-27.79 811.41-30.10L811.41-30.10L811.41-30.10Q813.54-32.41 816.27-33.64L816.27-33.64L816.27-33.64Q819.00-34.86 821.94-34.86L821.94-34.86L821.94-34.86Q825.16-34.86 827.72-33.74L827.72-33.74L827.72-33.74Q830.27-32.62 831.99-30.52L831.99-30.52L831.99-30.52Q833.70-28.42 834.61-25.48L834.61-25.48L834.61-25.48Q835.52-22.54 835.52-18.90L835.52-18.90L835.52-18.90Q835.52-17.99 835.49-17.12L835.49-17.12L835.49-17.12Q835.45-16.24 835.31-15.61L835.31-15.61L812.35-15.61L812.35-15.61Q812.70-10.15 815.75-6.97L815.75-6.97L815.75-6.97Q818.79-3.78 823.69-3.78L823.69-3.78L823.69-3.78Q826.14-3.78 828.21-4.52L828.21-4.52L828.21-4.52Q830.27-5.25 832.16-6.44L832.16-6.44L834.19-2.66L834.19-2.66Q831.95-1.26 829.22-0.21L829.22-0.21L829.22-0.21Q826.49 0.84 822.99 0.84ZM812.28-19.74L812.28-19.74L830.48-19.74L830.48-19.74Q830.48-24.92 828.28-27.62L828.28-27.62L828.28-27.62Q826.07-30.31 822.08-30.31L822.08-30.31L822.08-30.31Q820.26-30.31 818.62-29.61L818.62-29.61L818.62-29.61Q816.97-28.91 815.64-27.55L815.64-27.55L815.64-27.55Q814.31-26.18 813.44-24.22L813.44-24.22L813.44-24.22Q812.56-22.26 812.28-19.74ZM858.34 0L851.62 0L839.37-34.02L845.32-34.02L851.76-14.70L851.76-14.70Q852.53-12.18 853.34-9.66L853.34-9.66L853.34-9.66Q854.14-7.14 854.91-4.69L854.91-4.69L855.19-4.69L855.19-4.69Q855.96-7.14 856.73-9.66L856.73-9.66L856.73-9.66Q857.50-12.18 858.27-14.70L858.27-14.70L864.71-34.02L870.38-34.02L858.34 0ZM890.47 0.84L890.47 0.84L890.47 0.84Q887.04 0.84 884.07-0.39L884.07-0.39L884.07-0.39Q881.09-1.61 878.89-3.89L878.89-3.89L878.89-3.89Q876.68-6.16 875.42-9.45L875.42-9.45L875.42-9.45Q874.16-12.74 874.16-16.94L874.16-16.94L874.16-16.94Q874.16-21.14 875.46-24.47L875.46-24.47L875.46-24.47Q876.75-27.79 878.89-30.10L878.89-30.10L878.89-30.10Q881.02-32.41 883.75-33.64L883.75-33.64L883.75-33.64Q886.48-34.86 889.42-34.86L889.42-34.86L889.42-34.86Q892.64-34.86 895.20-33.74L895.20-33.74L895.20-33.74Q897.75-32.62 899.47-30.52L899.47-30.52L899.47-30.52Q901.18-28.42 902.09-25.48L902.09-25.48L902.09-25.48Q903.00-22.54 903.00-18.90L903.00-18.90L903.00-18.90Q903.00-17.99 902.97-17.12L902.97-17.12L902.97-17.12Q902.93-16.24 902.79-15.61L902.79-15.61L879.83-15.61L879.83-15.61Q880.18-10.15 883.23-6.97L883.23-6.97L883.23-6.97Q886.27-3.78 891.17-3.78L891.17-3.78L891.17-3.78Q893.62-3.78 895.69-4.52L895.69-4.52L895.69-4.52Q897.75-5.25 899.64-6.44L899.64-6.44L901.67-2.66L901.67-2.66Q899.43-1.26 896.70-0.21L896.70-0.21L896.70-0.21Q893.97 0.84 890.47 0.84ZM879.76-19.74L879.76-19.74L897.96-19.74L897.96-19.74Q897.96-24.92 895.76-27.62L895.76-27.62L895.76-27.62Q893.55-30.31 889.56-30.31L889.56-30.31L889.56-30.31Q887.74-30.31 886.10-29.61L886.10-29.61L886.10-29.61Q884.45-28.91 883.12-27.55L883.12-27.55L883.12-27.55Q881.79-26.18 880.92-24.22L880.92-24.22L880.92-24.22Q880.04-22.26 879.76-19.74ZM917.49 0.84L917.49 0.84L917.49 0.84Q914.20 0.84 912.80-1.12L912.80-1.12L912.80-1.12Q911.40-3.08 911.40-6.86L911.40-6.86L911.40-49.84L917.14-49.84L917.14-6.44L917.14-6.44Q917.14-5.04 917.63-4.48L917.63-4.48L917.63-4.48Q918.12-3.92 918.75-3.92L918.75-3.92L918.75-3.92Q919.03-3.92 919.28-3.92L919.28-3.92L919.28-3.92Q919.52-3.92 920.01-4.06L920.01-4.06L920.78 0.28L920.78 0.28Q920.22 0.56 919.45 0.70L919.45 0.70L919.45 0.70Q918.68 0.84 917.49 0.84ZM942.48 0.84L942.48 0.84L942.48 0.84Q939.33 0.84 936.50-0.35L936.50-0.35L936.50-0.35Q933.66-1.54 931.49-3.82L931.49-3.82L931.49-3.82Q929.32-6.09 928.03-9.42L928.03-9.42L928.03-9.42Q926.73-12.74 926.73-16.94L926.73-16.94L926.73-16.94Q926.73-21.21 928.03-24.54L928.03-24.54L928.03-24.54Q929.32-27.86 931.49-30.17L931.49-30.17L931.49-30.17Q933.66-32.48 936.50-33.67L936.50-33.67L936.50-33.67Q939.33-34.86 942.48-34.86L942.48-34.86L942.48-34.86Q945.63-34.86 948.47-33.67L948.47-33.67L948.47-33.67Q951.30-32.48 953.47-30.17L953.47-30.17L953.47-30.17Q955.64-27.86 956.94-24.54L956.94-24.54L956.94-24.54Q958.23-21.21 958.23-16.94L958.23-16.94L958.23-16.94Q958.23-12.74 956.94-9.42L956.94-9.42L956.94-9.42Q955.64-6.09 953.47-3.82L953.47-3.82L953.47-3.82Q951.30-1.54 948.47-0.35L948.47-0.35L948.47-0.35Q945.63 0.84 942.48 0.84ZM942.48-3.92L942.48-3.92L942.48-3.92Q944.65-3.92 946.47-4.87L946.47-4.87L946.47-4.87Q948.29-5.81 949.59-7.53L949.59-7.53L949.59-7.53Q950.88-9.24 951.58-11.62L951.58-11.62L951.58-11.62Q952.28-14.00 952.28-16.94L952.28-16.94L952.28-16.94Q952.28-19.88 951.58-22.30L951.58-22.30L951.58-22.30Q950.88-24.71 949.59-26.46L949.59-26.46L949.59-26.46Q948.29-28.21 946.47-29.16L946.47-29.16L946.47-29.16Q944.65-30.10 942.48-30.10L942.48-30.10L942.48-30.10Q940.31-30.10 938.49-29.16L938.49-29.16L938.49-29.16Q936.67-28.21 935.38-26.46L935.38-26.46L935.38-26.46Q934.08-24.71 933.38-22.30L933.38-22.30L933.38-22.30Q932.68-19.88 932.68-16.94L932.68-16.94L932.68-16.94Q932.68-14.00 933.38-11.62L933.38-11.62L933.38-11.62Q934.08-9.24 935.38-7.53L935.38-7.53L935.38-7.53Q936.67-5.81 938.49-4.87L938.49-4.87L938.49-4.87Q940.31-3.92 942.48-3.92ZM972.93 14.35L967.19 14.35L967.19-34.02L971.95-34.02L972.44-30.10L972.65-30.10L972.65-30.10Q974.96-32.06 977.73-33.46L977.73-33.46L977.73-33.46Q980.49-34.86 983.50-34.86L983.50-34.86L983.50-34.86Q986.79-34.86 989.31-33.64L989.31-33.64L989.31-33.64Q991.83-32.41 993.51-30.14L993.51-30.14L993.51-30.14Q995.19-27.86 996.07-24.68L996.07-24.68L996.07-24.68Q996.94-21.49 996.94-17.50L996.94-17.50L996.94-17.50Q996.94-13.16 995.75-9.77L995.75-9.77L995.75-9.77Q994.56-6.37 992.53-3.99L992.53-3.99L992.53-3.99Q990.50-1.61 987.84-0.39L987.84-0.39L987.84-0.39Q985.18 0.84 982.24 0.84L982.24 0.84L982.24 0.84Q979.86 0.84 977.52-0.21L977.52-0.21L977.52-0.21Q975.17-1.26 972.79-3.08L972.79-3.08L972.93 2.87L972.93 14.35ZM981.26-3.99L981.26-3.99L981.26-3.99Q983.36-3.99 985.15-4.94L985.15-4.94L985.15-4.94Q986.93-5.88 988.23-7.60L988.23-7.60L988.23-7.60Q989.52-9.31 990.26-11.83L990.26-11.83L990.26-11.83Q990.99-14.35 990.99-17.50L990.99-17.50L990.99-17.50Q990.99-20.30 990.50-22.61L990.50-22.61L990.50-22.61Q990.01-24.92 988.93-26.57L988.93-26.57L988.93-26.57Q987.84-28.21 986.13-29.12L986.13-29.12L986.13-29.12Q984.41-30.03 982.03-30.03L982.03-30.03L982.03-30.03Q979.86-30.03 977.66-28.84L977.66-28.84L977.66-28.84Q975.45-27.65 972.93-25.41L972.93-25.41L972.93-7.56L972.93-7.56Q975.24-5.60 977.41-4.80L977.41-4.80L977.41-4.80Q979.58-3.99 981.26-3.99ZM1011.78 0L1006.04 0L1006.04-34.02L1010.80-34.02L1011.29-29.12L1011.50-29.12L1011.50-29.12Q1013.74-31.57 1016.37-33.22L1016.37-33.22L1016.37-33.22Q1018.99-34.86 1022.07-34.86L1022.07-34.86L1022.07-34.86Q1025.99-34.86 1028.20-33.15L1028.20-33.15L1028.20-33.15Q1030.40-31.43 1031.45-28.35L1031.45-28.35L1031.45-28.35Q1034.11-31.29 1036.81-33.08L1036.81-33.08L1036.81-33.08Q1039.50-34.86 1042.65-34.86L1042.65-34.86L1042.65-34.86Q1047.90-34.86 1050.46-31.50L1050.46-31.50L1050.46-31.50Q1053.01-28.14 1053.01-21.56L1053.01-21.56L1053.01 0L1047.27 0L1047.27-20.79L1047.27-20.79Q1047.27-25.62 1045.73-27.76L1045.73-27.76L1045.73-27.76Q1044.19-29.89 1040.97-29.89L1040.97-29.89L1040.97-29.89Q1037.12-29.89 1032.43-24.64L1032.43-24.64L1032.43 0L1026.69 0L1026.69-20.79L1026.69-20.79Q1026.69-25.62 1025.15-27.76L1025.15-27.76L1025.15-27.76Q1023.61-29.89 1020.32-29.89L1020.32-29.89L1020.32-29.89Q1016.47-29.89 1011.78-24.64L1011.78-24.64L1011.78 0ZM1077.86 0.84L1077.86 0.84L1077.86 0.84Q1074.43 0.84 1071.46-0.39L1071.46-0.39L1071.46-0.39Q1068.48-1.61 1066.28-3.89L1066.28-3.89L1066.28-3.89Q1064.07-6.16 1062.81-9.45L1062.81-9.45L1062.81-9.45Q1061.55-12.74 1061.55-16.94L1061.55-16.94L1061.55-16.94Q1061.55-21.14 1062.85-24.47L1062.85-24.47L1062.85-24.47Q1064.14-27.79 1066.28-30.10L1066.28-30.10L1066.28-30.10Q1068.41-32.41 1071.14-33.64L1071.14-33.64L1071.14-33.64Q1073.87-34.86 1076.81-34.86L1076.81-34.86L1076.81-34.86Q1080.03-34.86 1082.59-33.74L1082.59-33.74L1082.59-33.74Q1085.14-32.62 1086.86-30.52L1086.86-30.52L1086.86-30.52Q1088.57-28.42 1089.48-25.48L1089.48-25.48L1089.48-25.48Q1090.39-22.54 1090.39-18.90L1090.39-18.90L1090.39-18.90Q1090.39-17.99 1090.36-17.12L1090.36-17.12L1090.36-17.12Q1090.32-16.24 1090.18-15.61L1090.18-15.61L1067.22-15.61L1067.22-15.61Q1067.57-10.15 1070.62-6.97L1070.62-6.97L1070.62-6.97Q1073.66-3.78 1078.56-3.78L1078.56-3.78L1078.56-3.78Q1081.01-3.78 1083.08-4.52L1083.08-4.52L1083.08-4.52Q1085.14-5.25 1087.03-6.44L1087.03-6.44L1089.06-2.66L1089.06-2.66Q1086.82-1.26 1084.09-0.21L1084.09-0.21L1084.09-0.21Q1081.36 0.84 1077.86 0.84ZM1067.15-19.74L1067.15-19.74L1085.35-19.74L1085.35-19.74Q1085.35-24.92 1083.15-27.62L1083.15-27.62L1083.15-27.62Q1080.94-30.31 1076.95-30.31L1076.95-30.31L1076.95-30.31Q1075.13-30.31 1073.49-29.61L1073.49-29.61L1073.49-29.61Q1071.84-28.91 1070.51-27.55L1070.51-27.55L1070.51-27.55Q1069.18-26.18 1068.31-24.22L1068.31-24.22L1068.31-24.22Q1067.43-22.26 1067.15-19.74ZM1104.53 0L1098.79 0L1098.79-34.02L1103.55-34.02L1104.04-29.12L1104.25-29.12L1104.25-29.12Q1106.70-31.57 1109.40-33.22L1109.40-33.22L1109.40-33.22Q1112.09-34.86 1115.66-34.86L1115.66-34.86L1115.66-34.86Q1121.05-34.86 1123.54-31.50L1123.54-31.50L1123.54-31.50Q1126.02-28.14 1126.02-21.56L1126.02-21.56L1126.02 0L1120.28 0L1120.28-20.79L1120.28-20.79Q1120.28-25.62 1118.74-27.76L1118.74-27.76L1118.74-27.76Q1117.20-29.89 1113.84-29.89L1113.84-29.89L1113.84-29.89Q1111.18-29.89 1109.15-28.56L1109.15-28.56L1109.15-28.56Q1107.12-27.23 1104.53-24.64L1104.53-24.64L1104.53 0ZM1147.79 0.84L1147.79 0.84L1147.79 0.84Q1145.06 0.84 1143.21 0L1143.21 0L1143.21 0Q1141.35-0.84 1140.20-2.31L1140.20-2.31L1140.20-2.31Q1139.04-3.78 1138.55-5.88L1138.55-5.88L1138.55-5.88Q1138.06-7.98 1138.06-10.50L1138.06-10.50L1138.06-29.33L1133.02-29.33L1133.02-33.67L1138.34-34.02L1139.04-43.54L1143.87-43.54L1143.87-34.02L1153.04-34.02L1153.04-29.33L1143.87-29.33L1143.87-10.43L1143.87-10.43Q1143.87-7.28 1145.03-5.57L1145.03-5.57L1145.03-5.57Q1146.18-3.85 1149.12-3.85L1149.12-3.85L1149.12-3.85Q1150.03-3.85 1151.08-4.13L1151.08-4.13L1151.08-4.13Q1152.13-4.41 1152.97-4.76L1152.97-4.76L1154.09-0.42L1154.09-0.42Q1152.69 0.07 1151.05 0.46L1151.05 0.46L1151.05 0.46Q1149.40 0.84 1147.79 0.84Z" fill="#555eac"></path></g></g><style>text {
  font-size: 64px;
  font-family: Arial Black;
  dominant-baseline: central;
  text-anchor: middle;
}</style></svg>