<svg width="1538.4825195312499px" height="140.01999511718748px" xmlns="http://www.w3.org/2000/svg" viewBox="-519.2412597656249 4.990002441406261 1538.4825195312499 140.01999511718748" style="background: rgba(242, 237, 219, 0);" preserveAspectRatio="xMidYMid"><defs><filter id="editing-vintage" x="-100%" y="-100%" width="300%" height="300%"><feConvolveMatrix in="SourceGraphic" result="extrude" order="6,6" divisor="1" kernelMatrix="1,0,0,0,0,0,0,1,0,0,0,0,0,0,1,0,0,0,0,0,0,1,0,0,0,0,0,0,1,0,0,0,0,0,0,1"> </feConvolveMatrix><feFlood flood-color="#130a5d" result="flood-extrude"></feFlood><feComposite operator="in" in="flood-extrude" in2="extrude" result="extrude-color"></feComposite><feOffset dx="3" dy="3" in="extrude-color" result="extrude-offset"></feOffset><feColorMatrix in="SourceGraphic" result="stroke" type="matrix" values="0 0 0 0 0 0 0 0 0 0 0 0 0 0 0 0 1 0 0 0 "></feColorMatrix><feColorMatrix in="SourceGraphic" result="fill" type="matrix" values="0 0 0 0 0 0 0 0 0 0 0 0 0 0 0 1 0 0 1 0 "></feColorMatrix><feConvolveMatrix in="stroke" result="inner-shadow" order="5,5" divisor="1" kernelMatrix="1 0 0 0 0 0 1 0 0 0 0 0 1 0 0 0 0 0 1 0 0 0 0 0 1 "></feConvolveMatrix><feOffset dx="1" dy="1" in="inner-shadow" result="offset"></feOffset><feComposite operator="in" in="offset" in2="SourceAlpha" result="comp"></feComposite><feFlood flood-color="#ffffff" result="flood3"></feFlood><feComposite operator="in" in="flood3" in2="comp" result="comp2"></feComposite><feColorMatrix in="comp2" result="comp3" type="matrix" values="1 0 0 0 0 0 1 0 0 0 0 0 1 0 0 0 0 0 0.5 0 "></feColorMatrix><feFlood flood-color="#7288c8" result="flood1"></feFlood><feComposite operator="in" in="flood1" in2="fill" result="fill2"></feComposite><feFlood flood-color="#fff" result="flood2"></feFlood><feComposite operator="in" in="flood2" in2="stroke" result="stroke2"></feComposite><feMerge result="obj"><feMergeNode in="extrude-offset"></feMergeNode><feMergeNode in="fill2"></feMergeNode><feMergeNode in="comp3"></feMergeNode></feMerge><feConvolveMatrix in="SourceAlpha" result="shadow" order="6,6" divisor="1" kernelMatrix="1,0,0,0,0,0,0,1,0,0,0,0,0,0,1,0,0,0,0,0,0,1,0,0,0,0,0,0,1,0,0,0,0,0,0,1"></feConvolveMatrix><feOffset dx="9" dy="9" in="shadow" result="shadow-offset"></feOffset><feFlood flood-color="#444444" result="flood-shadow"></feFlood><feComposite operator="in" in="flood-shadow" in2="shadow-offset" result="shadow-color"></feComposite><feMerge><feMergeNode in="shadow-color"></feMergeNode><feMergeNode in="obj"></feMergeNode></feMerge></filter></defs><g transform="translate(-6,-6)"><g filter="url(#editing-vintage)"><g transform="translate(-310.1049928665161, 107.65499877929688)"><path d="M12.11 0L6.30 0L6.30-45.92L12.11-45.92L12.11-26.67L33.46-26.67L33.46-45.92L39.34-45.92L39.34 0L33.46 0L33.46-21.63L12.11-21.63L12.11 0ZM65.17 0.84L65.17 0.84L65.17 0.84Q61.74 0.84 58.77-0.39L58.77-0.39L58.77-0.39Q55.79-1.61 53.59-3.89L53.59-3.89L53.59-3.89Q51.38-6.16 50.12-9.45L50.12-9.45L50.12-9.45Q48.86-12.74 48.86-16.94L48.86-16.94L48.86-16.94Q48.86-21.14 50.16-24.47L50.16-24.47L50.16-24.47Q51.45-27.79 53.59-30.10L53.59-30.10L53.59-30.10Q55.72-32.41 58.45-33.64L58.45-33.64L58.45-33.64Q61.18-34.86 64.12-34.86L64.12-34.86L64.12-34.86Q67.34-34.86 69.90-33.74L69.90-33.74L69.90-33.74Q72.45-32.62 74.17-30.52L74.17-30.52L74.17-30.52Q75.88-28.42 76.79-25.48L76.79-25.48L76.79-25.48Q77.70-22.54 77.70-18.90L77.70-18.90L77.70-18.90Q77.70-17.99 77.67-17.12L77.67-17.12L77.67-17.12Q77.63-16.24 77.49-15.61L77.49-15.61L54.53-15.61L54.53-15.61Q54.88-10.15 57.93-6.97L57.93-6.97L57.93-6.97Q60.97-3.78 65.87-3.78L65.87-3.78L65.87-3.78Q68.32-3.78 70.39-4.52L70.39-4.52L70.39-4.52Q72.45-5.25 74.34-6.44L74.34-6.44L76.37-2.66L76.37-2.66Q74.13-1.26 71.40-0.21L71.40-0.21L71.40-0.21Q68.67 0.84 65.17 0.84ZM54.46-19.74L54.46-19.74L72.66-19.74L72.66-19.74Q72.66-24.92 70.46-27.62L70.46-27.62L70.46-27.62Q68.25-30.31 64.26-30.31L64.26-30.31L64.26-30.31Q62.44-30.31 60.80-29.61L60.80-29.61L60.80-29.61Q59.15-28.91 57.82-27.55L57.82-27.55L57.82-27.55Q56.49-26.18 55.62-24.22L55.62-24.22L55.62-24.22Q54.74-22.26 54.46-19.74ZM87.01 14.63L87.01 14.63L87.01 14.63Q85.82 14.63 84.84 14.46L84.84 14.46L84.84 14.46Q83.86 14.28 83.02 13.93L83.02 13.93L84.14 9.38L84.14 9.38Q84.70 9.52 85.40 9.70L85.40 9.70L85.40 9.70Q86.10 9.87 86.73 9.87L86.73 9.87L86.73 9.87Q89.67 9.87 91.53 7.81L91.53 7.81L91.53 7.81Q93.38 5.74 94.43 2.59L94.43 2.59L95.20 0.07L81.55-34.02L87.50-34.02L94.43-15.19L94.43-15.19Q95.20-12.95 96.08-10.47L96.08-10.47L96.08-10.47Q96.95-7.98 97.72-5.60L97.72-5.60L98.00-5.60L98.00-5.60Q98.77-7.91 99.47-10.43L99.47-10.43L99.47-10.43Q100.17-12.95 100.87-15.19L100.87-15.19L106.96-34.02L112.56-34.02L99.75 2.80L99.75 2.80Q98.84 5.32 97.72 7.49L97.72 7.49L97.72 7.49Q96.60 9.66 95.06 11.24L95.06 11.24L95.06 11.24Q93.52 12.81 91.56 13.72L91.56 13.72L91.56 13.72Q89.60 14.63 87.01 14.63ZM125.51-13.86L121.52-13.86L120.75-40.32L120.61-46.90L126.42-46.90L126.28-40.32L125.51-13.86ZM123.55 0.84L123.55 0.84L123.55 0.84Q121.80 0.84 120.58-0.39L120.58-0.39L120.58-0.39Q119.35-1.61 119.35-3.50L119.35-3.50L119.35-3.50Q119.35-5.53 120.58-6.76L120.58-6.76L120.58-6.76Q121.80-7.98 123.55-7.98L123.55-7.98L123.55-7.98Q125.23-7.98 126.46-6.76L126.46-6.76L126.46-6.76Q127.68-5.53 127.68-3.50L127.68-3.50L127.68-3.50Q127.68-1.61 126.46-0.39L126.46-0.39L126.46-0.39Q125.23 0.84 123.55 0.84ZM159.74 0L153.93 0L153.93-45.92L159.74-45.92L159.74 0ZM176.47-30.17L172.97-30.17L171.85-41.86L171.64-48.30L177.80-48.30L177.59-41.86L176.47-30.17ZM194.95 0L189.21 0L189.21-34.02L193.97-34.02L194.46-29.12L194.67-29.12L194.67-29.12Q196.91-31.57 199.53-33.22L199.53-33.22L199.53-33.22Q202.16-34.86 205.24-34.86L205.24-34.86L205.24-34.86Q209.16-34.86 211.37-33.15L211.37-33.15L211.37-33.15Q213.57-31.43 214.62-28.35L214.62-28.35L214.62-28.35Q217.28-31.29 219.97-33.08L219.97-33.08L219.97-33.08Q222.67-34.86 225.82-34.86L225.82-34.86L225.82-34.86Q231.07-34.86 233.63-31.50L233.63-31.50L233.63-31.50Q236.18-28.14 236.18-21.56L236.18-21.56L236.18 0L230.44 0L230.44-20.79L230.44-20.79Q230.44-25.62 228.90-27.76L228.90-27.76L228.90-27.76Q227.36-29.89 224.14-29.89L224.14-29.89L224.14-29.89Q220.29-29.89 215.60-24.64L215.60-24.64L215.60 0L209.86 0L209.86-20.79L209.86-20.79Q209.86-25.62 208.32-27.76L208.32-27.76L208.32-27.76Q206.78-29.89 203.49-29.89L203.49-29.89L203.49-29.89Q199.64-29.89 194.95-24.64L194.95-24.64L194.95 0ZM277.20 0L271.32 0L271.32-41.02L257.46-41.02L257.46-45.92L291.06-45.92L291.06-41.02L277.20-41.02L277.20 0ZM297.01 14.63L297.01 14.63L297.01 14.63Q295.82 14.63 294.84 14.46L294.84 14.46L294.84 14.46Q293.86 14.28 293.02 13.93L293.02 13.93L294.14 9.38L294.14 9.38Q294.70 9.52 295.40 9.70L295.40 9.70L295.40 9.70Q296.10 9.87 296.73 9.87L296.73 9.87L296.73 9.87Q299.67 9.87 301.52 7.81L301.52 7.81L301.52 7.81Q303.38 5.74 304.43 2.59L304.43 2.59L305.20 0.07L291.55-34.02L297.50-34.02L304.43-15.19L304.43-15.19Q305.20-12.95 306.07-10.47L306.07-10.47L306.07-10.47Q306.95-7.98 307.72-5.60L307.72-5.60L308-5.60L308-5.60Q308.77-7.91 309.47-10.43L309.47-10.43L309.47-10.43Q310.17-12.95 310.87-15.19L310.87-15.19L316.96-34.02L322.56-34.02L309.75 2.80L309.75 2.80Q308.84 5.32 307.72 7.49L307.72 7.49L307.72 7.49Q306.60 9.66 305.06 11.24L305.06 11.24L305.06 11.24Q303.52 12.81 301.56 13.72L301.56 13.72L301.56 13.72Q299.60 14.63 297.01 14.63ZM335.23 0.84L335.23 0.84L335.23 0.84Q331.94 0.84 330.54-1.12L330.54-1.12L330.54-1.12Q329.14-3.08 329.14-6.86L329.14-6.86L329.14-49.84L334.88-49.84L334.88-6.44L334.88-6.44Q334.88-5.04 335.37-4.48L335.37-4.48L335.37-4.48Q335.86-3.92 336.49-3.92L336.49-3.92L336.49-3.92Q336.77-3.92 337.01-3.92L337.01-3.92L337.01-3.92Q337.26-3.92 337.75-4.06L337.75-4.06L338.52 0.28L338.52 0.28Q337.96 0.56 337.19 0.70L337.19 0.70L337.19 0.70Q336.42 0.84 335.23 0.84ZM360.78 0.84L360.78 0.84L360.78 0.84Q357.35 0.84 354.38-0.39L354.38-0.39L354.38-0.39Q351.40-1.61 349.19-3.89L349.19-3.89L349.19-3.89Q346.99-6.16 345.73-9.45L345.73-9.45L345.73-9.45Q344.47-12.74 344.47-16.94L344.47-16.94L344.47-16.94Q344.47-21.14 345.76-24.47L345.76-24.47L345.76-24.47Q347.06-27.79 349.19-30.10L349.19-30.10L349.19-30.10Q351.33-32.41 354.06-33.64L354.06-33.64L354.06-33.64Q356.79-34.86 359.73-34.86L359.73-34.86L359.73-34.86Q362.95-34.86 365.50-33.74L365.50-33.74L365.50-33.74Q368.06-32.62 369.77-30.52L369.77-30.52L369.77-30.52Q371.49-28.42 372.40-25.48L372.40-25.48L372.40-25.48Q373.31-22.54 373.31-18.90L373.31-18.90L373.31-18.90Q373.31-17.99 373.27-17.12L373.27-17.12L373.27-17.12Q373.24-16.24 373.10-15.61L373.10-15.61L350.14-15.61L350.14-15.61Q350.49-10.15 353.54-6.97L353.54-6.97L353.54-6.97Q356.58-3.78 361.48-3.78L361.48-3.78L361.48-3.78Q363.93-3.78 366.00-4.52L366.00-4.52L366.00-4.52Q368.06-5.25 369.95-6.44L369.95-6.44L371.98-2.66L371.98-2.66Q369.74-1.26 367.01-0.21L367.01-0.21L367.01-0.21Q364.28 0.84 360.78 0.84ZM350.07-19.74L350.07-19.74L368.27-19.74L368.27-19.74Q368.27-24.92 366.06-27.62L366.06-27.62L366.06-27.62Q363.86-30.31 359.87-30.31L359.87-30.31L359.87-30.31Q358.05-30.31 356.40-29.61L356.40-29.61L356.40-29.61Q354.76-28.91 353.43-27.55L353.43-27.55L353.43-27.55Q352.10-26.18 351.23-24.22L351.23-24.22L351.23-24.22Q350.35-22.26 350.07-19.74ZM387.45 0L381.71 0L381.71-34.02L386.47-34.02L386.96-27.86L387.17-27.86L387.17-27.86Q388.92-31.08 391.41-32.97L391.41-32.97L391.41-32.97Q393.89-34.86 396.83-34.86L396.83-34.86L396.83-34.86Q398.86-34.86 400.47-34.16L400.47-34.16L399.35-29.12L399.35-29.12Q398.51-29.40 397.81-29.54L397.81-29.54L397.81-29.54Q397.11-29.68 396.06-29.68L396.06-29.68L396.06-29.68Q393.89-29.68 391.55-27.93L391.55-27.93L391.55-27.93Q389.20-26.18 387.45-21.84L387.45-21.84L387.45 0ZM433.30 0.84L433.30 0.84L433.30 0.84Q428.47 0.84 424.34-0.98L424.34-0.98L424.34-0.98Q420.21-2.80 417.20-5.95L417.20-5.95L420.70-10.01L420.70-10.01Q423.15-7.42 426.48-5.85L426.48-5.85L426.48-5.85Q429.80-4.27 433.37-4.27L433.37-4.27L433.37-4.27Q437.92-4.27 440.44-6.34L440.44-6.34L440.44-6.34Q442.96-8.40 442.96-11.76L442.96-11.76L442.96-11.76Q442.96-13.51 442.37-14.74L442.37-14.74L442.37-14.74Q441.77-15.96 440.76-16.84L440.76-16.84L440.76-16.84Q439.74-17.71 438.34-18.41L438.34-18.41L438.34-18.41Q436.94-19.11 435.33-19.88L435.33-19.88L428.75-22.75L428.75-22.75Q427.14-23.45 425.46-24.43L425.46-24.43L425.46-24.43Q423.78-25.41 422.45-26.81L422.45-26.81L422.45-26.81Q421.12-28.21 420.28-30.14L420.28-30.14L420.28-30.14Q419.44-32.06 419.44-34.58L419.44-34.58L419.44-34.58Q419.44-37.17 420.53-39.41L420.53-39.41L420.53-39.41Q421.61-41.65 423.54-43.30L423.54-43.30L423.54-43.30Q425.46-44.94 428.09-45.85L428.09-45.85L428.09-45.85Q430.71-46.76 433.86-46.76L433.86-46.76L433.86-46.76Q437.99-46.76 441.49-45.19L441.49-45.19L441.49-45.19Q444.99-43.61 447.44-41.09L447.44-41.09L444.29-37.31L444.29-37.31Q442.19-39.34 439.64-40.50L439.64-40.50L439.64-40.50Q437.08-41.65 433.86-41.65L433.86-41.65L433.86-41.65Q430.01-41.65 427.67-39.87L427.67-39.87L427.67-39.87Q425.32-38.08 425.32-34.93L425.32-34.93L425.32-34.93Q425.32-33.25 425.99-32.10L425.99-32.10L425.99-32.10Q426.65-30.94 427.77-30.07L427.77-30.07L427.77-30.07Q428.89-29.19 430.22-28.53L430.22-28.53L430.22-28.53Q431.55-27.86 432.95-27.30L432.95-27.30L439.46-24.50L439.46-24.50Q441.42-23.66 443.17-22.58L443.17-22.58L443.17-22.58Q444.92-21.49 446.18-20.06L446.18-20.06L446.18-20.06Q447.44-18.62 448.18-16.70L448.18-16.70L448.18-16.70Q448.91-14.77 448.91-12.25L448.91-12.25L448.91-12.25Q448.91-9.52 447.83-7.14L447.83-7.14L447.83-7.14Q446.74-4.76 444.71-2.98L444.71-2.98L444.71-2.98Q442.68-1.19 439.81-0.18L439.81-0.18L439.81-0.18Q436.94 0.84 433.30 0.84ZM463.12 0L457.38 0L457.38-34.02L462.14-34.02L462.63-29.12L462.84-29.12L462.84-29.12Q465.08-31.57 467.71-33.22L467.71-33.22L467.71-33.22Q470.33-34.86 473.41-34.86L473.41-34.86L473.41-34.86Q477.33-34.86 479.54-33.15L479.54-33.15L479.54-33.15Q481.74-31.43 482.79-28.35L482.79-28.35L482.79-28.35Q485.45-31.29 488.15-33.08L488.15-33.08L488.15-33.08Q490.84-34.86 493.99-34.86L493.99-34.86L493.99-34.86Q499.24-34.86 501.80-31.50L501.80-31.50L501.80-31.50Q504.35-28.14 504.35-21.56L504.35-21.56L504.35 0L498.61 0L498.61-20.79L498.61-20.79Q498.61-25.62 497.07-27.76L497.07-27.76L497.07-27.76Q495.53-29.89 492.31-29.89L492.31-29.89L492.31-29.89Q488.46-29.89 483.77-24.64L483.77-24.64L483.77 0L478.03 0L478.03-20.79L478.03-20.79Q478.03-25.62 476.49-27.76L476.49-27.76L476.49-27.76Q474.95-29.89 471.66-29.89L471.66-29.89L471.66-29.89Q467.81-29.89 463.12-24.64L463.12-24.64L463.12 0ZM521.15 0L515.41 0L515.41-34.02L521.15-34.02L521.15 0ZM518.35-41.02L518.35-41.02L518.35-41.02Q516.67-41.02 515.52-42.07L515.52-42.07L515.52-42.07Q514.36-43.12 514.36-44.73L514.36-44.73L514.36-44.73Q514.36-46.41 515.52-47.43L515.52-47.43L515.52-47.43Q516.67-48.44 518.35-48.44L518.35-48.44L518.35-48.44Q520.03-48.44 521.19-47.43L521.19-47.43L521.19-47.43Q522.34-46.41 522.34-44.73L522.34-44.73L522.34-44.73Q522.34-43.12 521.19-42.07L521.19-42.07L521.19-42.07Q520.03-41.02 518.35-41.02ZM543.34 0.84L543.34 0.84L543.34 0.84Q540.61 0.84 538.76 0L538.76 0L538.76 0Q536.90-0.84 535.75-2.31L535.75-2.31L535.75-2.31Q534.59-3.78 534.10-5.88L534.10-5.88L534.10-5.88Q533.61-7.98 533.61-10.50L533.61-10.50L533.61-29.33L528.57-29.33L528.57-33.67L533.89-34.02L534.59-43.54L539.42-43.54L539.42-34.02L548.59-34.02L548.59-29.33L539.42-29.33L539.42-10.43L539.42-10.43Q539.42-7.28 540.58-5.57L540.58-5.57L540.58-5.57Q541.73-3.85 544.67-3.85L544.67-3.85L544.67-3.85Q545.58-3.85 546.63-4.13L546.63-4.13L546.63-4.13Q547.68-4.41 548.52-4.76L548.52-4.76L549.64-0.42L549.64-0.42Q548.24 0.07 546.60 0.46L546.60 0.46L546.60 0.46Q544.95 0.84 543.34 0.84ZM562.03 0L556.29 0L556.29-49.84L562.03-49.84L562.03-36.26L561.82-29.26L561.82-29.26Q564.27-31.57 566.93-33.22L566.93-33.22L566.93-33.22Q569.59-34.86 573.16-34.86L573.16-34.86L573.16-34.86Q578.55-34.86 581.04-31.50L581.04-31.50L581.04-31.50Q583.52-28.14 583.52-21.56L583.52-21.56L583.52 0L577.78 0L577.78-20.79L577.78-20.79Q577.78-25.62 576.24-27.76L576.24-27.76L576.24-27.76Q574.70-29.89 571.34-29.89L571.34-29.89L571.34-29.89Q568.68-29.89 566.65-28.56L566.65-28.56L566.65-28.56Q564.62-27.23 562.03-24.64L562.03-24.64L562.03 0ZM621.60-15.33L605.50-15.33L605.50-19.74L621.60-19.74L621.60-15.33ZM654.85 0.84L654.85 0.84L654.85 0.84Q652.12 0.84 650.27 0L650.27 0L650.27 0Q648.41-0.84 647.26-2.31L647.26-2.31L647.26-2.31Q646.10-3.78 645.61-5.88L645.61-5.88L645.61-5.88Q645.12-7.98 645.12-10.50L645.12-10.50L645.12-29.33L640.08-29.33L640.08-33.67L645.40-34.02L646.10-43.54L650.93-43.54L650.93-34.02L660.10-34.02L660.10-29.33L650.93-29.33L650.93-10.43L650.93-10.43Q650.93-7.28 652.09-5.57L652.09-5.57L652.09-5.57Q653.24-3.85 656.18-3.85L656.18-3.85L656.18-3.85Q657.09-3.85 658.14-4.13L658.14-4.13L658.14-4.13Q659.19-4.41 660.03-4.76L660.03-4.76L661.15-0.42L661.15-0.42Q659.75 0.07 658.11 0.46L658.11 0.46L658.11 0.46Q656.46 0.84 654.85 0.84ZM673.54 0L667.80 0L667.80-49.84L673.54-49.84L673.54-36.26L673.33-29.26L673.33-29.26Q675.78-31.57 678.44-33.22L678.44-33.22L678.44-33.22Q681.10-34.86 684.67-34.86L684.67-34.86L684.67-34.86Q690.06-34.86 692.55-31.50L692.55-31.50L692.55-31.50Q695.03-28.14 695.03-21.56L695.03-21.56L695.03 0L689.29 0L689.29-20.79L689.29-20.79Q689.29-25.62 687.75-27.76L687.75-27.76L687.75-27.76Q686.21-29.89 682.85-29.89L682.85-29.89L682.85-29.89Q680.19-29.89 678.16-28.56L678.16-28.56L678.16-28.56Q676.13-27.23 673.54-24.64L673.54-24.64L673.54 0ZM711.62 0L705.88 0L705.88-34.02L711.62-34.02L711.62 0ZM708.82-41.02L708.82-41.02L708.82-41.02Q707.14-41.02 705.99-42.07L705.99-42.07L705.99-42.07Q704.83-43.12 704.83-44.73L704.83-44.73L704.83-44.73Q704.83-46.41 705.99-47.43L705.99-47.43L705.99-47.43Q707.14-48.44 708.82-48.44L708.82-48.44L708.82-48.44Q710.50-48.44 711.66-47.43L711.66-47.43L711.66-47.43Q712.81-46.41 712.81-44.73L712.81-44.73L712.81-44.73Q712.81-43.12 711.66-42.07L711.66-42.07L711.66-42.07Q710.50-41.02 708.82-41.02ZM731.99 0.84L731.99 0.84L731.99 0.84Q728.35 0.84 725.06-0.49L725.06-0.49L725.06-0.49Q721.77-1.82 719.32-3.85L719.32-3.85L722.19-7.70L722.19-7.70Q724.43-5.88 726.78-4.76L726.78-4.76L726.78-4.76Q729.12-3.64 732.20-3.64L732.20-3.64L732.20-3.64Q735.56-3.64 737.24-5.18L737.24-5.18L737.24-5.18Q738.92-6.72 738.92-8.96L738.92-8.96L738.92-8.96Q738.92-10.29 738.22-11.27L738.22-11.27L738.22-11.27Q737.52-12.25 736.44-12.99L736.44-12.99L736.44-12.99Q735.35-13.72 733.95-14.28L733.95-14.28L733.95-14.28Q732.55-14.84 731.15-15.40L731.15-15.40L731.15-15.40Q729.33-16.03 727.51-16.84L727.51-16.84L727.51-16.84Q725.69-17.64 724.26-18.80L724.26-18.80L724.26-18.80Q722.82-19.95 721.91-21.49L721.91-21.49L721.91-21.49Q721.00-23.03 721.00-25.20L721.00-25.20L721.00-25.20Q721.00-27.23 721.81-29.02L721.81-29.02L721.81-29.02Q722.61-30.80 724.12-32.10L724.12-32.10L724.12-32.10Q725.62-33.39 727.79-34.13L727.79-34.13L727.79-34.13Q729.96-34.86 732.69-34.86L732.69-34.86L732.69-34.86Q735.91-34.86 738.61-33.74L738.61-33.74L738.61-33.74Q741.30-32.62 743.26-31.01L743.26-31.01L740.53-27.37L740.53-27.37Q738.78-28.70 736.89-29.54L736.89-29.54L736.89-29.54Q735.00-30.38 732.76-30.38L732.76-30.38L732.76-30.38Q729.54-30.38 728.04-28.91L728.04-28.91L728.04-28.91Q726.53-27.44 726.53-25.48L726.53-25.48L726.53-25.48Q726.53-24.29 727.16-23.42L727.16-23.42L727.16-23.42Q727.79-22.54 728.84-21.88L728.84-21.88L728.84-21.88Q729.89-21.21 731.26-20.69L731.26-20.69L731.26-20.69Q732.62-20.16 734.09-19.60L734.09-19.60L734.09-19.60Q735.91-18.90 737.77-18.13L737.77-18.13L737.77-18.13Q739.62-17.36 741.09-16.21L741.09-16.21L741.09-16.21Q742.56-15.05 743.51-13.37L743.51-13.37L743.51-13.37Q744.45-11.69 744.45-9.31L744.45-9.31L744.45-9.31Q744.45-7.21 743.65-5.39L743.65-5.39L743.65-5.39Q742.84-3.57 741.27-2.17L741.27-2.17L741.27-2.17Q739.69-0.77 737.35 0.04L737.35 0.04L737.35 0.04Q735.00 0.84 731.99 0.84ZM772.17 0L766.43 0L766.43-34.02L772.17-34.02L772.17 0ZM769.37-41.02L769.37-41.02L769.37-41.02Q767.69-41.02 766.54-42.07L766.54-42.07L766.54-42.07Q765.38-43.12 765.38-44.73L765.38-44.73L765.38-44.73Q765.38-46.41 766.54-47.43L766.54-47.43L766.54-47.43Q767.69-48.44 769.37-48.44L769.37-48.44L769.37-48.44Q771.05-48.44 772.21-47.43L772.21-47.43L772.21-47.43Q773.36-46.41 773.36-44.73L773.36-44.73L773.36-44.73Q773.36-43.12 772.21-42.07L772.21-42.07L772.21-42.07Q771.05-41.02 769.37-41.02ZM792.54 0.84L792.54 0.84L792.54 0.84Q788.90 0.84 785.61-0.49L785.61-0.49L785.61-0.49Q782.32-1.82 779.87-3.85L779.87-3.85L782.74-7.70L782.74-7.70Q784.98-5.88 787.33-4.76L787.33-4.76L787.33-4.76Q789.67-3.64 792.75-3.64L792.75-3.64L792.75-3.64Q796.11-3.64 797.79-5.18L797.79-5.18L797.79-5.18Q799.47-6.72 799.47-8.96L799.47-8.96L799.47-8.96Q799.47-10.29 798.77-11.27L798.77-11.27L798.77-11.27Q798.07-12.25 796.99-12.99L796.99-12.99L796.99-12.99Q795.90-13.72 794.50-14.28L794.50-14.28L794.50-14.28Q793.10-14.84 791.70-15.40L791.70-15.40L791.70-15.40Q789.88-16.03 788.06-16.84L788.06-16.84L788.06-16.84Q786.24-17.64 784.81-18.80L784.81-18.80L784.81-18.80Q783.37-19.95 782.46-21.49L782.46-21.49L782.46-21.49Q781.55-23.03 781.55-25.20L781.55-25.20L781.55-25.20Q781.55-27.23 782.36-29.02L782.36-29.02L782.36-29.02Q783.16-30.80 784.67-32.10L784.67-32.10L784.67-32.10Q786.17-33.39 788.34-34.13L788.34-34.13L788.34-34.13Q790.51-34.86 793.24-34.86L793.24-34.86L793.24-34.86Q796.46-34.86 799.16-33.74L799.16-33.74L799.16-33.74Q801.85-32.62 803.81-31.01L803.81-31.01L801.08-27.37L801.08-27.37Q799.33-28.70 797.44-29.54L797.44-29.54L797.44-29.54Q795.55-30.38 793.31-30.38L793.31-30.38L793.31-30.38Q790.09-30.38 788.59-28.91L788.59-28.91L788.59-28.91Q787.08-27.44 787.08-25.48L787.08-25.48L787.08-25.48Q787.08-24.29 787.71-23.42L787.71-23.42L787.71-23.42Q788.34-22.54 789.39-21.88L789.39-21.88L789.39-21.88Q790.44-21.21 791.81-20.69L791.81-20.69L791.81-20.69Q793.17-20.16 794.64-19.60L794.64-19.60L794.64-19.60Q796.46-18.90 798.32-18.13L798.32-18.13L798.32-18.13Q800.17-17.36 801.64-16.21L801.64-16.21L801.64-16.21Q803.11-15.05 804.06-13.37L804.06-13.37L804.06-13.37Q805.00-11.69 805.00-9.31L805.00-9.31L805.00-9.31Q805.00-7.21 804.20-5.39L804.20-5.39L804.20-5.39Q803.39-3.57 801.82-2.17L801.82-2.17L801.82-2.17Q800.24-0.77 797.90 0.04L797.90 0.04L797.90 0.04Q795.55 0.84 792.54 0.84ZM832.72 0L826.98 0L826.98-34.02L831.74-34.02L832.23-29.12L832.44-29.12L832.44-29.12Q834.68-31.57 837.31-33.22L837.31-33.22L837.31-33.22Q839.93-34.86 843.01-34.86L843.01-34.86L843.01-34.86Q846.93-34.86 849.14-33.15L849.14-33.15L849.14-33.15Q851.34-31.43 852.39-28.35L852.39-28.35L852.39-28.35Q855.05-31.29 857.75-33.08L857.75-33.08L857.75-33.08Q860.44-34.86 863.59-34.86L863.59-34.86L863.59-34.86Q868.84-34.86 871.40-31.50L871.40-31.50L871.40-31.50Q873.95-28.14 873.95-21.56L873.95-21.56L873.95 0L868.21 0L868.21-20.79L868.21-20.79Q868.21-25.62 866.67-27.76L866.67-27.76L866.67-27.76Q865.13-29.89 861.91-29.89L861.91-29.89L861.91-29.89Q858.06-29.89 853.37-24.64L853.37-24.64L853.37 0L847.63 0L847.63-20.79L847.63-20.79Q847.63-25.62 846.09-27.76L846.09-27.76L846.09-27.76Q844.55-29.89 841.26-29.89L841.26-29.89L841.26-29.89Q837.41-29.89 832.72-24.64L832.72-24.64L832.72 0ZM885.57 14.63L885.57 14.63L885.57 14.63Q884.38 14.63 883.40 14.46L883.40 14.46L883.40 14.46Q882.42 14.28 881.58 13.93L881.58 13.93L882.70 9.38L882.70 9.38Q883.26 9.52 883.96 9.70L883.96 9.70L883.96 9.70Q884.66 9.87 885.29 9.87L885.29 9.87L885.29 9.87Q888.23 9.87 890.09 7.81L890.09 7.81L890.09 7.81Q891.94 5.74 892.99 2.59L892.99 2.59L893.76 0.07L880.11-34.02L886.06-34.02L892.99-15.19L892.99-15.19Q893.76-12.95 894.64-10.47L894.64-10.47L894.64-10.47Q895.51-7.98 896.28-5.60L896.28-5.60L896.56-5.60L896.56-5.60Q897.33-7.91 898.03-10.43L898.03-10.43L898.03-10.43Q898.73-12.95 899.43-15.19L899.43-15.19L905.52-34.02L911.12-34.02L898.31 2.80L898.31 2.80Q897.40 5.32 896.28 7.49L896.28 7.49L896.28 7.49Q895.16 9.66 893.62 11.24L893.62 11.24L893.62 11.24Q892.08 12.81 890.12 13.72L890.12 13.72L890.12 13.72Q888.16 14.63 885.57 14.63ZM937.44 14.35L931.70 14.35L931.70-34.02L936.46-34.02L936.95-30.10L937.16-30.10L937.16-30.10Q939.47-32.06 942.24-33.46L942.24-33.46L942.24-33.46Q945.00-34.86 948.01-34.86L948.01-34.86L948.01-34.86Q951.30-34.86 953.82-33.64L953.82-33.64L953.82-33.64Q956.34-32.41 958.02-30.14L958.02-30.14L958.02-30.14Q959.70-27.86 960.58-24.68L960.58-24.68L960.58-24.68Q961.45-21.49 961.45-17.50L961.45-17.50L961.45-17.50Q961.45-13.16 960.26-9.77L960.26-9.77L960.26-9.77Q959.07-6.37 957.04-3.99L957.04-3.99L957.04-3.99Q955.01-1.61 952.35-0.39L952.35-0.39L952.35-0.39Q949.69 0.84 946.75 0.84L946.75 0.84L946.75 0.84Q944.37 0.84 942.03-0.21L942.03-0.21L942.03-0.21Q939.68-1.26 937.30-3.08L937.30-3.08L937.44 2.87L937.44 14.35ZM945.77-3.99L945.77-3.99L945.77-3.99Q947.87-3.99 949.66-4.94L949.66-4.94L949.66-4.94Q951.44-5.88 952.74-7.60L952.74-7.60L952.74-7.60Q954.03-9.31 954.77-11.83L954.77-11.83L954.77-11.83Q955.50-14.35 955.50-17.50L955.50-17.50L955.50-17.50Q955.50-20.30 955.01-22.61L955.01-22.61L955.01-22.61Q954.52-24.92 953.44-26.57L953.44-26.57L953.44-26.57Q952.35-28.21 950.64-29.12L950.64-29.12L950.64-29.12Q948.92-30.03 946.54-30.03L946.54-30.03L946.54-30.03Q944.37-30.03 942.17-28.84L942.17-28.84L942.17-28.84Q939.96-27.65 937.44-25.41L937.44-25.41L937.44-7.56L937.44-7.56Q939.75-5.60 941.92-4.80L941.92-4.80L941.92-4.80Q944.09-3.99 945.77-3.99ZM976.29 0L970.55 0L970.55-34.02L975.31-34.02L975.80-27.86L976.01-27.86L976.01-27.86Q977.76-31.08 980.25-32.97L980.25-32.97L980.25-32.97Q982.73-34.86 985.67-34.86L985.67-34.86L985.67-34.86Q987.70-34.86 989.31-34.16L989.31-34.16L988.19-29.12L988.19-29.12Q987.35-29.40 986.65-29.54L986.65-29.54L986.65-29.54Q985.95-29.68 984.90-29.68L984.90-29.68L984.90-29.68Q982.73-29.68 980.39-27.93L980.39-27.93L980.39-27.93Q978.04-26.18 976.29-21.84L976.29-21.84L976.29 0ZM1007.37 0.84L1007.37 0.84L1007.37 0.84Q1004.22 0.84 1001.39-0.35L1001.39-0.35L1001.39-0.35Q998.55-1.54 996.38-3.82L996.38-3.82L996.38-3.82Q994.21-6.09 992.92-9.42L992.92-9.42L992.92-9.42Q991.62-12.74 991.62-16.94L991.62-16.94L991.62-16.94Q991.62-21.21 992.92-24.54L992.92-24.54L992.92-24.54Q994.21-27.86 996.38-30.17L996.38-30.17L996.38-30.17Q998.55-32.48 1001.39-33.67L1001.39-33.67L1001.39-33.67Q1004.22-34.86 1007.37-34.86L1007.37-34.86L1007.37-34.86Q1010.52-34.86 1013.36-33.67L1013.36-33.67L1013.36-33.67Q1016.19-32.48 1018.36-30.17L1018.36-30.17L1018.36-30.17Q1020.53-27.86 1021.83-24.54L1021.83-24.54L1021.83-24.54Q1023.12-21.21 1023.12-16.94L1023.12-16.94L1023.12-16.94Q1023.12-12.74 1021.83-9.42L1021.83-9.42L1021.83-9.42Q1020.53-6.09 1018.36-3.82L1018.36-3.82L1018.36-3.82Q1016.19-1.54 1013.36-0.35L1013.36-0.35L1013.36-0.35Q1010.52 0.84 1007.37 0.84ZM1007.37-3.92L1007.37-3.92L1007.37-3.92Q1009.54-3.92 1011.36-4.87L1011.36-4.87L1011.36-4.87Q1013.18-5.81 1014.48-7.53L1014.48-7.53L1014.48-7.53Q1015.77-9.24 1016.47-11.62L1016.47-11.62L1016.47-11.62Q1017.17-14.00 1017.17-16.94L1017.17-16.94L1017.17-16.94Q1017.17-19.88 1016.47-22.30L1016.47-22.30L1016.47-22.30Q1015.77-24.71 1014.48-26.46L1014.48-26.46L1014.48-26.46Q1013.18-28.21 1011.36-29.16L1011.36-29.16L1011.36-29.16Q1009.54-30.10 1007.37-30.10L1007.37-30.10L1007.37-30.10Q1005.20-30.10 1003.38-29.16L1003.38-29.16L1003.38-29.16Q1001.56-28.21 1000.27-26.46L1000.27-26.46L1000.27-26.46Q998.97-24.71 998.27-22.30L998.27-22.30L998.27-22.30Q997.57-19.88 997.57-16.94L997.57-16.94L997.57-16.94Q997.57-14.00 998.27-11.62L998.27-11.62L998.27-11.62Q998.97-9.24 1000.27-7.53L1000.27-7.53L1000.27-7.53Q1001.56-5.81 1003.38-4.87L1003.38-4.87L1003.38-4.87Q1005.20-3.92 1007.37-3.92ZM1038.80 0L1033.06 0L1033.06-29.33L1028.44-29.33L1028.44-33.67L1033.06-34.02L1033.06-39.41L1033.06-39.41Q1033.06-44.66 1035.48-47.67L1035.48-47.67L1035.48-47.67Q1037.89-50.68 1043.00-50.68L1043.00-50.68L1043.00-50.68Q1044.61-50.68 1046.05-50.37L1046.05-50.37L1046.05-50.37Q1047.48-50.05 1048.67-49.56L1048.67-49.56L1047.41-45.15L1047.41-45.15Q1045.52-45.99 1043.56-45.99L1043.56-45.99L1043.56-45.99Q1038.80-45.99 1038.80-39.41L1038.80-39.41L1038.80-34.02L1046.01-34.02L1046.01-29.33L1038.80-29.33L1038.80 0ZM1058.26 0L1052.52 0L1052.52-34.02L1058.26-34.02L1058.26 0ZM1055.46-41.02L1055.46-41.02L1055.46-41.02Q1053.78-41.02 1052.63-42.07L1052.63-42.07L1052.63-42.07Q1051.47-43.12 1051.47-44.73L1051.47-44.73L1051.47-44.73Q1051.47-46.41 1052.63-47.43L1052.63-47.43L1052.63-47.43Q1053.78-48.44 1055.46-48.44L1055.46-48.44L1055.46-48.44Q1057.14-48.44 1058.30-47.43L1058.30-47.43L1058.30-47.43Q1059.45-46.41 1059.45-44.73L1059.45-44.73L1059.45-44.73Q1059.45-43.12 1058.30-42.07L1058.30-42.07L1058.30-42.07Q1057.14-41.02 1055.46-41.02ZM1075.83 0.84L1075.83 0.84L1075.83 0.84Q1072.54 0.84 1071.14-1.12L1071.14-1.12L1071.14-1.12Q1069.74-3.08 1069.74-6.86L1069.74-6.86L1069.74-49.84L1075.48-49.84L1075.48-6.44L1075.48-6.44Q1075.48-5.04 1075.97-4.48L1075.97-4.48L1075.97-4.48Q1076.46-3.92 1077.09-3.92L1077.09-3.92L1077.09-3.92Q1077.37-3.92 1077.62-3.92L1077.62-3.92L1077.62-3.92Q1077.86-3.92 1078.35-4.06L1078.35-4.06L1079.12 0.28L1079.12 0.28Q1078.56 0.56 1077.79 0.70L1077.79 0.70L1077.79 0.70Q1077.02 0.84 1075.83 0.84ZM1101.38 0.84L1101.38 0.84L1101.38 0.84Q1097.95 0.84 1094.98-0.39L1094.98-0.39L1094.98-0.39Q1092.00-1.61 1089.80-3.89L1089.80-3.89L1089.80-3.89Q1087.59-6.16 1086.33-9.45L1086.33-9.45L1086.33-9.45Q1085.07-12.74 1085.07-16.94L1085.07-16.94L1085.07-16.94Q1085.07-21.14 1086.37-24.47L1086.37-24.47L1086.37-24.47Q1087.66-27.79 1089.80-30.10L1089.80-30.10L1089.80-30.10Q1091.93-32.41 1094.66-33.64L1094.66-33.64L1094.66-33.64Q1097.39-34.86 1100.33-34.86L1100.33-34.86L1100.33-34.86Q1103.55-34.86 1106.11-33.74L1106.11-33.74L1106.11-33.74Q1108.66-32.62 1110.38-30.52L1110.38-30.52L1110.38-30.52Q1112.09-28.42 1113.00-25.48L1113.00-25.48L1113.00-25.48Q1113.91-22.54 1113.91-18.90L1113.91-18.90L1113.91-18.90Q1113.91-17.99 1113.88-17.12L1113.88-17.12L1113.88-17.12Q1113.84-16.24 1113.70-15.61L1113.70-15.61L1090.74-15.61L1090.74-15.61Q1091.09-10.15 1094.14-6.97L1094.14-6.97L1094.14-6.97Q1097.18-3.78 1102.08-3.78L1102.08-3.78L1102.08-3.78Q1104.53-3.78 1106.60-4.52L1106.60-4.52L1106.60-4.52Q1108.66-5.25 1110.55-6.44L1110.55-6.44L1112.58-2.66L1112.58-2.66Q1110.34-1.26 1107.61-0.21L1107.61-0.21L1107.61-0.21Q1104.88 0.84 1101.38 0.84ZM1090.67-19.74L1090.67-19.74L1108.87-19.74L1108.87-19.74Q1108.87-24.92 1106.67-27.62L1106.67-27.62L1106.67-27.62Q1104.46-30.31 1100.47-30.31L1100.47-30.31L1100.47-30.31Q1098.65-30.31 1097.01-29.61L1097.01-29.61L1097.01-29.61Q1095.36-28.91 1094.03-27.55L1094.03-27.55L1094.03-27.55Q1092.70-26.18 1091.83-24.22L1091.83-24.22L1091.83-24.22Q1090.95-22.26 1090.67-19.74Z" fill="#f00" stroke="#0f0" stroke-width="1.8"></path></g></g><g><g transform="translate(-310.1049928665161, 107.65499877929688)"><path d="M12.11 0L6.30 0L6.30-45.92L12.11-45.92L12.11-26.67L33.46-26.67L33.46-45.92L39.34-45.92L39.34 0L33.46 0L33.46-21.63L12.11-21.63L12.11 0ZM65.17 0.84L65.17 0.84L65.17 0.84Q61.74 0.84 58.77-0.39L58.77-0.39L58.77-0.39Q55.79-1.61 53.59-3.89L53.59-3.89L53.59-3.89Q51.38-6.16 50.12-9.45L50.12-9.45L50.12-9.45Q48.86-12.74 48.86-16.94L48.86-16.94L48.86-16.94Q48.86-21.14 50.16-24.47L50.16-24.47L50.16-24.47Q51.45-27.79 53.59-30.10L53.59-30.10L53.59-30.10Q55.72-32.41 58.45-33.64L58.45-33.64L58.45-33.64Q61.18-34.86 64.12-34.86L64.12-34.86L64.12-34.86Q67.34-34.86 69.90-33.74L69.90-33.74L69.90-33.74Q72.45-32.62 74.17-30.52L74.17-30.52L74.17-30.52Q75.88-28.42 76.79-25.48L76.79-25.48L76.79-25.48Q77.70-22.54 77.70-18.90L77.70-18.90L77.70-18.90Q77.70-17.99 77.67-17.12L77.67-17.12L77.67-17.12Q77.63-16.24 77.49-15.61L77.49-15.61L54.53-15.61L54.53-15.61Q54.88-10.15 57.93-6.97L57.93-6.97L57.93-6.97Q60.97-3.78 65.87-3.78L65.87-3.78L65.87-3.78Q68.32-3.78 70.39-4.52L70.39-4.52L70.39-4.52Q72.45-5.25 74.34-6.44L74.34-6.44L76.37-2.66L76.37-2.66Q74.13-1.26 71.40-0.21L71.40-0.21L71.40-0.21Q68.67 0.84 65.17 0.84ZM54.46-19.74L54.46-19.74L72.66-19.74L72.66-19.74Q72.66-24.92 70.46-27.62L70.46-27.62L70.46-27.62Q68.25-30.31 64.26-30.31L64.26-30.31L64.26-30.31Q62.44-30.31 60.80-29.61L60.80-29.61L60.80-29.61Q59.15-28.91 57.82-27.55L57.82-27.55L57.82-27.55Q56.49-26.18 55.62-24.22L55.62-24.22L55.62-24.22Q54.74-22.26 54.46-19.74ZM87.01 14.63L87.01 14.63L87.01 14.63Q85.82 14.63 84.84 14.46L84.84 14.46L84.84 14.46Q83.86 14.28 83.02 13.93L83.02 13.93L84.14 9.38L84.14 9.38Q84.70 9.52 85.40 9.70L85.40 9.70L85.40 9.70Q86.10 9.87 86.73 9.87L86.73 9.87L86.73 9.87Q89.67 9.87 91.53 7.81L91.53 7.81L91.53 7.81Q93.38 5.74 94.43 2.59L94.43 2.59L95.20 0.07L81.55-34.02L87.50-34.02L94.43-15.19L94.43-15.19Q95.20-12.95 96.08-10.47L96.08-10.47L96.08-10.47Q96.95-7.98 97.72-5.60L97.72-5.60L98.00-5.60L98.00-5.60Q98.77-7.91 99.47-10.43L99.47-10.43L99.47-10.43Q100.17-12.95 100.87-15.19L100.87-15.19L106.96-34.02L112.56-34.02L99.75 2.80L99.75 2.80Q98.84 5.32 97.72 7.49L97.72 7.49L97.72 7.49Q96.60 9.66 95.06 11.24L95.06 11.24L95.06 11.24Q93.52 12.81 91.56 13.72L91.56 13.72L91.56 13.72Q89.60 14.63 87.01 14.63ZM125.51-13.86L121.52-13.86L120.75-40.32L120.61-46.90L126.42-46.90L126.28-40.32L125.51-13.86ZM123.55 0.84L123.55 0.84L123.55 0.84Q121.80 0.84 120.58-0.39L120.58-0.39L120.58-0.39Q119.35-1.61 119.35-3.50L119.35-3.50L119.35-3.50Q119.35-5.53 120.58-6.76L120.58-6.76L120.58-6.76Q121.80-7.98 123.55-7.98L123.55-7.98L123.55-7.98Q125.23-7.98 126.46-6.76L126.46-6.76L126.46-6.76Q127.68-5.53 127.68-3.50L127.68-3.50L127.68-3.50Q127.68-1.61 126.46-0.39L126.46-0.39L126.46-0.39Q125.23 0.84 123.55 0.84ZM159.74 0L153.93 0L153.93-45.92L159.74-45.92L159.74 0ZM176.47-30.17L172.97-30.17L171.85-41.86L171.64-48.30L177.80-48.30L177.59-41.86L176.47-30.17ZM194.95 0L189.21 0L189.21-34.02L193.97-34.02L194.46-29.12L194.67-29.12L194.67-29.12Q196.91-31.57 199.53-33.22L199.53-33.22L199.53-33.22Q202.16-34.86 205.24-34.86L205.24-34.86L205.24-34.86Q209.16-34.86 211.37-33.15L211.37-33.15L211.37-33.15Q213.57-31.43 214.62-28.35L214.62-28.35L214.62-28.35Q217.28-31.29 219.97-33.08L219.97-33.08L219.97-33.08Q222.67-34.86 225.82-34.86L225.82-34.86L225.82-34.86Q231.07-34.86 233.63-31.50L233.63-31.50L233.63-31.50Q236.18-28.14 236.18-21.56L236.18-21.56L236.18 0L230.44 0L230.44-20.79L230.44-20.79Q230.44-25.62 228.90-27.76L228.90-27.76L228.90-27.76Q227.36-29.89 224.14-29.89L224.14-29.89L224.14-29.89Q220.29-29.89 215.60-24.64L215.60-24.64L215.60 0L209.86 0L209.86-20.79L209.86-20.79Q209.86-25.62 208.32-27.76L208.32-27.76L208.32-27.76Q206.78-29.89 203.49-29.89L203.49-29.89L203.49-29.89Q199.64-29.89 194.95-24.64L194.95-24.64L194.95 0ZM277.20 0L271.32 0L271.32-41.02L257.46-41.02L257.46-45.92L291.06-45.92L291.06-41.02L277.20-41.02L277.20 0ZM297.01 14.63L297.01 14.63L297.01 14.63Q295.82 14.63 294.84 14.46L294.84 14.46L294.84 14.46Q293.86 14.28 293.02 13.93L293.02 13.93L294.14 9.38L294.14 9.38Q294.70 9.52 295.40 9.70L295.40 9.70L295.40 9.70Q296.10 9.87 296.73 9.87L296.73 9.87L296.73 9.87Q299.67 9.87 301.52 7.81L301.52 7.81L301.52 7.81Q303.38 5.74 304.43 2.59L304.43 2.59L305.20 0.07L291.55-34.02L297.50-34.02L304.43-15.19L304.43-15.19Q305.20-12.95 306.07-10.47L306.07-10.47L306.07-10.47Q306.95-7.98 307.72-5.60L307.72-5.60L308-5.60L308-5.60Q308.77-7.91 309.47-10.43L309.47-10.43L309.47-10.43Q310.17-12.95 310.87-15.19L310.87-15.19L316.96-34.02L322.56-34.02L309.75 2.80L309.75 2.80Q308.84 5.32 307.72 7.49L307.72 7.49L307.72 7.49Q306.60 9.66 305.06 11.24L305.06 11.24L305.06 11.24Q303.52 12.81 301.56 13.72L301.56 13.72L301.56 13.72Q299.60 14.63 297.01 14.63ZM335.23 0.84L335.23 0.84L335.23 0.84Q331.94 0.84 330.54-1.12L330.54-1.12L330.54-1.12Q329.14-3.08 329.14-6.86L329.14-6.86L329.14-49.84L334.88-49.84L334.88-6.44L334.88-6.44Q334.88-5.04 335.37-4.48L335.37-4.48L335.37-4.48Q335.86-3.92 336.49-3.92L336.49-3.92L336.49-3.92Q336.77-3.92 337.01-3.92L337.01-3.92L337.01-3.92Q337.26-3.92 337.75-4.06L337.75-4.06L338.52 0.28L338.52 0.28Q337.96 0.56 337.19 0.70L337.19 0.70L337.19 0.70Q336.42 0.84 335.23 0.84ZM360.78 0.84L360.78 0.84L360.78 0.84Q357.35 0.84 354.38-0.39L354.38-0.39L354.38-0.39Q351.40-1.61 349.19-3.89L349.19-3.89L349.19-3.89Q346.99-6.16 345.73-9.45L345.73-9.45L345.73-9.45Q344.47-12.74 344.47-16.94L344.47-16.94L344.47-16.94Q344.47-21.14 345.76-24.47L345.76-24.47L345.76-24.47Q347.06-27.79 349.19-30.10L349.19-30.10L349.19-30.10Q351.33-32.41 354.06-33.64L354.06-33.64L354.06-33.64Q356.79-34.86 359.73-34.86L359.73-34.86L359.73-34.86Q362.95-34.86 365.50-33.74L365.50-33.74L365.50-33.74Q368.06-32.62 369.77-30.52L369.77-30.52L369.77-30.52Q371.49-28.42 372.40-25.48L372.40-25.48L372.40-25.48Q373.31-22.54 373.31-18.90L373.31-18.90L373.31-18.90Q373.31-17.99 373.27-17.12L373.27-17.12L373.27-17.12Q373.24-16.24 373.10-15.61L373.10-15.61L350.14-15.61L350.14-15.61Q350.49-10.15 353.54-6.97L353.54-6.97L353.54-6.97Q356.58-3.78 361.48-3.78L361.48-3.78L361.48-3.78Q363.93-3.78 366.00-4.52L366.00-4.52L366.00-4.52Q368.06-5.25 369.95-6.44L369.95-6.44L371.98-2.66L371.98-2.66Q369.74-1.26 367.01-0.21L367.01-0.21L367.01-0.21Q364.28 0.84 360.78 0.84ZM350.07-19.74L350.07-19.74L368.27-19.74L368.27-19.74Q368.27-24.92 366.06-27.62L366.06-27.62L366.06-27.62Q363.86-30.31 359.87-30.31L359.87-30.31L359.87-30.31Q358.05-30.31 356.40-29.61L356.40-29.61L356.40-29.61Q354.76-28.91 353.43-27.55L353.43-27.55L353.43-27.55Q352.10-26.18 351.23-24.22L351.23-24.22L351.23-24.22Q350.35-22.26 350.07-19.74ZM387.45 0L381.71 0L381.71-34.02L386.47-34.02L386.96-27.86L387.17-27.86L387.17-27.86Q388.92-31.08 391.41-32.97L391.41-32.97L391.41-32.97Q393.89-34.86 396.83-34.86L396.83-34.86L396.83-34.86Q398.86-34.86 400.47-34.16L400.47-34.16L399.35-29.12L399.35-29.12Q398.51-29.40 397.81-29.54L397.81-29.54L397.81-29.54Q397.11-29.68 396.06-29.68L396.06-29.68L396.06-29.68Q393.89-29.68 391.55-27.93L391.55-27.93L391.55-27.93Q389.20-26.18 387.45-21.84L387.45-21.84L387.45 0ZM433.30 0.84L433.30 0.84L433.30 0.84Q428.47 0.84 424.34-0.98L424.34-0.98L424.34-0.98Q420.21-2.80 417.20-5.95L417.20-5.95L420.70-10.01L420.70-10.01Q423.15-7.42 426.48-5.85L426.48-5.85L426.48-5.85Q429.80-4.27 433.37-4.27L433.37-4.27L433.37-4.27Q437.92-4.27 440.44-6.34L440.44-6.34L440.44-6.34Q442.96-8.40 442.96-11.76L442.96-11.76L442.96-11.76Q442.96-13.51 442.37-14.74L442.37-14.74L442.37-14.74Q441.77-15.96 440.76-16.84L440.76-16.84L440.76-16.84Q439.74-17.71 438.34-18.41L438.34-18.41L438.34-18.41Q436.94-19.11 435.33-19.88L435.33-19.88L428.75-22.75L428.75-22.75Q427.14-23.45 425.46-24.43L425.46-24.43L425.46-24.43Q423.78-25.41 422.45-26.81L422.45-26.81L422.45-26.81Q421.12-28.21 420.28-30.14L420.28-30.14L420.28-30.14Q419.44-32.06 419.44-34.58L419.44-34.58L419.44-34.58Q419.44-37.17 420.53-39.41L420.53-39.41L420.53-39.41Q421.61-41.65 423.54-43.30L423.54-43.30L423.54-43.30Q425.46-44.94 428.09-45.85L428.09-45.85L428.09-45.85Q430.71-46.76 433.86-46.76L433.86-46.76L433.86-46.76Q437.99-46.76 441.49-45.19L441.49-45.19L441.49-45.19Q444.99-43.61 447.44-41.09L447.44-41.09L444.29-37.31L444.29-37.31Q442.19-39.34 439.64-40.50L439.64-40.50L439.64-40.50Q437.08-41.65 433.86-41.65L433.86-41.65L433.86-41.65Q430.01-41.65 427.67-39.87L427.67-39.87L427.67-39.87Q425.32-38.08 425.32-34.93L425.32-34.93L425.32-34.93Q425.32-33.25 425.99-32.10L425.99-32.10L425.99-32.10Q426.65-30.94 427.77-30.07L427.77-30.07L427.77-30.07Q428.89-29.19 430.22-28.53L430.22-28.53L430.22-28.53Q431.55-27.86 432.95-27.30L432.95-27.30L439.46-24.50L439.46-24.50Q441.42-23.66 443.17-22.58L443.17-22.58L443.17-22.58Q444.92-21.49 446.18-20.06L446.18-20.06L446.18-20.06Q447.44-18.62 448.18-16.70L448.18-16.70L448.18-16.70Q448.91-14.77 448.91-12.25L448.91-12.25L448.91-12.25Q448.91-9.52 447.83-7.14L447.83-7.14L447.83-7.14Q446.74-4.76 444.71-2.98L444.71-2.98L444.71-2.98Q442.68-1.19 439.81-0.18L439.81-0.18L439.81-0.18Q436.94 0.84 433.30 0.84ZM463.12 0L457.38 0L457.38-34.02L462.14-34.02L462.63-29.12L462.84-29.12L462.84-29.12Q465.08-31.57 467.71-33.22L467.71-33.22L467.71-33.22Q470.33-34.86 473.41-34.86L473.41-34.86L473.41-34.86Q477.33-34.86 479.54-33.15L479.54-33.15L479.54-33.15Q481.74-31.43 482.79-28.35L482.79-28.35L482.79-28.35Q485.45-31.29 488.15-33.08L488.15-33.08L488.15-33.08Q490.84-34.86 493.99-34.86L493.99-34.86L493.99-34.86Q499.24-34.86 501.80-31.50L501.80-31.50L501.80-31.50Q504.35-28.14 504.35-21.56L504.35-21.56L504.35 0L498.61 0L498.61-20.79L498.61-20.79Q498.61-25.62 497.07-27.76L497.07-27.76L497.07-27.76Q495.53-29.89 492.31-29.89L492.31-29.89L492.31-29.89Q488.46-29.89 483.77-24.64L483.77-24.64L483.77 0L478.03 0L478.03-20.79L478.03-20.79Q478.03-25.62 476.49-27.76L476.49-27.76L476.49-27.76Q474.95-29.89 471.66-29.89L471.66-29.89L471.66-29.89Q467.81-29.89 463.12-24.64L463.12-24.64L463.12 0ZM521.15 0L515.41 0L515.41-34.02L521.15-34.02L521.15 0ZM518.35-41.02L518.35-41.02L518.35-41.02Q516.67-41.02 515.52-42.07L515.52-42.07L515.52-42.07Q514.36-43.12 514.36-44.73L514.36-44.73L514.36-44.73Q514.36-46.41 515.52-47.43L515.52-47.43L515.52-47.43Q516.67-48.44 518.35-48.44L518.35-48.44L518.35-48.44Q520.03-48.44 521.19-47.43L521.19-47.43L521.19-47.43Q522.34-46.41 522.34-44.73L522.34-44.73L522.34-44.73Q522.34-43.12 521.19-42.07L521.19-42.07L521.19-42.07Q520.03-41.02 518.35-41.02ZM543.34 0.84L543.34 0.84L543.34 0.84Q540.61 0.84 538.76 0L538.76 0L538.76 0Q536.90-0.84 535.75-2.31L535.75-2.31L535.75-2.31Q534.59-3.78 534.10-5.88L534.10-5.88L534.10-5.88Q533.61-7.98 533.61-10.50L533.61-10.50L533.61-29.33L528.57-29.33L528.57-33.67L533.89-34.02L534.59-43.54L539.42-43.54L539.42-34.02L548.59-34.02L548.59-29.33L539.42-29.33L539.42-10.43L539.42-10.43Q539.42-7.28 540.58-5.57L540.58-5.57L540.58-5.57Q541.73-3.85 544.67-3.85L544.67-3.85L544.67-3.85Q545.58-3.85 546.63-4.13L546.63-4.13L546.63-4.13Q547.68-4.41 548.52-4.76L548.52-4.76L549.64-0.42L549.64-0.42Q548.24 0.07 546.60 0.46L546.60 0.46L546.60 0.46Q544.95 0.84 543.34 0.84ZM562.03 0L556.29 0L556.29-49.84L562.03-49.84L562.03-36.26L561.82-29.26L561.82-29.26Q564.27-31.57 566.93-33.22L566.93-33.22L566.93-33.22Q569.59-34.86 573.16-34.86L573.16-34.86L573.16-34.86Q578.55-34.86 581.04-31.50L581.04-31.50L581.04-31.50Q583.52-28.14 583.52-21.56L583.52-21.56L583.52 0L577.78 0L577.78-20.79L577.78-20.79Q577.78-25.62 576.24-27.76L576.24-27.76L576.24-27.76Q574.70-29.89 571.34-29.89L571.34-29.89L571.34-29.89Q568.68-29.89 566.65-28.56L566.65-28.56L566.65-28.56Q564.62-27.23 562.03-24.64L562.03-24.64L562.03 0ZM621.60-15.33L605.50-15.33L605.50-19.74L621.60-19.74L621.60-15.33ZM654.85 0.84L654.85 0.84L654.85 0.84Q652.12 0.84 650.27 0L650.27 0L650.27 0Q648.41-0.84 647.26-2.31L647.26-2.31L647.26-2.31Q646.10-3.78 645.61-5.88L645.61-5.88L645.61-5.88Q645.12-7.98 645.12-10.50L645.12-10.50L645.12-29.33L640.08-29.33L640.08-33.67L645.40-34.02L646.10-43.54L650.93-43.54L650.93-34.02L660.10-34.02L660.10-29.33L650.93-29.33L650.93-10.43L650.93-10.43Q650.93-7.28 652.09-5.57L652.09-5.57L652.09-5.57Q653.24-3.85 656.18-3.85L656.18-3.85L656.18-3.85Q657.09-3.85 658.14-4.13L658.14-4.13L658.14-4.13Q659.19-4.41 660.03-4.76L660.03-4.76L661.15-0.42L661.15-0.42Q659.75 0.07 658.11 0.46L658.11 0.46L658.11 0.46Q656.46 0.84 654.85 0.84ZM673.54 0L667.80 0L667.80-49.84L673.54-49.84L673.54-36.26L673.33-29.26L673.33-29.26Q675.78-31.57 678.44-33.22L678.44-33.22L678.44-33.22Q681.10-34.86 684.67-34.86L684.67-34.86L684.67-34.86Q690.06-34.86 692.55-31.50L692.55-31.50L692.55-31.50Q695.03-28.14 695.03-21.56L695.03-21.56L695.03 0L689.29 0L689.29-20.79L689.29-20.79Q689.29-25.62 687.75-27.76L687.75-27.76L687.75-27.76Q686.21-29.89 682.85-29.89L682.85-29.89L682.85-29.89Q680.19-29.89 678.16-28.56L678.16-28.56L678.16-28.56Q676.13-27.23 673.54-24.64L673.54-24.64L673.54 0ZM711.62 0L705.88 0L705.88-34.02L711.62-34.02L711.62 0ZM708.82-41.02L708.82-41.02L708.82-41.02Q707.14-41.02 705.99-42.07L705.99-42.07L705.99-42.07Q704.83-43.12 704.83-44.73L704.83-44.73L704.83-44.73Q704.83-46.41 705.99-47.43L705.99-47.43L705.99-47.43Q707.14-48.44 708.82-48.44L708.82-48.44L708.82-48.44Q710.50-48.44 711.66-47.43L711.66-47.43L711.66-47.43Q712.81-46.41 712.81-44.73L712.81-44.73L712.81-44.73Q712.81-43.12 711.66-42.07L711.66-42.07L711.66-42.07Q710.50-41.02 708.82-41.02ZM731.99 0.84L731.99 0.84L731.99 0.84Q728.35 0.84 725.06-0.49L725.06-0.49L725.06-0.49Q721.77-1.82 719.32-3.85L719.32-3.85L722.19-7.70L722.19-7.70Q724.43-5.88 726.78-4.76L726.78-4.76L726.78-4.76Q729.12-3.64 732.20-3.64L732.20-3.64L732.20-3.64Q735.56-3.64 737.24-5.18L737.24-5.18L737.24-5.18Q738.92-6.72 738.92-8.96L738.92-8.96L738.92-8.96Q738.92-10.29 738.22-11.27L738.22-11.27L738.22-11.27Q737.52-12.25 736.44-12.99L736.44-12.99L736.44-12.99Q735.35-13.72 733.95-14.28L733.95-14.28L733.95-14.28Q732.55-14.84 731.15-15.40L731.15-15.40L731.15-15.40Q729.33-16.03 727.51-16.84L727.51-16.84L727.51-16.84Q725.69-17.64 724.26-18.80L724.26-18.80L724.26-18.80Q722.82-19.95 721.91-21.49L721.91-21.49L721.91-21.49Q721.00-23.03 721.00-25.20L721.00-25.20L721.00-25.20Q721.00-27.23 721.81-29.02L721.81-29.02L721.81-29.02Q722.61-30.80 724.12-32.10L724.12-32.10L724.12-32.10Q725.62-33.39 727.79-34.13L727.79-34.13L727.79-34.13Q729.96-34.86 732.69-34.86L732.69-34.86L732.69-34.86Q735.91-34.86 738.61-33.74L738.61-33.74L738.61-33.74Q741.30-32.62 743.26-31.01L743.26-31.01L740.53-27.37L740.53-27.37Q738.78-28.70 736.89-29.54L736.89-29.54L736.89-29.54Q735.00-30.38 732.76-30.38L732.76-30.38L732.76-30.38Q729.54-30.38 728.04-28.91L728.04-28.91L728.04-28.91Q726.53-27.44 726.53-25.48L726.53-25.48L726.53-25.48Q726.53-24.29 727.16-23.42L727.16-23.42L727.16-23.42Q727.79-22.54 728.84-21.88L728.84-21.88L728.84-21.88Q729.89-21.21 731.26-20.69L731.26-20.69L731.26-20.69Q732.62-20.16 734.09-19.60L734.09-19.60L734.09-19.60Q735.91-18.90 737.77-18.13L737.77-18.13L737.77-18.13Q739.62-17.36 741.09-16.21L741.09-16.21L741.09-16.21Q742.56-15.05 743.51-13.37L743.51-13.37L743.51-13.37Q744.45-11.69 744.45-9.31L744.45-9.31L744.45-9.31Q744.45-7.21 743.65-5.39L743.65-5.39L743.65-5.39Q742.84-3.57 741.27-2.17L741.27-2.17L741.27-2.17Q739.69-0.77 737.35 0.04L737.35 0.04L737.35 0.04Q735.00 0.84 731.99 0.84ZM772.17 0L766.43 0L766.43-34.02L772.17-34.02L772.17 0ZM769.37-41.02L769.37-41.02L769.37-41.02Q767.69-41.02 766.54-42.07L766.54-42.07L766.54-42.07Q765.38-43.12 765.38-44.73L765.38-44.73L765.38-44.73Q765.38-46.41 766.54-47.43L766.54-47.43L766.54-47.43Q767.69-48.44 769.37-48.44L769.37-48.44L769.37-48.44Q771.05-48.44 772.21-47.43L772.21-47.43L772.21-47.43Q773.36-46.41 773.36-44.73L773.36-44.73L773.36-44.73Q773.36-43.12 772.21-42.07L772.21-42.07L772.21-42.07Q771.05-41.02 769.37-41.02ZM792.54 0.84L792.54 0.84L792.54 0.84Q788.90 0.84 785.61-0.49L785.61-0.49L785.61-0.49Q782.32-1.82 779.87-3.85L779.87-3.85L782.74-7.70L782.74-7.70Q784.98-5.88 787.33-4.76L787.33-4.76L787.33-4.76Q789.67-3.64 792.75-3.64L792.75-3.64L792.75-3.64Q796.11-3.64 797.79-5.18L797.79-5.18L797.79-5.18Q799.47-6.72 799.47-8.96L799.47-8.96L799.47-8.96Q799.47-10.29 798.77-11.27L798.77-11.27L798.77-11.27Q798.07-12.25 796.99-12.99L796.99-12.99L796.99-12.99Q795.90-13.72 794.50-14.28L794.50-14.28L794.50-14.28Q793.10-14.84 791.70-15.40L791.70-15.40L791.70-15.40Q789.88-16.03 788.06-16.84L788.06-16.84L788.06-16.84Q786.24-17.64 784.81-18.80L784.81-18.80L784.81-18.80Q783.37-19.95 782.46-21.49L782.46-21.49L782.46-21.49Q781.55-23.03 781.55-25.20L781.55-25.20L781.55-25.20Q781.55-27.23 782.36-29.02L782.36-29.02L782.36-29.02Q783.16-30.80 784.67-32.10L784.67-32.10L784.67-32.10Q786.17-33.39 788.34-34.13L788.34-34.13L788.34-34.13Q790.51-34.86 793.24-34.86L793.24-34.86L793.24-34.86Q796.46-34.86 799.16-33.74L799.16-33.74L799.16-33.74Q801.85-32.62 803.81-31.01L803.81-31.01L801.08-27.37L801.08-27.37Q799.33-28.70 797.44-29.54L797.44-29.54L797.44-29.54Q795.55-30.38 793.31-30.38L793.31-30.38L793.31-30.38Q790.09-30.38 788.59-28.91L788.59-28.91L788.59-28.91Q787.08-27.44 787.08-25.48L787.08-25.48L787.08-25.48Q787.08-24.29 787.71-23.42L787.71-23.42L787.71-23.42Q788.34-22.54 789.39-21.88L789.39-21.88L789.39-21.88Q790.44-21.21 791.81-20.69L791.81-20.69L791.81-20.69Q793.17-20.16 794.64-19.60L794.64-19.60L794.64-19.60Q796.46-18.90 798.32-18.13L798.32-18.13L798.32-18.13Q800.17-17.36 801.64-16.21L801.64-16.21L801.64-16.21Q803.11-15.05 804.06-13.37L804.06-13.37L804.06-13.37Q805.00-11.69 805.00-9.31L805.00-9.31L805.00-9.31Q805.00-7.21 804.20-5.39L804.20-5.39L804.20-5.39Q803.39-3.57 801.82-2.17L801.82-2.17L801.82-2.17Q800.24-0.77 797.90 0.04L797.90 0.04L797.90 0.04Q795.55 0.84 792.54 0.84ZM832.72 0L826.98 0L826.98-34.02L831.74-34.02L832.23-29.12L832.44-29.12L832.44-29.12Q834.68-31.57 837.31-33.22L837.31-33.22L837.31-33.22Q839.93-34.86 843.01-34.86L843.01-34.86L843.01-34.86Q846.93-34.86 849.14-33.15L849.14-33.15L849.14-33.15Q851.34-31.43 852.39-28.35L852.39-28.35L852.39-28.35Q855.05-31.29 857.75-33.08L857.75-33.08L857.75-33.08Q860.44-34.86 863.59-34.86L863.59-34.86L863.59-34.86Q868.84-34.86 871.40-31.50L871.40-31.50L871.40-31.50Q873.95-28.14 873.95-21.56L873.95-21.56L873.95 0L868.21 0L868.21-20.79L868.21-20.79Q868.21-25.62 866.67-27.76L866.67-27.76L866.67-27.76Q865.13-29.89 861.91-29.89L861.91-29.89L861.91-29.89Q858.06-29.89 853.37-24.64L853.37-24.64L853.37 0L847.63 0L847.63-20.79L847.63-20.79Q847.63-25.62 846.09-27.76L846.09-27.76L846.09-27.76Q844.55-29.89 841.26-29.89L841.26-29.89L841.26-29.89Q837.41-29.89 832.72-24.64L832.72-24.64L832.72 0ZM885.57 14.63L885.57 14.63L885.57 14.63Q884.38 14.63 883.40 14.46L883.40 14.46L883.40 14.46Q882.42 14.28 881.58 13.93L881.58 13.93L882.70 9.38L882.70 9.38Q883.26 9.52 883.96 9.70L883.96 9.70L883.96 9.70Q884.66 9.87 885.29 9.87L885.29 9.87L885.29 9.87Q888.23 9.87 890.09 7.81L890.09 7.81L890.09 7.81Q891.94 5.74 892.99 2.59L892.99 2.59L893.76 0.07L880.11-34.02L886.06-34.02L892.99-15.19L892.99-15.19Q893.76-12.95 894.64-10.47L894.64-10.47L894.64-10.47Q895.51-7.98 896.28-5.60L896.28-5.60L896.56-5.60L896.56-5.60Q897.33-7.91 898.03-10.43L898.03-10.43L898.03-10.43Q898.73-12.95 899.43-15.19L899.43-15.19L905.52-34.02L911.12-34.02L898.31 2.80L898.31 2.80Q897.40 5.32 896.28 7.49L896.28 7.49L896.28 7.49Q895.16 9.66 893.62 11.24L893.62 11.24L893.62 11.24Q892.08 12.81 890.12 13.72L890.12 13.72L890.12 13.72Q888.16 14.63 885.57 14.63ZM937.44 14.35L931.70 14.35L931.70-34.02L936.46-34.02L936.95-30.10L937.16-30.10L937.16-30.10Q939.47-32.06 942.24-33.46L942.24-33.46L942.24-33.46Q945.00-34.86 948.01-34.86L948.01-34.86L948.01-34.86Q951.30-34.86 953.82-33.64L953.82-33.64L953.82-33.64Q956.34-32.41 958.02-30.14L958.02-30.14L958.02-30.14Q959.70-27.86 960.58-24.68L960.58-24.68L960.58-24.68Q961.45-21.49 961.45-17.50L961.45-17.50L961.45-17.50Q961.45-13.16 960.26-9.77L960.26-9.77L960.26-9.77Q959.07-6.37 957.04-3.99L957.04-3.99L957.04-3.99Q955.01-1.61 952.35-0.39L952.35-0.39L952.35-0.39Q949.69 0.84 946.75 0.84L946.75 0.84L946.75 0.84Q944.37 0.84 942.03-0.21L942.03-0.21L942.03-0.21Q939.68-1.26 937.30-3.08L937.30-3.08L937.44 2.87L937.44 14.35ZM945.77-3.99L945.77-3.99L945.77-3.99Q947.87-3.99 949.66-4.94L949.66-4.94L949.66-4.94Q951.44-5.88 952.74-7.60L952.74-7.60L952.74-7.60Q954.03-9.31 954.77-11.83L954.77-11.83L954.77-11.83Q955.50-14.35 955.50-17.50L955.50-17.50L955.50-17.50Q955.50-20.30 955.01-22.61L955.01-22.61L955.01-22.61Q954.52-24.92 953.44-26.57L953.44-26.57L953.44-26.57Q952.35-28.21 950.64-29.12L950.64-29.12L950.64-29.12Q948.92-30.03 946.54-30.03L946.54-30.03L946.54-30.03Q944.37-30.03 942.17-28.84L942.17-28.84L942.17-28.84Q939.96-27.65 937.44-25.41L937.44-25.41L937.44-7.56L937.44-7.56Q939.75-5.60 941.92-4.80L941.92-4.80L941.92-4.80Q944.09-3.99 945.77-3.99ZM976.29 0L970.55 0L970.55-34.02L975.31-34.02L975.80-27.86L976.01-27.86L976.01-27.86Q977.76-31.08 980.25-32.97L980.25-32.97L980.25-32.97Q982.73-34.86 985.67-34.86L985.67-34.86L985.67-34.86Q987.70-34.86 989.31-34.16L989.31-34.16L988.19-29.12L988.19-29.12Q987.35-29.40 986.65-29.54L986.65-29.54L986.65-29.54Q985.95-29.68 984.90-29.68L984.90-29.68L984.90-29.68Q982.73-29.68 980.39-27.93L980.39-27.93L980.39-27.93Q978.04-26.18 976.29-21.84L976.29-21.84L976.29 0ZM1007.37 0.84L1007.37 0.84L1007.37 0.84Q1004.22 0.84 1001.39-0.35L1001.39-0.35L1001.39-0.35Q998.55-1.54 996.38-3.82L996.38-3.82L996.38-3.82Q994.21-6.09 992.92-9.42L992.92-9.42L992.92-9.42Q991.62-12.74 991.62-16.94L991.62-16.94L991.62-16.94Q991.62-21.21 992.92-24.54L992.92-24.54L992.92-24.54Q994.21-27.86 996.38-30.17L996.38-30.17L996.38-30.17Q998.55-32.48 1001.39-33.67L1001.39-33.67L1001.39-33.67Q1004.22-34.86 1007.37-34.86L1007.37-34.86L1007.37-34.86Q1010.52-34.86 1013.36-33.67L1013.36-33.67L1013.36-33.67Q1016.19-32.48 1018.36-30.17L1018.36-30.17L1018.36-30.17Q1020.53-27.86 1021.83-24.54L1021.83-24.54L1021.83-24.54Q1023.12-21.21 1023.12-16.94L1023.12-16.94L1023.12-16.94Q1023.12-12.74 1021.83-9.42L1021.83-9.42L1021.83-9.42Q1020.53-6.09 1018.36-3.82L1018.36-3.82L1018.36-3.82Q1016.19-1.54 1013.36-0.35L1013.36-0.35L1013.36-0.35Q1010.52 0.84 1007.37 0.84ZM1007.37-3.92L1007.37-3.92L1007.37-3.92Q1009.54-3.92 1011.36-4.87L1011.36-4.87L1011.36-4.87Q1013.18-5.81 1014.48-7.53L1014.48-7.53L1014.48-7.53Q1015.77-9.24 1016.47-11.62L1016.47-11.62L1016.47-11.62Q1017.17-14.00 1017.17-16.94L1017.17-16.94L1017.17-16.94Q1017.17-19.88 1016.47-22.30L1016.47-22.30L1016.47-22.30Q1015.77-24.71 1014.48-26.46L1014.48-26.46L1014.48-26.46Q1013.18-28.21 1011.36-29.16L1011.36-29.16L1011.36-29.16Q1009.54-30.10 1007.37-30.10L1007.37-30.10L1007.37-30.10Q1005.20-30.10 1003.38-29.16L1003.38-29.16L1003.38-29.16Q1001.56-28.21 1000.27-26.46L1000.27-26.46L1000.27-26.46Q998.97-24.71 998.27-22.30L998.27-22.30L998.27-22.30Q997.57-19.88 997.57-16.94L997.57-16.94L997.57-16.94Q997.57-14.00 998.27-11.62L998.27-11.62L998.27-11.62Q998.97-9.24 1000.27-7.53L1000.27-7.53L1000.27-7.53Q1001.56-5.81 1003.38-4.87L1003.38-4.87L1003.38-4.87Q1005.20-3.92 1007.37-3.92ZM1038.80 0L1033.06 0L1033.06-29.33L1028.44-29.33L1028.44-33.67L1033.06-34.02L1033.06-39.41L1033.06-39.41Q1033.06-44.66 1035.48-47.67L1035.48-47.67L1035.48-47.67Q1037.89-50.68 1043.00-50.68L1043.00-50.68L1043.00-50.68Q1044.61-50.68 1046.05-50.37L1046.05-50.37L1046.05-50.37Q1047.48-50.05 1048.67-49.56L1048.67-49.56L1047.41-45.15L1047.41-45.15Q1045.52-45.99 1043.56-45.99L1043.56-45.99L1043.56-45.99Q1038.80-45.99 1038.80-39.41L1038.80-39.41L1038.80-34.02L1046.01-34.02L1046.01-29.33L1038.80-29.33L1038.80 0ZM1058.26 0L1052.52 0L1052.52-34.02L1058.26-34.02L1058.26 0ZM1055.46-41.02L1055.46-41.02L1055.46-41.02Q1053.78-41.02 1052.63-42.07L1052.63-42.07L1052.63-42.07Q1051.47-43.12 1051.47-44.73L1051.47-44.73L1051.47-44.73Q1051.47-46.41 1052.63-47.43L1052.63-47.43L1052.63-47.43Q1053.78-48.44 1055.46-48.44L1055.46-48.44L1055.46-48.44Q1057.14-48.44 1058.30-47.43L1058.30-47.43L1058.30-47.43Q1059.45-46.41 1059.45-44.73L1059.45-44.73L1059.45-44.73Q1059.45-43.12 1058.30-42.07L1058.30-42.07L1058.30-42.07Q1057.14-41.02 1055.46-41.02ZM1075.83 0.84L1075.83 0.84L1075.83 0.84Q1072.54 0.84 1071.14-1.12L1071.14-1.12L1071.14-1.12Q1069.74-3.08 1069.74-6.86L1069.74-6.86L1069.74-49.84L1075.48-49.84L1075.48-6.44L1075.48-6.44Q1075.48-5.04 1075.97-4.48L1075.97-4.48L1075.97-4.48Q1076.46-3.92 1077.09-3.92L1077.09-3.92L1077.09-3.92Q1077.37-3.92 1077.62-3.92L1077.62-3.92L1077.62-3.92Q1077.86-3.92 1078.35-4.06L1078.35-4.06L1079.12 0.28L1079.12 0.28Q1078.56 0.56 1077.79 0.70L1077.79 0.70L1077.79 0.70Q1077.02 0.84 1075.83 0.84ZM1101.38 0.84L1101.38 0.84L1101.38 0.84Q1097.95 0.84 1094.98-0.39L1094.98-0.39L1094.98-0.39Q1092.00-1.61 1089.80-3.89L1089.80-3.89L1089.80-3.89Q1087.59-6.16 1086.33-9.45L1086.33-9.45L1086.33-9.45Q1085.07-12.74 1085.07-16.94L1085.07-16.94L1085.07-16.94Q1085.07-21.14 1086.37-24.47L1086.37-24.47L1086.37-24.47Q1087.66-27.79 1089.80-30.10L1089.80-30.10L1089.80-30.10Q1091.93-32.41 1094.66-33.64L1094.66-33.64L1094.66-33.64Q1097.39-34.86 1100.33-34.86L1100.33-34.86L1100.33-34.86Q1103.55-34.86 1106.11-33.74L1106.11-33.74L1106.11-33.74Q1108.66-32.62 1110.38-30.52L1110.38-30.52L1110.38-30.52Q1112.09-28.42 1113.00-25.48L1113.00-25.48L1113.00-25.48Q1113.91-22.54 1113.91-18.90L1113.91-18.90L1113.91-18.90Q1113.91-17.99 1113.88-17.12L1113.88-17.12L1113.88-17.12Q1113.84-16.24 1113.70-15.61L1113.70-15.61L1090.74-15.61L1090.74-15.61Q1091.09-10.15 1094.14-6.97L1094.14-6.97L1094.14-6.97Q1097.18-3.78 1102.08-3.78L1102.08-3.78L1102.08-3.78Q1104.53-3.78 1106.60-4.52L1106.60-4.52L1106.60-4.52Q1108.66-5.25 1110.55-6.44L1110.55-6.44L1112.58-2.66L1112.58-2.66Q1110.34-1.26 1107.61-0.21L1107.61-0.21L1107.61-0.21Q1104.88 0.84 1101.38 0.84ZM1090.67-19.74L1090.67-19.74L1108.87-19.74L1108.87-19.74Q1108.87-24.92 1106.67-27.62L1106.67-27.62L1106.67-27.62Q1104.46-30.31 1100.47-30.31L1100.47-30.31L1100.47-30.31Q1098.65-30.31 1097.01-29.61L1097.01-29.61L1097.01-29.61Q1095.36-28.91 1094.03-27.55L1094.03-27.55L1094.03-27.55Q1092.70-26.18 1091.83-24.22L1091.83-24.22L1091.83-24.22Q1090.95-22.26 1090.67-19.74Z" fill="none" stroke="#486edb" stroke-width="2.1"></path></g></g></g><style>text {
  font-size: 64px;
  font-family: Arial Black;
  dominant-baseline: central;
  text-anchor: middle;
}</style></svg>