<svg width="1231.1012451171875px" height="95.607470703125px" xmlns="http://www.w3.org/2000/svg" viewBox="-365.5506225585938 27.1962646484375 1231.1012451171875 95.607470703125" style="background: rgba(0, 0, 0, 0);" preserveAspectRatio="xMidYMid"><defs><filter id="editing-hole" x="-100%" y="-100%" width="300%" height="300%"><feFlood flood-color="#007aff" result="black"></feFlood><feMorphology operator="dilate" radius="2" in="SourceGraphic" result="erode"></feMorphology><feGaussianBlur in="erode" stdDeviation="4" result="blur"></feGaussianBlur><feOffset in="blur" dx="2" dy="2" result="offset"></feOffset><feComposite operator="atop" in="offset" in2="black" result="merge"></feComposite><feComposite operator="in" in="merge" in2="SourceGraphic" result="inner-shadow"></feComposite></filter></defs><g filter="url(#editing-hole)"><g transform="translate(-195.05657106637955, 97.34500122070312)"><path d="M18.72-3.60L18.72-3.60L18.72-3.60Q18.72-6.96 20.06-13.68L20.06-13.68L12.96-13.68L10.32 0L0.29 0L6.38-31.68L16.51-31.68L13.73-17.52L20.83-17.52L23.47-31.68L33.60-31.68L33.60-31.68Q32.93-28.13 32.06-24.14L32.06-24.14L30.43-16.32L30.43-16.32Q28.61-7.20 28.61-3.22L28.61-3.22L28.61-3.22Q28.61-1.58 29.14-0.67L29.14-0.67L29.14-0.67Q26.74 0.96 23.93 0.96L23.93 0.96L23.93 0.96Q21.12 0.96 19.92-0.38L19.92-0.38L19.92-0.38Q18.72-1.73 18.72-3.60ZM54.19-8.11L54.19-8.11L54.19-8.11Q55.39-7.30 55.39-5.50L55.39-5.50L55.39-5.50Q55.39-3.70 54.48-2.54L54.48-2.54L54.48-2.54Q53.57-1.39 52.08-0.62L52.08-0.62L52.08-0.62Q49.01 0.96 45.70 0.96L45.70 0.96L45.70 0.96Q42.38 0.96 40.44 0.24L40.44 0.24L40.44 0.24Q38.50-0.48 37.20-1.82L37.20-1.82L37.20-1.82Q34.66-4.37 34.66-9.02L34.66-9.02L34.66-9.02Q34.66-16.27 38.59-20.69L38.59-20.69L38.59-20.69Q42.82-25.44 50.16-25.44L50.16-25.44L50.16-25.44Q54.72-25.44 56.98-23.52L56.98-23.52L56.98-23.52Q58.66-22.08 58.66-19.73L58.66-19.73L58.66-19.73Q58.66-11.28 44.06-11.28L44.06-11.28L44.06-11.28Q43.87-10.03 43.87-8.98L43.87-8.98L43.87-8.98Q43.87-6.77 44.86-5.93L44.86-5.93L44.86-5.93Q45.84-5.09 47.66-5.09L47.66-5.09L47.66-5.09Q49.49-5.09 51.43-5.93L51.43-5.93L51.43-5.93Q53.38-6.77 54.19-8.11ZM44.40-13.34L44.40-13.34L44.40-13.34Q47.81-13.34 49.78-15.46L49.78-15.46L49.78-15.46Q51.74-17.47 51.74-20.69L51.74-20.69L51.74-20.69Q51.74-21.79 51.34-22.39L51.34-22.39L51.34-22.39Q50.93-22.99 50.11-22.99L50.11-22.99L50.11-22.99Q49.30-22.99 48.60-22.68L48.60-22.68L48.60-22.68Q47.90-22.37 47.18-21.31L47.18-21.31L47.18-21.31Q45.41-18.91 44.40-13.34ZM75.55-5.42L75.55-5.42L75.55-5.42Q73.06-2.83 68.50-2.83L68.50-2.83L68.50-2.83Q62.78-2.83 61.58-7.01L61.58-7.01L61.58-7.01Q61.20-8.26 61.20-9.65L61.20-9.65L61.20-9.65Q61.20-11.04 61.49-12.48L61.49-12.48L63.74-24.48L73.49-25.44L70.85-11.47L70.85-11.47Q70.75-10.85 70.61-10.18L70.61-10.18L70.61-10.18Q70.46-9.50 70.46-8.81L70.46-8.81L70.46-8.81Q70.46-8.11 70.70-7.66L70.70-7.66L70.70-7.66Q70.94-7.20 71.28-6.91L71.28-6.91L71.28-6.91Q71.86-6.53 72.89-6.53L72.89-6.53L72.89-6.53Q73.92-6.53 74.81-7.78L74.81-7.78L74.81-7.78Q75.70-9.02 76.13-11.18L76.13-11.18L78.77-24.48L88.22-25.44L84.62-6.58L84.62-6.58Q82.85 2.64 79.20 6.29L79.20 6.29L79.20 6.29Q77.33 8.16 74.90 8.90L74.90 8.90L74.90 8.90Q72.48 9.65 69.36 9.65L69.36 9.65L69.36 9.65Q64.32 9.65 61.44 8.06L61.44 8.06L61.44 8.06Q58.56 6.48 58.56 3.84L58.56 3.84L58.56 3.84Q58.56 1.87 60.05 0.74L60.05 0.74L60.05 0.74Q61.54-0.38 63.84-0.38L63.84-0.38L63.84-0.38Q65.86-0.38 67.39 0.48L67.39 0.48L67.39 0.48Q68.30 1.01 68.74 1.68L68.74 1.68L68.74 1.68Q67.63 2.64 67.63 4.22L67.63 4.22L67.63 4.22Q67.63 6.34 69.55 6.34L69.55 6.34L69.55 6.34Q72.72 6.34 74.54-0.96L74.54-0.96L74.54-0.96Q75.07-3.12 75.55-5.42ZM88.66-2.83L88.66-2.83L88.66-2.83Q88.66-4.66 90.02-5.64L90.02-5.64L90.02-5.64Q91.39-6.62 93.41-6.62L93.41-6.62L93.41-6.62Q95.42-6.62 96.70-5.64L96.70-5.64L96.70-5.64Q97.97-4.66 97.97-2.83L97.97-2.83L97.97-2.83Q97.97-1.01 96.55 0L96.55 0L96.55 0Q95.14 1.01 93.12 1.01L93.12 1.01L93.12 1.01Q91.10 1.01 89.88 0L89.88 0L89.88 0Q88.66-1.01 88.66-2.83ZM91.25-11.86L91.25-11.86L91.25-11.86Q91.25-12.19 91.34-12.67L91.34-12.67L95.09-31.97L95.09-31.97Q96.86-32.64 98.98-32.64L98.98-32.64L98.98-32.64Q101.09-32.64 102.19-31.30L102.19-31.30L102.19-31.30Q103.30-29.95 103.30-27.96L103.30-27.96L103.30-27.96Q103.30-25.97 102.53-23.74L102.53-23.74L102.53-23.74Q101.76-21.50 100.82-19.25L100.82-19.25L100.82-19.25Q99.89-16.99 99.10-14.66L99.10-14.66L99.10-14.66Q98.30-12.34 98.26-9.89L98.26-9.89L98.26-9.89Q97.15-8.64 95.23-8.64L95.23-8.64L95.23-8.64Q93.31-8.64 92.28-9.53L92.28-9.53L92.28-9.53Q91.25-10.42 91.25-11.86ZM123.70 0L113.23 0L119.33-31.68L129.89-31.68L123.70 0ZM138.38-22.13L133.30-22.13L133.30-22.13Q135.07-28.27 135.17-34.75L135.17-34.75L136.56-34.94L136.56-34.94Q137.28-35.04 137.81-35.04L137.81-35.04L137.81-35.04Q139.92-35.04 141.07-34.01L141.07-34.01L141.07-34.01Q142.22-32.98 142.22-31.15L142.22-31.15L142.22-31.15Q142.22-29.23 141.36-27.12L141.36-27.12L141.36-27.12Q139.82-23.38 138.38-22.13L138.38-22.13ZM176.59 0.96L176.59 0.96L176.59 0.96Q170.78 0.96 170.78-3.55L170.78-3.55L170.78-3.55Q170.78-5.52 171.62-9.34L171.62-9.34L171.62-9.34Q172.46-13.15 172.75-14.69L172.75-14.69L172.75-14.69Q173.42-18.19 173.42-19.30L173.42-19.30L173.42-19.30Q173.42-21.74 171.60-21.74L171.60-21.74L171.60-21.74Q170.40-21.74 169.25-20.09L169.25-20.09L169.25-20.09Q168.10-18.43 167.57-15.12L167.57-15.12L164.59 0L155.23 0.96L157.82-12.10L157.82-12.10Q158.26-14.26 158.64-16.70L158.64-16.70L158.64-16.70Q159.02-19.15 159.02-19.54L159.02-19.54L159.02-19.54Q159.02-21.74 157.39-21.74L157.39-21.74L157.39-21.74Q156.29-21.74 155.09-20.11L155.09-20.11L155.09-20.11Q153.89-18.48 153.22-15.12L153.22-15.12L150.29 0L140.83 0.96L145.87-24.48L153.70-25.44L152.88-20.59L152.88-20.59Q154.13-23.18 156.43-24.31L156.43-24.31L156.43-24.31Q158.74-25.44 162.34-25.44L162.34-25.44L162.34-25.44Q164.40-25.44 165.74-24.43L165.74-24.43L165.74-24.43Q167.09-23.42 167.52-21.79L167.52-21.79L167.52-21.79Q168.34-23.47 170.42-24.46L170.42-24.46L170.42-24.46Q172.51-25.44 175.08-25.44L175.08-25.44L175.08-25.44Q177.65-25.44 178.92-24.89L178.92-24.89L178.92-24.89Q180.19-24.34 180.96-23.42L180.96-23.42L180.96-23.42Q182.26-21.74 182.26-18.67L182.26-18.67L182.26-18.67Q182.26-15.65 180.96-9.36L180.96-9.36L180.96-9.36Q180.29-6.29 180.29-5.16L180.29-5.16L180.29-5.16Q180.29-4.03 180.94-3.36L180.94-3.36L180.94-3.36Q181.58-2.69 182.54-2.59L182.54-2.59L182.54-2.59Q182.06-0.96 180.41 0L180.41 0L180.41 0Q178.75 0.96 176.59 0.96ZM199.97-23.38L199.97-23.38L199.97-23.38Q198.34-24.62 198.34-27.29L198.34-27.29L198.34-27.29Q198.34-29.95 200.09-31.34L200.09-31.34L200.09-31.34Q201.84-32.74 204.86-32.74L204.86-32.74L204.86-32.74Q206.78-32.74 211.34-32.06L211.34-32.06L214.61-31.58L214.61-31.58Q216.24-31.39 217.94-31.39L217.94-31.39L217.94-31.39Q219.65-31.39 220.80-32.11L220.80-32.11L220.80-32.11Q222.53-30.58 222.53-28.37L222.53-28.37L222.53-28.37Q222.53-26.16 220.56-24.58L220.56-24.58L220.56-24.58Q218.54-22.90 215.95-22.90L215.95-22.90L215.95-22.90Q214.70-22.90 212.69-23.23L212.69-23.23L212.69-23.23Q210.34-15.84 210.34-10.70L210.34-10.70L210.34-10.70Q210.34-5.57 212.93-2.88L212.93-2.88L212.93-2.88Q211.73-0.72 209.95 0.12L209.95 0.12L209.95 0.12Q208.18 0.96 205.51 0.96L205.51 0.96L205.51 0.96Q202.85 0.96 201.19-0.50L201.19-0.50L201.19-0.50Q199.54-1.97 199.54-4.99L199.54-4.99L199.54-4.99Q199.54-8.50 201.46-14.26L201.46-14.26L201.46-14.26Q203.38-19.97 206.26-24.34L206.26-24.34L206.26-24.34Q204.86-24.48 203.42-24.48L203.42-24.48L203.42-24.48Q200.45-24.48 199.97-23.38ZM235.97-5.42L235.97-5.42L235.97-5.42Q233.47-2.83 228.91-2.83L228.91-2.83L228.91-2.83Q223.20-2.83 222-7.01L222-7.01L222-7.01Q221.62-8.26 221.62-9.65L221.62-9.65L221.62-9.65Q221.62-11.04 221.90-12.48L221.90-12.48L224.16-24.48L233.90-25.44L231.26-11.47L231.26-11.47Q231.17-10.85 231.02-10.18L231.02-10.18L231.02-10.18Q230.88-9.50 230.88-8.81L230.88-8.81L230.88-8.81Q230.88-8.11 231.12-7.66L231.12-7.66L231.12-7.66Q231.36-7.20 231.70-6.91L231.70-6.91L231.70-6.91Q232.27-6.53 233.30-6.53L233.30-6.53L233.30-6.53Q234.34-6.53 235.22-7.78L235.22-7.78L235.22-7.78Q236.11-9.02 236.54-11.18L236.54-11.18L239.18-24.48L248.64-25.44L245.04-6.58L245.04-6.58Q243.26 2.64 239.62 6.29L239.62 6.29L239.62 6.29Q237.74 8.16 235.32 8.90L235.32 8.90L235.32 8.90Q232.90 9.65 229.78 9.65L229.78 9.65L229.78 9.65Q224.74 9.65 221.86 8.06L221.86 8.06L221.86 8.06Q218.98 6.48 218.98 3.84L218.98 3.84L218.98 3.84Q218.98 1.87 220.46 0.74L220.46 0.74L220.46 0.74Q221.95-0.38 224.26-0.38L224.26-0.38L224.26-0.38Q226.27-0.38 227.81 0.48L227.81 0.48L227.81 0.48Q228.72 1.01 229.15 1.68L229.15 1.68L229.15 1.68Q228.05 2.64 228.05 4.22L228.05 4.22L228.05 4.22Q228.05 6.34 229.97 6.34L229.97 6.34L229.97 6.34Q233.14 6.34 234.96-0.96L234.96-0.96L234.96-0.96Q235.49-3.12 235.97-5.42ZM261.84-2.64L261.84-2.64L261.84-2.64Q260.35 0.96 255.60 0.96L255.60 0.96L255.60 0.96Q253.20 0.96 251.66-0.72L251.66-0.72L251.66-0.72Q250.42-2.11 250.42-3.70L250.42-3.70L250.42-3.70Q250.42-7.30 252.10-15.17L252.10-15.17L255.60-33.60L265.34-34.56L260.69-10.27L260.69-10.27Q259.87-6.72 259.87-5.47L259.87-5.47L259.87-5.47Q259.87-2.74 261.84-2.64ZM285.36-8.11L285.36-8.11L285.36-8.11Q286.56-7.30 286.56-5.50L286.56-5.50L286.56-5.50Q286.56-3.70 285.65-2.54L285.65-2.54L285.65-2.54Q284.74-1.39 283.25-0.62L283.25-0.62L283.25-0.62Q280.18 0.96 276.86 0.96L276.86 0.96L276.86 0.96Q273.55 0.96 271.61 0.24L271.61 0.24L271.61 0.24Q269.66-0.48 268.37-1.82L268.37-1.82L268.37-1.82Q265.82-4.37 265.82-9.02L265.82-9.02L265.82-9.02Q265.82-16.27 269.76-20.69L269.76-20.69L269.76-20.69Q273.98-25.44 281.33-25.44L281.33-25.44L281.33-25.44Q285.89-25.44 288.14-23.52L288.14-23.52L288.14-23.52Q289.82-22.08 289.82-19.73L289.82-19.73L289.82-19.73Q289.82-11.28 275.23-11.28L275.23-11.28L275.23-11.28Q275.04-10.03 275.04-8.98L275.04-8.98L275.04-8.98Q275.04-6.77 276.02-5.93L276.02-5.93L276.02-5.93Q277.01-5.09 278.83-5.09L278.83-5.09L278.83-5.09Q280.66-5.09 282.60-5.93L282.60-5.93L282.60-5.93Q284.54-6.77 285.36-8.11ZM275.57-13.34L275.57-13.34L275.57-13.34Q278.98-13.34 280.94-15.46L280.94-15.46L280.94-15.46Q282.91-17.47 282.91-20.69L282.91-20.69L282.91-20.69Q282.91-21.79 282.50-22.39L282.50-22.39L282.50-22.39Q282.10-22.99 281.28-22.99L281.28-22.99L281.28-22.99Q280.46-22.99 279.77-22.68L279.77-22.68L279.77-22.68Q279.07-22.37 278.35-21.31L278.35-21.31L278.35-21.31Q276.58-18.91 275.57-13.34ZM306.48-13.49L306.48-13.49L306.48-13.49Q308.21-16.56 308.21-19.68L308.21-19.68L308.21-19.68Q308.21-21.74 306.72-21.74L306.72-21.74L306.72-21.74Q305.57-21.74 304.37-19.78L304.37-19.78L304.37-19.78Q303.12-17.81 302.74-15.26L302.74-15.26L300.24 0L290.30 0.96L295.20-24.48L303.12-25.44L302.26-20.59L302.26-20.59Q304.61-25.44 309.89-25.44L309.89-25.44L309.89-25.44Q312.67-25.44 314.18-24L314.18-24L314.18-24Q315.70-22.56 315.70-19.61L315.70-19.61L315.70-19.61Q315.70-16.66 313.75-14.78L313.75-14.78L313.75-14.78Q311.81-12.91 308.50-12.91L308.50-12.91L308.50-12.91Q307.06-12.91 306.48-13.49ZM345.07-22.18L345.07-22.18L345.07-22.18Q345.79-23.62 345.79-24.96L345.79-24.96L345.79-24.96Q345.79-26.30 345.65-27.05L345.65-27.05L345.65-27.05Q345.50-27.79 345.17-28.37L345.17-28.37L345.17-28.37Q344.45-29.62 343.01-29.62L343.01-29.62L343.01-29.62Q341.23-29.62 339.79-28.32L339.79-28.32L339.79-28.32Q338.26-26.98 338.26-24.86L338.26-24.86L338.26-24.86Q338.26-23.52 339.19-22.49L339.19-22.49L339.19-22.49Q340.13-21.46 341.57-20.50L341.57-20.50L341.57-20.50Q343.01-19.54 344.64-18.58L344.64-18.58L344.64-18.58Q346.27-17.62 347.71-16.46L347.71-16.46L347.71-16.46Q351.02-13.82 351.02-10.27L351.02-10.27L351.02-10.27Q351.02-7.87 349.75-5.83L349.75-5.83L349.75-5.83Q348.48-3.79 346.37-2.30L346.37-2.30L346.37-2.30Q341.76 0.96 335.66 0.96L335.66 0.96L335.66 0.96Q330.72 0.96 328.18-0.65L328.18-0.65L328.18-0.65Q325.63-2.26 325.63-4.70L325.63-4.70L325.63-4.70Q325.63-9.07 329.04-10.18L329.04-10.18L329.04-10.18Q330-10.51 331.46-10.51L331.46-10.51L331.46-10.51Q332.93-10.51 334.61-9.89L334.61-9.89L334.61-9.89Q333.84-7.92 333.84-6.14L333.84-6.14L333.84-6.14Q333.84-2.30 336.58-2.30L336.58-2.30L336.58-2.30Q338.35-2.30 339.82-3.60L339.82-3.60L339.82-3.60Q341.28-4.90 341.28-6.36L341.28-6.36L341.28-6.36Q341.28-7.82 340.34-8.88L340.34-8.88L340.34-8.88Q339.41-9.94 338.02-10.78L338.02-10.78L338.02-10.78Q336.62-11.62 335.02-12.43L335.02-12.43L335.02-12.43Q333.41-13.25 332.02-14.40L332.02-14.40L332.02-14.40Q328.75-17.04 328.75-21.26L328.75-21.26L328.75-21.26Q328.75-24 330.10-26.14L330.10-26.14L330.10-26.14Q331.44-28.27 333.60-29.71L333.60-29.71L333.60-29.71Q337.92-32.64 343.22-32.64L343.22-32.64L343.22-32.64Q348.53-32.64 351.10-31.06L351.10-31.06L351.10-31.06Q353.66-29.47 353.66-26.78L353.66-26.78L353.66-26.78Q353.66-24.43 351.84-22.94L351.84-22.94L351.84-22.94Q350.26-21.70 348.34-21.70L348.34-21.70L348.34-21.70Q346.42-21.70 345.07-22.18ZM389.23 0.96L389.23 0.96L389.23 0.96Q383.42 0.96 383.42-3.55L383.42-3.55L383.42-3.55Q383.42-5.52 384.26-9.34L384.26-9.34L384.26-9.34Q385.10-13.15 385.39-14.69L385.39-14.69L385.39-14.69Q386.06-18.19 386.06-19.30L386.06-19.30L386.06-19.30Q386.06-21.74 384.24-21.74L384.24-21.74L384.24-21.74Q383.04-21.74 381.89-20.09L381.89-20.09L381.89-20.09Q380.74-18.43 380.21-15.12L380.21-15.12L377.23 0L367.87 0.96L370.46-12.10L370.46-12.10Q370.90-14.26 371.28-16.70L371.28-16.70L371.28-16.70Q371.66-19.15 371.66-19.54L371.66-19.54L371.66-19.54Q371.66-21.74 370.03-21.74L370.03-21.74L370.03-21.74Q368.93-21.74 367.73-20.11L367.73-20.11L367.73-20.11Q366.53-18.48 365.86-15.12L365.86-15.12L362.93 0L353.47 0.96L358.51-24.48L366.34-25.44L365.52-20.59L365.52-20.59Q366.77-23.18 369.07-24.31L369.07-24.31L369.07-24.31Q371.38-25.44 374.98-25.44L374.98-25.44L374.98-25.44Q377.04-25.44 378.38-24.43L378.38-24.43L378.38-24.43Q379.73-23.42 380.16-21.79L380.16-21.79L380.16-21.79Q380.98-23.47 383.06-24.46L383.06-24.46L383.06-24.46Q385.15-25.44 387.72-25.44L387.72-25.44L387.72-25.44Q390.29-25.44 391.56-24.89L391.56-24.89L391.56-24.89Q392.83-24.34 393.60-23.42L393.60-23.42L393.60-23.42Q394.90-21.74 394.90-18.67L394.90-18.67L394.90-18.67Q394.90-15.65 393.60-9.36L393.60-9.36L393.60-9.36Q392.93-6.29 392.93-5.16L392.93-5.16L392.93-5.16Q392.93-4.03 393.58-3.36L393.58-3.36L393.58-3.36Q394.22-2.69 395.18-2.59L395.18-2.59L395.18-2.59Q394.70-0.96 393.05 0L393.05 0L393.05 0Q391.39 0.96 389.23 0.96ZM410.40-2.64L410.40-2.64L410.40-2.64Q408.91 0.96 404.16 0.96L404.16 0.96L404.16 0.96Q401.71 0.96 400.18-0.72L400.18-0.72L400.18-0.72Q398.88-2.21 398.88-3.70L398.88-3.70L398.88-3.70Q398.88-7.58 400.66-15.17L400.66-15.17L402.43-24.48L412.18-25.44L409.25-10.27L409.25-10.27Q408.43-6.72 408.43-5.47L408.43-5.47L408.43-5.47Q408.43-2.74 410.40-2.64ZM403.30-31.15L403.30-31.15L403.30-31.15Q403.30-33.02 404.86-34.03L404.86-34.03L404.86-34.03Q406.42-35.04 408.67-35.04L408.67-35.04L408.67-35.04Q410.93-35.04 412.30-34.03L412.30-34.03L412.30-34.03Q413.66-33.02 413.66-31.15L413.66-31.15L413.66-31.15Q413.66-29.28 412.15-28.32L412.15-28.32L412.15-28.32Q410.64-27.36 408.38-27.36L408.38-27.36L408.38-27.36Q406.13-27.36 404.71-28.32L404.71-28.32L404.71-28.32Q403.30-29.28 403.30-31.15ZM415.25-4.80L415.25-4.80L415.25-4.80Q415.25-6.10 415.92-9.36L415.92-9.36L418.46-22.32L415.63-22.32L415.82-23.76L415.82-23.76Q421.58-25.49 427.15-29.71L427.15-29.71L429.46-29.71L428.30-24.48L432.05-24.48L431.62-22.32L427.92-22.32L425.47-9.36L425.47-9.36Q424.85-6.38 424.85-5.38L424.85-5.38L424.85-5.38Q424.85-3.07 426.86-2.59L426.86-2.59L426.86-2.59Q426.38-0.96 424.66 0L424.66 0L424.66 0Q422.93 0.96 420.48 0.96L420.48 0.96L420.48 0.96Q418.03 0.96 416.64-0.58L416.64-0.58L416.64-0.58Q415.25-2.11 415.25-4.80ZM455.95-5.33L455.95-5.33L455.95-5.33Q455.95-3.22 458.11-2.59L458.11-2.59L458.11-2.59Q457.58-0.82 455.52 0.14L455.52 0.14L455.52 0.14Q453.79 0.96 451.90 0.96L451.90 0.96L451.90 0.96Q450.00 0.96 449.02 0.46L449.02 0.46L449.02 0.46Q448.03-0.05 447.50-0.86L447.50-0.86L447.50-0.86Q446.64-2.11 446.64-4.46L446.64-4.46L446.64-4.46Q446.64-5.86 447.41-9.70L447.41-9.70L448.08-13.34L448.08-13.34Q448.90-17.52 448.90-19.06L448.90-19.06L448.90-19.06Q448.90-21.74 447.41-21.74L447.41-21.74L447.41-21.74Q445.54-21.74 444.34-19.01L444.34-19.01L444.34-19.01Q443.86-17.95 443.52-16.37L443.52-16.37L440.26 0L430.61 0.96L437.38-33.60L447.02-34.56L446.64-32.64L446.64-32.64Q445.30-25.25 444.14-22.75L444.14-22.75L444.14-22.75Q446.83-25.44 451.78-25.44L451.78-25.44L451.78-25.44Q457.01-25.44 457.97-21.98L457.97-21.98L457.97-21.98Q458.30-20.88 458.30-19.92L458.30-19.92L458.30-19.92Q458.30-18.96 458.23-18.22L458.23-18.22L458.23-18.22Q458.16-17.47 457.92-16.13L457.92-16.13L457.30-12.67L456.19-7.25L456.19-7.25Q455.95-6.14 455.95-5.33ZM473.66-7.78L473.66-7.78L473.66-7.78Q472.13-8.88 472.13-10.99L472.13-10.99L472.13-10.99Q472.13-12.14 472.70-13.08L472.70-13.08L472.70-13.08Q473.28-14.02 474.43-14.16L474.43-14.16L483.89-14.16L483.89-14.16Q485.47-14.16 485.95-15.12L485.95-15.12L485.95-15.12Q486.72-14.69 487.06-13.78L487.06-13.78L487.06-13.78Q487.39-12.86 487.39-11.90L487.39-11.90L487.39-11.90Q487.39-10.94 486.65-10.01L486.65-10.01L486.65-10.01Q485.90-9.07 484.80-8.98L484.80-8.98L476.02-8.98L476.02-8.98Q475.01-8.98 474.53-8.66L474.53-8.66L474.53-8.66Q474.05-8.35 473.66-7.78ZM501.36-4.80L501.36-4.80L501.36-4.80Q501.36-6.10 502.03-9.36L502.03-9.36L504.58-22.32L501.74-22.32L501.94-23.76L501.94-23.76Q507.70-25.49 513.26-29.71L513.26-29.71L515.57-29.71L514.42-24.48L518.16-24.48L517.73-22.32L514.03-22.32L511.58-9.36L511.58-9.36Q510.96-6.38 510.96-5.38L510.96-5.38L510.96-5.38Q510.96-3.07 512.98-2.59L512.98-2.59L512.98-2.59Q512.50-0.96 510.77 0L510.77 0L510.77 0Q509.04 0.96 506.59 0.96L506.59 0.96L506.59 0.96Q504.14 0.96 502.75-0.58L502.75-0.58L502.75-0.58Q501.36-2.11 501.36-4.80ZM542.06-5.33L542.06-5.33L542.06-5.33Q542.06-3.22 544.22-2.59L544.22-2.59L544.22-2.59Q543.70-0.82 541.63 0.14L541.63 0.14L541.63 0.14Q539.90 0.96 538.01 0.96L538.01 0.96L538.01 0.96Q536.11 0.96 535.13 0.46L535.13 0.46L535.13 0.46Q534.14-0.05 533.62-0.86L533.62-0.86L533.62-0.86Q532.75-2.11 532.75-4.46L532.75-4.46L532.75-4.46Q532.75-5.86 533.52-9.70L533.52-9.70L534.19-13.34L534.19-13.34Q535.01-17.52 535.01-19.06L535.01-19.06L535.01-19.06Q535.01-21.74 533.52-21.74L533.52-21.74L533.52-21.74Q531.65-21.74 530.45-19.01L530.45-19.01L530.45-19.01Q529.97-17.95 529.63-16.37L529.63-16.37L526.37 0L516.72 0.96L523.49-33.60L533.14-34.56L532.75-32.64L532.75-32.64Q531.41-25.25 530.26-22.75L530.26-22.75L530.26-22.75Q532.94-25.44 537.89-25.44L537.89-25.44L537.89-25.44Q543.12-25.44 544.08-21.98L544.08-21.98L544.08-21.98Q544.42-20.88 544.42-19.92L544.42-19.92L544.42-19.92Q544.42-18.96 544.34-18.22L544.34-18.22L544.34-18.22Q544.27-17.47 544.03-16.13L544.03-16.13L543.41-12.67L542.30-7.25L542.30-7.25Q542.06-6.14 542.06-5.33ZM559.63-2.64L559.63-2.64L559.63-2.64Q558.14 0.96 553.39 0.96L553.39 0.96L553.39 0.96Q550.94 0.96 549.41-0.72L549.41-0.72L549.41-0.72Q548.11-2.21 548.11-3.70L548.11-3.70L548.11-3.70Q548.11-7.58 549.89-15.17L549.89-15.17L551.66-24.48L561.41-25.44L558.48-10.27L558.48-10.27Q557.66-6.72 557.66-5.47L557.66-5.47L557.66-5.47Q557.66-2.74 559.63-2.64ZM552.53-31.15L552.53-31.15L552.53-31.15Q552.53-33.02 554.09-34.03L554.09-34.03L554.09-34.03Q555.65-35.04 557.90-35.04L557.90-35.04L557.90-35.04Q560.16-35.04 561.53-34.03L561.53-34.03L561.53-34.03Q562.90-33.02 562.90-31.15L562.90-31.15L562.90-31.15Q562.90-29.28 561.38-28.32L561.38-28.32L561.38-28.32Q559.87-27.36 557.62-27.36L557.62-27.36L557.62-27.36Q555.36-27.36 553.94-28.32L553.94-28.32L553.94-28.32Q552.53-29.28 552.53-31.15ZM578.06-16.85L578.06-16.85L578.06-16.85Q578.74-18.62 578.74-20.16L578.74-20.16L578.74-20.16Q578.74-22.99 576.43-22.99L576.43-22.99L576.43-22.99Q575.23-22.99 574.25-21.91L574.25-21.91L574.25-21.91Q573.26-20.83 573.26-19.49L573.26-19.49L573.26-19.49Q573.26-18.53 574.03-17.76L574.03-17.76L574.03-17.76Q575.14-16.70 577.97-14.98L577.97-14.98L577.97-14.98Q580.80-13.25 581.88-11.83L581.88-11.83L581.88-11.83Q582.96-10.42 582.96-8.47L582.96-8.47L582.96-8.47Q582.96-6.53 582.02-4.75L582.02-4.75L582.02-4.75Q581.09-2.98 579.41-1.73L579.41-1.73L579.41-1.73Q575.81 0.96 570.05 0.96L570.05 0.96L570.05 0.96Q566.93 0.96 564.53-0.67L564.53-0.67L564.53-0.67Q562.13-2.26 562.13-4.13L562.13-4.13L562.13-4.13Q562.13-6 563.50-7.10L563.50-7.10L563.50-7.10Q564.86-8.21 566.88-8.21L566.88-8.21L566.88-8.21Q568.90-8.21 570.14-7.44L570.14-7.44L570.14-7.44Q569.52-5.86 569.52-4.80L569.52-4.80L569.52-4.80Q569.52-1.63 572.21-1.63L572.21-1.63L572.21-1.63Q573.36-1.63 574.13-2.35L574.13-2.35L574.13-2.35Q574.90-3.07 574.90-4.32L574.90-4.32L574.90-4.32Q574.90-6.77 570.77-9.36L570.77-9.36L570.77-9.36Q567.41-11.57 566.64-12.43L566.64-12.43L566.64-12.43Q565.34-13.97 565.34-15.89L565.34-15.89L565.34-15.89Q565.34-17.81 566.26-19.63L566.26-19.63L566.26-19.63Q567.17-21.46 568.85-22.75L568.85-22.75L568.85-22.75Q572.35-25.44 578.45-25.44L578.45-25.44L578.45-25.44Q581.57-25.44 583.42-24.19L583.42-24.19L583.42-24.19Q585.26-22.94 585.26-20.83L585.26-20.83L585.26-20.83Q585.26-18.72 583.99-17.52L583.99-17.52L583.99-17.52Q582.72-16.32 580.42-16.32L580.42-16.32L580.42-16.32Q578.83-16.32 578.06-16.85ZM608.45-2.64L608.45-2.64L608.45-2.64Q606.96 0.96 602.21 0.96L602.21 0.96L602.21 0.96Q599.76 0.96 598.22-0.72L598.22-0.72L598.22-0.72Q596.93-2.21 596.93-3.70L596.93-3.70L596.93-3.70Q596.93-7.58 598.70-15.17L598.70-15.17L600.48-24.48L610.22-25.44L607.30-10.27L607.30-10.27Q606.48-6.72 606.48-5.47L606.48-5.47L606.48-5.47Q606.48-2.74 608.45-2.64ZM601.34-31.15L601.34-31.15L601.34-31.15Q601.34-33.02 602.90-34.03L602.90-34.03L602.90-34.03Q604.46-35.04 606.72-35.04L606.72-35.04L606.72-35.04Q608.98-35.04 610.34-34.03L610.34-34.03L610.34-34.03Q611.71-33.02 611.71-31.15L611.71-31.15L611.71-31.15Q611.71-29.28 610.20-28.32L610.20-28.32L610.20-28.32Q608.69-27.36 606.43-27.36L606.43-27.36L606.43-27.36Q604.18-27.36 602.76-28.32L602.76-28.32L602.76-28.32Q601.34-29.28 601.34-31.15ZM626.88-16.85L626.88-16.85L626.88-16.85Q627.55-18.62 627.55-20.16L627.55-20.16L627.55-20.16Q627.55-22.99 625.25-22.99L625.25-22.99L625.25-22.99Q624.05-22.99 623.06-21.91L623.06-21.91L623.06-21.91Q622.08-20.83 622.08-19.49L622.08-19.49L622.08-19.49Q622.08-18.53 622.85-17.76L622.85-17.76L622.85-17.76Q623.95-16.70 626.78-14.98L626.78-14.98L626.78-14.98Q629.62-13.25 630.70-11.83L630.70-11.83L630.70-11.83Q631.78-10.42 631.78-8.47L631.78-8.47L631.78-8.47Q631.78-6.53 630.84-4.75L630.84-4.75L630.84-4.75Q629.90-2.98 628.22-1.73L628.22-1.73L628.22-1.73Q624.62 0.96 618.86 0.96L618.86 0.96L618.86 0.96Q615.74 0.96 613.34-0.67L613.34-0.67L613.34-0.67Q610.94-2.26 610.94-4.13L610.94-4.13L610.94-4.13Q610.94-6 612.31-7.10L612.31-7.10L612.31-7.10Q613.68-8.21 615.70-8.21L615.70-8.21L615.70-8.21Q617.71-8.21 618.96-7.44L618.96-7.44L618.96-7.44Q618.34-5.86 618.34-4.80L618.34-4.80L618.34-4.80Q618.34-1.63 621.02-1.63L621.02-1.63L621.02-1.63Q622.18-1.63 622.94-2.35L622.94-2.35L622.94-2.35Q623.71-3.07 623.71-4.32L623.71-4.32L623.71-4.32Q623.71-6.77 619.58-9.36L619.58-9.36L619.58-9.36Q616.22-11.57 615.46-12.43L615.46-12.43L615.46-12.43Q614.16-13.97 614.16-15.89L614.16-15.89L614.16-15.89Q614.16-17.81 615.07-19.63L615.07-19.63L615.07-19.63Q615.98-21.46 617.66-22.75L617.66-22.75L617.66-22.75Q621.17-25.44 627.26-25.44L627.26-25.44L627.26-25.44Q630.38-25.44 632.23-24.19L632.23-24.19L632.23-24.19Q634.08-22.94 634.08-20.83L634.08-20.83L634.08-20.83Q634.08-18.72 632.81-17.52L632.81-17.52L632.81-17.52Q631.54-16.32 629.23-16.32L629.23-16.32L629.23-16.32Q627.65-16.32 626.88-16.85ZM680.30 0.96L680.30 0.96L680.30 0.96Q674.50 0.96 674.50-3.55L674.50-3.55L674.50-3.55Q674.50-5.52 675.34-9.34L675.34-9.34L675.34-9.34Q676.18-13.15 676.46-14.69L676.46-14.69L676.46-14.69Q677.14-18.19 677.14-19.30L677.14-19.30L677.14-19.30Q677.14-21.74 675.31-21.74L675.31-21.74L675.31-21.74Q674.11-21.74 672.96-20.09L672.96-20.09L672.96-20.09Q671.81-18.43 671.28-15.12L671.28-15.12L668.30 0L658.94 0.96L661.54-12.10L661.54-12.10Q661.97-14.26 662.35-16.70L662.35-16.70L662.35-16.70Q662.74-19.15 662.74-19.54L662.74-19.54L662.74-19.54Q662.74-21.74 661.10-21.74L661.10-21.74L661.10-21.74Q660-21.74 658.80-20.11L658.80-20.11L658.80-20.11Q657.60-18.48 656.93-15.12L656.93-15.12L654 0L644.54 0.96L649.58-24.48L657.41-25.44L656.59-20.59L656.59-20.59Q657.84-23.18 660.14-24.31L660.14-24.31L660.14-24.31Q662.45-25.44 666.05-25.44L666.05-25.44L666.05-25.44Q668.11-25.44 669.46-24.43L669.46-24.43L669.46-24.43Q670.80-23.42 671.23-21.79L671.23-21.79L671.23-21.79Q672.05-23.47 674.14-24.46L674.14-24.46L674.14-24.46Q676.22-25.44 678.79-25.44L678.79-25.44L678.79-25.44Q681.36-25.44 682.63-24.89L682.63-24.89L682.63-24.89Q683.90-24.34 684.67-23.42L684.67-23.42L684.67-23.42Q685.97-21.74 685.97-18.67L685.97-18.67L685.97-18.67Q685.97-15.65 684.67-9.36L684.67-9.36L684.67-9.36Q684-6.29 684-5.16L684-5.16L684-5.16Q684-4.03 684.65-3.36L684.65-3.36L684.65-3.36Q685.30-2.69 686.26-2.59L686.26-2.59L686.26-2.59Q685.78-0.96 684.12 0L684.12 0L684.12 0Q682.46 0.96 680.30 0.96ZM705.22-5.42L705.22-5.42L705.22-5.42Q702.72-2.83 698.16-2.83L698.16-2.83L698.16-2.83Q692.45-2.83 691.25-7.01L691.25-7.01L691.25-7.01Q690.86-8.26 690.86-9.65L690.86-9.65L690.86-9.65Q690.86-11.04 691.15-12.48L691.15-12.48L693.41-24.48L703.15-25.44L700.51-11.47L700.51-11.47Q700.42-10.85 700.27-10.18L700.27-10.18L700.27-10.18Q700.13-9.50 700.13-8.81L700.13-8.81L700.13-8.81Q700.13-8.11 700.37-7.66L700.37-7.66L700.37-7.66Q700.61-7.20 700.94-6.91L700.94-6.91L700.94-6.91Q701.52-6.53 702.55-6.53L702.55-6.53L702.55-6.53Q703.58-6.53 704.47-7.78L704.47-7.78L704.47-7.78Q705.36-9.02 705.79-11.18L705.79-11.18L708.43-24.48L717.89-25.44L714.29-6.58L714.29-6.58Q712.51 2.64 708.86 6.29L708.86 6.29L708.86 6.29Q706.99 8.16 704.57 8.90L704.57 8.90L704.57 8.90Q702.14 9.65 699.02 9.65L699.02 9.65L699.02 9.65Q693.98 9.65 691.10 8.06L691.10 8.06L691.10 8.06Q688.22 6.48 688.22 3.84L688.22 3.84L688.22 3.84Q688.22 1.87 689.71 0.74L689.71 0.74L689.71 0.74Q691.20-0.38 693.50-0.38L693.50-0.38L693.50-0.38Q695.52-0.38 697.06 0.48L697.06 0.48L697.06 0.48Q697.97 1.01 698.40 1.68L698.40 1.68L698.40 1.68Q697.30 2.64 697.30 4.22L697.30 4.22L697.30 4.22Q697.30 6.34 699.22 6.34L699.22 6.34L699.22 6.34Q702.38 6.34 704.21-0.96L704.21-0.96L704.21-0.96Q704.74-3.12 705.22-5.42ZM751.87-3.29L751.87-3.29L751.87-3.29Q749.86-1.25 747.10-0.14L747.10-0.14L747.10-0.14Q744.34 0.96 741.60 0.96L741.60 0.96L741.60 0.96Q738.86 0.96 737.90 0.48L737.90 0.48L736.42 8.64L726.67 9.60L733.30-24.48L741.12-25.30L740.50-21.98L740.50-21.98Q742.51-25.39 746.69-25.39L746.69-25.39L746.69-25.39Q751.39-25.39 753.89-22.37L753.89-22.37L753.89-22.37Q756.10-19.63 756.10-15.46L756.10-15.46L756.10-15.46Q756.10-11.28 754.99-8.30L754.99-8.30L754.99-8.30Q753.89-5.33 751.87-3.29ZM741.02-16.75L738.48-2.69L738.48-2.69Q739.49-1.82 740.74-1.82L740.74-1.82L740.74-1.82Q741.98-1.82 742.70-2.30L742.70-2.30L742.70-2.30Q743.42-2.78 743.95-3.74L743.95-3.74L743.95-3.74Q745.39-6.34 746.54-14.21L746.54-14.21L746.54-14.21Q746.88-16.51 746.88-18.77L746.88-18.77L746.88-18.77Q746.88-21.02 746.38-21.74L746.38-21.74L746.38-21.74Q745.87-22.46 744.91-22.46L744.91-22.46L744.91-22.46Q741.98-22.46 741.02-16.75L741.02-16.75ZM774-13.49L774-13.49L774-13.49Q775.73-16.56 775.73-19.68L775.73-19.68L775.73-19.68Q775.73-21.74 774.24-21.74L774.24-21.74L774.24-21.74Q773.09-21.74 771.89-19.78L771.89-19.78L771.89-19.78Q770.64-17.81 770.26-15.26L770.26-15.26L767.76 0L757.82 0.96L762.72-24.48L770.64-25.44L769.78-20.59L769.78-20.59Q772.13-25.44 777.41-25.44L777.41-25.44L777.41-25.44Q780.19-25.44 781.70-24L781.70-24L781.70-24Q783.22-22.56 783.22-19.61L783.22-19.61L783.22-19.61Q783.22-16.66 781.27-14.78L781.27-14.78L781.27-14.78Q779.33-12.91 776.02-12.91L776.02-12.91L776.02-12.91Q774.58-12.91 774-13.49ZM794.45 0.96L794.45 0.96L794.45 0.96Q783.89 0.96 783.89-8.98L783.89-8.98L783.89-8.98Q783.89-16.03 787.78-20.59L787.78-20.59L787.78-20.59Q791.90-25.44 799.06-25.44L799.06-25.44L799.06-25.44Q804.24-25.44 806.88-23.04L806.88-23.04L806.88-23.04Q809.52-20.64 809.52-15.60L809.52-15.60L809.52-15.60Q809.52-7.92 805.39-3.46L805.39-3.46L805.39-3.46Q801.36 0.96 794.45 0.96ZM795.70-19.92L795.70-19.92L795.70-19.92Q795.12-18.62 794.66-16.68L794.66-16.68L794.66-16.68Q794.21-14.74 793.63-11.66L793.63-11.66L793.63-11.66Q793.06-8.59 793.06-4.80L793.06-4.80L793.06-4.80Q793.06-3.55 793.46-2.74L793.46-2.74L793.46-2.74Q793.87-1.92 794.98-1.92L794.98-1.92L794.98-1.92Q796.08-1.92 796.78-2.45L796.78-2.45L796.78-2.45Q797.47-2.98 798-4.22L798-4.22L798-4.22Q798.96-6.43 799.73-10.54L799.73-10.54L799.73-10.54Q800.50-14.64 800.57-16.42L800.57-16.42L800.57-16.42Q800.64-18.19 800.64-19.51L800.64-19.51L800.64-19.51Q800.64-20.83 800.26-21.70L800.26-21.70L800.26-21.70Q799.87-22.56 798.79-22.56L798.79-22.56L798.79-22.56Q797.71-22.56 796.99-21.89L796.99-21.89L796.99-21.89Q796.27-21.22 795.70-19.92ZM831.07-27.84L831.07-27.84L831.07-27.84Q831.74-28.99 831.74-30.24L831.74-30.24L831.74-30.24Q831.74-32.45 830.40-32.45L830.40-32.45L830.40-32.45Q828.34-32.45 827.47-28.22L827.47-28.22L826.75-24.48L831.12-24.48L830.83-22.32L826.32-22.32L822.00 0L812.30 0.96L816.91-22.32L813.50-22.32L813.94-24.48L817.30-24.48L818.30-28.27L818.30-28.27Q819.17-31.78 822.86-33.41L822.86-33.41L822.86-33.41Q825.55-34.56 830.06-34.56L830.06-34.56L830.06-34.56Q834.58-34.56 836.59-33.41L836.59-33.41L836.59-33.41Q838.61-32.26 838.61-30.72L838.61-30.72L838.61-30.72Q838.61-29.18 837.41-28.22L837.41-28.22L837.41-28.22Q836.21-27.26 834.86-27.26L834.86-27.26L834.86-27.26Q832.22-27.26 831.07-27.84ZM846.34-2.64L846.34-2.64L846.34-2.64Q844.85 0.96 840.10 0.96L840.10 0.96L840.10 0.96Q837.65 0.96 836.11-0.72L836.11-0.72L836.11-0.72Q834.82-2.21 834.82-3.70L834.82-3.70L834.82-3.70Q834.82-7.58 836.59-15.17L836.59-15.17L838.37-24.48L848.11-25.44L845.18-10.27L845.18-10.27Q844.37-6.72 844.37-5.47L844.37-5.47L844.37-5.47Q844.37-2.74 846.34-2.64ZM839.23-31.15L839.23-31.15L839.23-31.15Q839.23-33.02 840.79-34.03L840.79-34.03L840.79-34.03Q842.35-35.04 844.61-35.04L844.61-35.04L844.61-35.04Q846.86-35.04 848.23-34.03L848.23-34.03L848.23-34.03Q849.60-33.02 849.60-31.15L849.60-31.15L849.60-31.15Q849.60-29.28 848.09-28.32L848.09-28.32L848.09-28.32Q846.58-27.36 844.32-27.36L844.32-27.36L844.32-27.36Q842.06-27.36 840.65-28.32L840.65-28.32L840.65-28.32Q839.23-29.28 839.23-31.15ZM861.89-2.64L861.89-2.64L861.89-2.64Q860.40 0.96 855.65 0.96L855.65 0.96L855.65 0.96Q853.25 0.96 851.71-0.72L851.71-0.72L851.71-0.72Q850.46-2.11 850.46-3.70L850.46-3.70L850.46-3.70Q850.46-7.30 852.14-15.17L852.14-15.17L855.65-33.60L865.39-34.56L860.74-10.27L860.74-10.27Q859.92-6.72 859.92-5.47L859.92-5.47L859.92-5.47Q859.92-2.74 861.89-2.64ZM885.41-8.11L885.41-8.11L885.41-8.11Q886.61-7.30 886.61-5.50L886.61-5.50L886.61-5.50Q886.61-3.70 885.70-2.54L885.70-2.54L885.70-2.54Q884.78-1.39 883.30-0.62L883.30-0.62L883.30-0.62Q880.22 0.96 876.91 0.96L876.91 0.96L876.91 0.96Q873.60 0.96 871.66 0.24L871.66 0.24L871.66 0.24Q869.71-0.48 868.42-1.82L868.42-1.82L868.42-1.82Q865.87-4.37 865.87-9.02L865.87-9.02L865.87-9.02Q865.87-16.27 869.81-20.69L869.81-20.69L869.81-20.69Q874.03-25.44 881.38-25.44L881.38-25.44L881.38-25.44Q885.94-25.44 888.19-23.52L888.19-23.52L888.19-23.52Q889.87-22.08 889.87-19.73L889.87-19.73L889.87-19.73Q889.87-11.28 875.28-11.28L875.28-11.28L875.28-11.28Q875.09-10.03 875.09-8.98L875.09-8.98L875.09-8.98Q875.09-6.77 876.07-5.93L876.07-5.93L876.07-5.93Q877.06-5.09 878.88-5.09L878.88-5.09L878.88-5.09Q880.70-5.09 882.65-5.93L882.65-5.93L882.65-5.93Q884.59-6.77 885.41-8.11ZM875.62-13.34L875.62-13.34L875.62-13.34Q879.02-13.34 880.99-15.46L880.99-15.46L880.99-15.46Q882.96-17.47 882.96-20.69L882.96-20.69L882.96-20.69Q882.96-21.79 882.55-22.39L882.55-22.39L882.55-22.39Q882.14-22.99 881.33-22.99L881.33-22.99L881.33-22.99Q880.51-22.99 879.82-22.68L879.82-22.68L879.82-22.68Q879.12-22.37 878.40-21.31L878.40-21.31L878.40-21.31Q876.62-18.91 875.62-13.34Z" fill="#ccc"></path></g></g><style>text {
  font-size: 64px;
  font-family: Arial Black;
  dominant-baseline: central;
  text-anchor: middle;
}</style></svg>