<svg id="Layer_1" data-name="Layer 1" xmlns="http://www.w3.org/2000/svg" xmlns:xlink="http://www.w3.org/1999/xlink" viewBox="0 0 1555.6 93.2"><defs><style>.cls-1{filter:url(#editing-extrude-glow);}.cls-2{fill:#6c8deb;}</style><filter id="editing-extrude-glow" name="editing-extrude-glow"><feFlood result="flood-1" flood-color="#333"/><feMorphology result="erode" radius="1" in="SourceAlpha"/><feComposite result="comp1" operator="in" in="flood-1" in2="erode"/><feOffset result="extrude" dx="-3" in="convolve"/><feComposite result="comp-extrude" operator="in" in="flood-1" in2="extrude"/><feFlood result="flood-2" flood-color="#100011"/><feComposite result="comp2" operator="in" in="flood-2" in2="SourceAlpha"/><feMorphology result="dilate" operator="dilate" radius="1" in="comp2"/><feOffset result="offset" dx="-4.5" in="dilate"/><feGaussianBlur result="blur" stdDeviation="5.8" in="offset"/><feComponentTransfer result="shadow" in="blur"><feFuncA type="linear" slope="0.8"/></feComponentTransfer><feMerge><feMergeNode in="shadow"/><feMergeNode in="comp-extrude"/><feMergeNode in="SourceGraphic"/></feMerge></filter></defs><g class="cls-1"><path class="cls-2" d="M45.45,71.2h7.9V3.2h-7.9V33.7H13.55V2.7l-7.9.5v68h7.9V40.1h31.9Zm63.8-23h0q0-12-5-19.4h0q-5-7.39-15.65-7.4h0A22.29,22.29,0,0,0,76.4,24.65h0a20.63,20.63,0,0,0-7.8,9h0A31.19,31.19,0,0,0,66,46.8h0q0,11.7,6.5,18.7h0q6.51,7,18.9,7h0a28.94,28.94,0,0,0,9.1-1.35h0a46.42,46.42,0,0,0,8.2-3.65h0l-2.5-5.8h0a55,55,0,0,1-7.75,3.2h0a24.09,24.09,0,0,1-7.15,1h0q-8.59,0-12.75-4.75h0Q74.36,56.4,74.05,48.2h35.2Zm-35-5.4h0Q75,36,78.5,32.05h0q3.56-3.94,9.75-3.95h0q11.5,0,13.2,14.7H74.25Zm54.3,36.4h0a9.11,9.11,0,0,1-3.35,4.55h0a51.86,51.86,0,0,1-7,3.75h0l2.4,5.7h0A22.05,22.05,0,0,0,130,88.9h0a17.64,17.64,0,0,0,5.75-7.7h0l21.4-58.5h-8l-13.9,37.5-14.7-39-7,3,18,46.7ZM162.15,1l1.7,47.8,5.7,2.8L171.15,1Zm4.5,59.5h0a5.47,5.47,0,0,0-3.85,1.55h0a5,5,0,0,0-1.65,3.75h0a5.12,5.12,0,0,0,1.65,3.8h0a5.35,5.35,0,0,0,3.85,1.6h0a5.12,5.12,0,0,0,3.85-1.6h0a5.25,5.25,0,0,0,1.55-3.8h0a5,5,0,0,0-1.6-3.75h0a5.27,5.27,0,0,0-3.8-1.55Zm41,10.7h7.9V3.2h-7.9ZM233.55,0h0a5.29,5.29,0,0,0-3.85,1.65h0a5.17,5.17,0,0,0-1.65,3.75h0a5.64,5.64,0,0,0,1.35,3.65h0a4.41,4.41,0,0,0,3.25,1.75h0a9,9,0,0,1-1.75,4.5h0a18.59,18.59,0,0,1-4.15,3.8h0l2.1,3.7h0a19.06,19.06,0,0,0,7.2-7h0a17.75,17.75,0,0,0,3-9.55h0a6.36,6.36,0,0,0-1.65-4.55h0A5.12,5.12,0,0,0,233.55,0Zm69.9,21.2h0q7.41,0,11,4.65h0q3.6,4.65,3.6,12.45h0V71.1h-7.9V39.4h0q0-5.4-1.8-8.4h0c-1.2-2-3.26-3-6.2-3h0A15.19,15.19,0,0,0,295,30.25h0A34.33,34.33,0,0,0,287.45,36h0a17.73,17.73,0,0,1,.1,2.3h0V71.1h-7.9V39.4h0q0-5.4-1.8-8.4h0c-1.2-2-3.26-3-6.2-3h0a15.73,15.73,0,0,0-7.55,2.5h0a33.26,33.26,0,0,0-7.85,6.3h0V71.2h-7.9V22.7h5.9l1.3,6.9h0a30.35,30.35,0,0,1,8.35-6h0a20.75,20.75,0,0,1,9.15-2.4h0a14.17,14.17,0,0,1,8.15,2.2h0a13.09,13.09,0,0,1,4.85,6.2h0a30.55,30.55,0,0,1,8.3-6h0a20.42,20.42,0,0,1,9.1-2.4Zm99-11.8-.9-6.2h-53.4V9.4H371V71.2h8V9.4Zm17,69.8h0a9.11,9.11,0,0,1-3.35,4.55h0a51.86,51.86,0,0,1-7,3.75h0l2.4,5.7h0a22.05,22.05,0,0,0,9.35-4.3h0a17.64,17.64,0,0,0,5.75-7.7h0l21.4-58.5h-8l-13.9,37.5-14.7-39-7,3,18,46.7Zm36.9-8h7.9V.6l-7.9,1Zm61.7-23h0q0-12-5-19.4h0q-5-7.39-15.65-7.4h0a22.29,22.29,0,0,0-12.15,3.25h0a20.63,20.63,0,0,0-7.8,9h0a31.19,31.19,0,0,0-2.65,13.15h0q0,11.7,6.5,18.7h0q6.51,7,18.9,7h0a28.94,28.94,0,0,0,9.1-1.35h0a46.42,46.42,0,0,0,8.2-3.65h0L515,61.7h0a55,55,0,0,1-7.75,3.2h0a24.09,24.09,0,0,1-7.15,1h0q-8.6,0-12.75-4.75h0q-4.14-4.76-4.45-12.95h35.2Zm-35-5.4h0q.7-6.79,4.25-10.75h0q3.56-3.94,9.75-3.95h0q11.51,0,13.2,14.7h-27.2Zm52.5,28.4V37.8h0a34.38,34.38,0,0,1,8.3-6.15h0a19,19,0,0,1,8.9-2.65h0l-1.9-6.3h0a17.46,17.46,0,0,0-8.1,2.5h0a46.77,46.77,0,0,0-7.9,5.3h0l-2.5-7.8h-4.7V71.2Zm46.9-3.3h0a27.65,27.65,0,0,0,8.5,3.2h0a44.41,44.41,0,0,0,10.2,1.4h0A32.92,32.92,0,0,0,614,70.2h0a18.79,18.79,0,0,0,8.3-6.3h0a15.45,15.45,0,0,0,2.85-9.2h0a16.11,16.11,0,0,0-2-8.25h0a19.52,19.52,0,0,0-5.85-6.15h0a65.54,65.54,0,0,0-10.15-5.6h0q-7-3.2-10.6-5.3h0A18.75,18.75,0,0,1,591,24.75h0a9.83,9.83,0,0,1-2-6.15h0a8.6,8.6,0,0,1,4-7.5h0q4-2.7,10.55-2.7h0a26.58,26.58,0,0,1,7.45.9h0a50.64,50.64,0,0,1,6.75,2.6h0l2.7-6.1h0a39.54,39.54,0,0,0-8.05-3h0a36.49,36.49,0,0,0-9.35-1.2h0A27.43,27.43,0,0,0,591.6,3.85h0A17.85,17.85,0,0,0,584,10h0a15.18,15.18,0,0,0-2.65,8.7h0a16.31,16.31,0,0,0,4.35,11.5h0q4.35,4.69,13.65,8.7h0a105.41,105.41,0,0,1,10.25,5h0a18.61,18.61,0,0,1,5.75,4.8h0a9.9,9.9,0,0,1,2,6.15h0a9.34,9.34,0,0,1-4.25,8h0q-4.25,3-12.05,3h0a33.88,33.88,0,0,1-8.95-1.25h0a42.59,42.59,0,0,1-7.75-2.85h0Zm107.3-46.7h0q7.41,0,11,4.65h0q3.6,4.65,3.6,12.45h0V71.1h-7.9V39.4h0q0-5.4-1.8-8.4h0c-1.2-2-3.26-3-6.2-3h0a15.19,15.19,0,0,0-7.15,2.25h0A34.33,34.33,0,0,0,673.75,36h0a17.73,17.73,0,0,1,.1,2.3h0V71.1H666V39.4h0q0-5.4-1.8-8.4h0c-1.2-2-3.26-3-6.2-3h0a15.73,15.73,0,0,0-7.55,2.5h0a33.26,33.26,0,0,0-7.85,6.3h0V71.2h-7.9V22.7h5.9l1.3,6.9h0a30.35,30.35,0,0,1,8.35-6h0a20.75,20.75,0,0,1,9.15-2.4h0a14.17,14.17,0,0,1,8.15,2.2h0a13.09,13.09,0,0,1,4.85,6.2h0a30.55,30.55,0,0,1,8.3-6h0a20.42,20.42,0,0,1,9.1-2.4Zm30.6-8.2h0a5.27,5.27,0,0,0,3.8-1.55h0a5,5,0,0,0,1.6-3.75h0a5.18,5.18,0,0,0-1.6-3.8h0a5.16,5.16,0,0,0-3.8-1.6h0a5.08,5.08,0,0,0-3.8,1.55h0a5.32,5.32,0,0,0-1.5,3.85h0a5.15,5.15,0,0,0,1.5,3.8h0a5.15,5.15,0,0,0,3.8,1.5Zm-3.9,58.2h8V22.7h-8Zm39.6-47.7h-8.8V8.9l-7.9,2.2V23.5h-7.1l.1,6h7V58.6h0q0,6.8,3.65,10.45h0q3.66,3.65,10,3.65h0a17.18,17.18,0,0,0,7.4-1.7h0l-1.8-6.2h0a12,12,0,0,1-4.4,1h0a6.16,6.16,0,0,1-5.2-2.2h0a9.79,9.79,0,0,1-1.7-6.1h0v-28h11.4Zm39.4-2.3h0q7.71,0,11.45,4.65h0q3.75,4.65,3.75,12.45h0V71.1h-7.9V39.4h0c0-3.6-.66-6.4-2-8.4h0q-2-3-6.7-3h0a17.3,17.3,0,0,0-8.15,2.5h0a31.8,31.8,0,0,0-8,6.3h0V71.2H770V1.6l7.9-1V28.9h0a28.32,28.32,0,0,1,8.35-5.55h0a22.92,22.92,0,0,1,9.25-2.15ZM868.85,47l-.8-6.3h-25.2l.9,6.3Zm51.7-23.5h-8.8V8.9l-7.9,2.2V23.5h-7.1l.1,6h7V58.6h0q0,6.8,3.65,10.45h0q3.66,3.65,10,3.65h0a17.18,17.18,0,0,0,7.4-1.7h0l-1.8-6.2h0a12,12,0,0,1-4.4,1h0a6.16,6.16,0,0,1-5.2-2.2h0a9.79,9.79,0,0,1-1.7-6.1h0v-28h11.4ZM960,21.2h0q7.71,0,11.45,4.65h0q3.75,4.65,3.75,12.45h0V71.1h-7.9V39.4h0c0-3.6-.66-6.4-2-8.4h0q-2-3-6.7-3h0a17.3,17.3,0,0,0-8.15,2.5h0a31.8,31.8,0,0,0-8,6.3h0V71.2h-7.9V1.6l7.9-1V28.9h0a28.32,28.32,0,0,1,8.35-5.55h0A22.92,22.92,0,0,1,960,21.2Zm31.3-8.2h0a5.27,5.27,0,0,0,3.8-1.55h0a5,5,0,0,0,1.6-3.75h0a5.18,5.18,0,0,0-1.6-3.8h0a5.16,5.16,0,0,0-3.8-1.6h0a5.08,5.08,0,0,0-3.8,1.55h0A5.32,5.32,0,0,0,986,7.7h0a5.15,5.15,0,0,0,1.5,3.8h0a5.15,5.15,0,0,0,3.8,1.5Zm-3.9,58.2h8V22.7h-8Zm18-2.8h0a21.24,21.24,0,0,0,7.4,3h0a36.64,36.64,0,0,0,8.1,1.1h0q9.4,0,14.45-3.7h0a12.14,12.14,0,0,0,5-10.4h0q0-9.4-16.3-15.4h0a36.79,36.79,0,0,1-8.3-3.7h0q-2.89-1.9-3-4.5h0a5.89,5.89,0,0,1,2.85-5h0A12.75,12.75,0,0,1,1023,27.8h0a22.23,22.23,0,0,1,6.6.9h0a52.73,52.73,0,0,1,6.2,2.4h0l2.5-5.4h0a21.24,21.24,0,0,0-7.15-3.1h0a31.72,31.72,0,0,0-7.95-1.2h0q-8.4,0-13.25,3.65h0a11.88,11.88,0,0,0-4.85,10.05h0a10.55,10.55,0,0,0,4.4,8.7h0a37.92,37.92,0,0,0,11.4,5.7h0q12,4,12,9.4h0a5.88,5.88,0,0,1-3.2,5.3h0q-3.2,1.9-8.7,1.9h0a29.24,29.24,0,0,1-13.1-3.4h0Zm71.7-55.4h0a5.27,5.27,0,0,0,3.8-1.55h0a5,5,0,0,0,1.6-3.75h0a5.18,5.18,0,0,0-1.6-3.8h0a5.16,5.16,0,0,0-3.8-1.6h0a5.08,5.08,0,0,0-3.8,1.55h0a5.32,5.32,0,0,0-1.5,3.85h0a5.15,5.15,0,0,0,1.5,3.8h0a5.15,5.15,0,0,0,3.8,1.5Zm-3.9,58.2h8V22.7h-8Zm18-2.8h0a21.24,21.24,0,0,0,7.4,3h0a36.64,36.64,0,0,0,8.1,1.1h0q9.4,0,14.45-3.7h0a12.14,12.14,0,0,0,5.05-10.4h0q0-9.4-16.3-15.4h0a36.79,36.79,0,0,1-8.3-3.7h0q-2.9-1.9-3-4.5h0a5.89,5.89,0,0,1,2.85-5h0a12.75,12.75,0,0,1,7.35-1.95h0a22.23,22.23,0,0,1,6.6.9h0a52.73,52.73,0,0,1,6.2,2.4h0l2.5-5.4h0a21.24,21.24,0,0,0-7.15-3.1h0a31.72,31.72,0,0,0-8-1.2h0q-8.4,0-13.25,3.65h0a11.88,11.88,0,0,0-4.85,10.05h0a10.55,10.55,0,0,0,4.4,8.7h0a37.92,37.92,0,0,0,11.4,5.7h0q12,4,12,9.4h0a5.88,5.88,0,0,1-3.2,5.3h0q-3.2,1.9-8.7,1.9h0a29.24,29.24,0,0,1-13.1-3.4h0Zm122.9-47.2h0q7.41,0,11,4.65h0q3.6,4.65,3.6,12.45h0V71.1h-7.9V39.4h0q0-5.4-1.8-8.4h0c-1.2-2-3.26-3-6.2-3h0a15.19,15.19,0,0,0-7.15,2.25h0a34.33,34.33,0,0,0-7.55,5.75h0a17.73,17.73,0,0,1,.1,2.3h0V71.1h-7.9V39.4h0q0-5.4-1.8-8.4h0c-1.2-2-3.26-3-6.2-3h0a15.73,15.73,0,0,0-7.55,2.5h0a33.26,33.26,0,0,0-7.85,6.3h0V71.2H1159V22.7h5.9l1.3,6.9h0a30.35,30.35,0,0,1,8.35-6h0a20.75,20.75,0,0,1,9.15-2.4h0a14.17,14.17,0,0,1,8.15,2.2h0a13.09,13.09,0,0,1,4.85,6.2h0a30.55,30.55,0,0,1,8.3-6h0a20.42,20.42,0,0,1,9.1-2.4Zm36.4,58h0a9.11,9.11,0,0,1-3.35,4.55h0a51.86,51.86,0,0,1-6.95,3.75h0l2.4,5.7h0a22.05,22.05,0,0,0,9.35-4.3h0a17.64,17.64,0,0,0,5.75-7.7h0l21.4-58.5h-8l-13.9,37.5-14.7-39-7,3,18,46.7Zm79-57.8h0q10.8,0,17,7.05h0q6.15,7.05,6.15,18.65h0a29.23,29.23,0,0,1-2.85,13.15h0a21.68,21.68,0,0,1-8.1,9h0a22.94,22.94,0,0,1-12.35,3.25h0a20.73,20.73,0,0,1-11.1-3.7h0V92l-7.9,1.1V22.7h4.7l1.7,3.4h0a25.79,25.79,0,0,1,6.4-3.45h0a18.68,18.68,0,0,1,6.4-1.25Zm0,44.4h0q7.2,0,11.1-5.2h0q3.9-5.2,4-13.4h0q0-8.6-3.85-13.85h0q-3.84-5.25-11.15-5.25h0a16.68,16.68,0,0,0-6.3,1.1h0a16.25,16.25,0,0,0-5.1,3.4h0V61.5h0a18,18,0,0,0,5.1,3.2h0a16.41,16.41,0,0,0,6.2,1.1Zm40.6,5.4V37.8h0a34.38,34.38,0,0,1,8.3-6.15h0a19,19,0,0,1,8.9-2.65h0l-1.9-6.3h0a17.46,17.46,0,0,0-8.1,2.5h0a46.77,46.77,0,0,0-7.9,5.3h0l-2.5-7.8h-4.7V71.2Zm68.6-24.1h0a28.36,28.36,0,0,1-3,13.15h0a21.77,21.77,0,0,1-8.45,9h0a24.63,24.63,0,0,1-12.8,3.25h0a22.53,22.53,0,0,1-12.2-3.25h0a21.08,21.08,0,0,1-8-9.1h0a31.08,31.08,0,0,1-2.75-13.35h0a30.22,30.22,0,0,1,3-13.15h0a21.37,21.37,0,0,1,8.25-9h0a23.93,23.93,0,0,1,12.6-3.25h0q10.9,0,17.1,7h0q6.21,6.94,6.2,18.75Zm-23.8,18.7h0a13.82,13.82,0,0,0,11.4-5.25h0q4.2-5.25,4.3-13.35h0q0-8.6-4-13.85h0q-4-5.25-11.3-5.25h0a13.82,13.82,0,0,0-11.4,5.25h0q-4.2,5.25-4.3,13.35h0q0,8.5,4,13.8h0q4,5.3,11.3,5.3Zm28.7-36.3h7.3V71.2h7.9V29.5h11.5l-2.6-6h-8.9V16.4h0q0-8.29,6.8-8.3h0a10.3,10.3,0,0,1,2.3.3h0a9.33,9.33,0,0,1,2.1.7h0l1.8-6.4h0a13.86,13.86,0,0,0-3.3-1.2h0a16.54,16.54,0,0,0-4-.5h0q-6.3,0-10,4.05h0q-3.64,4.05-3.65,10.85h0v7.6h-7.4ZM1482,13h0a5.27,5.27,0,0,0,3.8-1.55h0a5,5,0,0,0,1.6-3.75h0a5.18,5.18,0,0,0-1.6-3.8h0a5.16,5.16,0,0,0-3.8-1.6h0a5.08,5.08,0,0,0-3.8,1.55h0a5.32,5.32,0,0,0-1.5,3.85h0a5.15,5.15,0,0,0,1.5,3.8h0A5.15,5.15,0,0,0,1482,13Zm-3.9,58.2h8V22.7h-8Zm21.5,0h7.9V.6l-7.9,1Zm61.7-23h0q0-12-5-19.4h0q-5-7.39-15.65-7.4h0a22.29,22.29,0,0,0-12.15,3.25h0a20.63,20.63,0,0,0-7.8,9h0A31.19,31.19,0,0,0,1518,46.8h0q0,11.7,6.5,18.7h0q6.51,7,18.9,7h0a28.94,28.94,0,0,0,9.1-1.35h0a46.42,46.42,0,0,0,8.2-3.65h0l-2.5-5.8h0a55,55,0,0,1-7.75,3.2h0a24.09,24.09,0,0,1-7.15,1h0q-8.6,0-12.75-4.75h0q-4.14-4.76-4.45-12.95h35.2Zm-35-5.4h0q.7-6.79,4.25-10.75h0q3.55-3.94,9.75-3.95h0q11.51,0,13.2,14.7h-27.2Z" transform="translate(-5.65)"/></g></svg>